G75*
%MOIN*%
%OFA0B0*%
%FSLAX25Y25*%
%IPPOS*%
%LPD*%
%AMOC8*
5,1,8,0,0,1.08239X$1,22.5*
%
%ADD10C,0.00000*%
%ADD11C,0.00800*%
%ADD12C,0.00400*%
%ADD13R,0.00886X0.00984*%
%ADD14C,0.01000*%
%ADD15C,0.00600*%
%ADD16C,0.00200*%
%ADD17C,0.00500*%
%ADD18C,0.00799*%
%ADD19C,0.00300*%
%ADD20C,0.00700*%
%ADD21C,0.00866*%
%ADD22C,0.00100*%
%ADD23R,0.02400X0.06200*%
%ADD24R,0.00984X0.00984*%
%ADD25R,0.01500X0.04000*%
D10*
X0043383Y0051522D02*
X0043383Y0538242D01*
X0378031Y0538242D01*
X0378031Y0051522D01*
X0043383Y0051522D01*
X0045573Y0125393D02*
X0291636Y0125393D01*
X0291636Y0178543D01*
X0303447Y0190354D01*
X0329037Y0190354D01*
X0340848Y0202165D01*
X0340848Y0324212D01*
X0329037Y0336023D01*
X0303447Y0336023D01*
X0291636Y0347834D01*
X0291636Y0400984D01*
X0045573Y0400984D01*
X0045573Y0356555D01*
X0057384Y0344744D01*
X0077069Y0344744D01*
X0088880Y0332932D01*
X0088880Y0193444D01*
X0077069Y0181633D01*
X0057384Y0181633D01*
X0045573Y0169822D01*
X0045573Y0125393D01*
X0334957Y0110073D02*
X0334959Y0110231D01*
X0334965Y0110390D01*
X0334975Y0110548D01*
X0334989Y0110705D01*
X0335007Y0110863D01*
X0335028Y0111019D01*
X0335054Y0111176D01*
X0335084Y0111331D01*
X0335117Y0111486D01*
X0335155Y0111640D01*
X0335196Y0111793D01*
X0335241Y0111944D01*
X0335290Y0112095D01*
X0335343Y0112244D01*
X0335399Y0112392D01*
X0335460Y0112539D01*
X0335523Y0112684D01*
X0335591Y0112827D01*
X0335662Y0112968D01*
X0335736Y0113108D01*
X0335814Y0113246D01*
X0335896Y0113382D01*
X0335981Y0113515D01*
X0336069Y0113647D01*
X0336160Y0113776D01*
X0336255Y0113903D01*
X0336353Y0114027D01*
X0336454Y0114149D01*
X0336558Y0114269D01*
X0336664Y0114386D01*
X0336774Y0114500D01*
X0336887Y0114611D01*
X0337002Y0114719D01*
X0337121Y0114825D01*
X0337241Y0114927D01*
X0337364Y0115027D01*
X0337490Y0115123D01*
X0337618Y0115216D01*
X0337749Y0115306D01*
X0337881Y0115392D01*
X0338016Y0115475D01*
X0338153Y0115555D01*
X0338292Y0115631D01*
X0338432Y0115704D01*
X0338575Y0115773D01*
X0338719Y0115839D01*
X0338864Y0115901D01*
X0339012Y0115959D01*
X0339160Y0116014D01*
X0339310Y0116065D01*
X0339461Y0116112D01*
X0339614Y0116155D01*
X0339767Y0116194D01*
X0339921Y0116230D01*
X0340076Y0116261D01*
X0340232Y0116289D01*
X0340389Y0116313D01*
X0340546Y0116333D01*
X0340704Y0116349D01*
X0340861Y0116361D01*
X0341020Y0116369D01*
X0341178Y0116373D01*
X0341336Y0116373D01*
X0341494Y0116369D01*
X0341653Y0116361D01*
X0341810Y0116349D01*
X0341968Y0116333D01*
X0342125Y0116313D01*
X0342282Y0116289D01*
X0342438Y0116261D01*
X0342593Y0116230D01*
X0342747Y0116194D01*
X0342900Y0116155D01*
X0343053Y0116112D01*
X0343204Y0116065D01*
X0343354Y0116014D01*
X0343502Y0115959D01*
X0343650Y0115901D01*
X0343795Y0115839D01*
X0343939Y0115773D01*
X0344082Y0115704D01*
X0344222Y0115631D01*
X0344361Y0115555D01*
X0344498Y0115475D01*
X0344633Y0115392D01*
X0344765Y0115306D01*
X0344896Y0115216D01*
X0345024Y0115123D01*
X0345150Y0115027D01*
X0345273Y0114927D01*
X0345393Y0114825D01*
X0345512Y0114719D01*
X0345627Y0114611D01*
X0345740Y0114500D01*
X0345850Y0114386D01*
X0345956Y0114269D01*
X0346060Y0114149D01*
X0346161Y0114027D01*
X0346259Y0113903D01*
X0346354Y0113776D01*
X0346445Y0113647D01*
X0346533Y0113515D01*
X0346618Y0113382D01*
X0346700Y0113246D01*
X0346778Y0113108D01*
X0346852Y0112968D01*
X0346923Y0112827D01*
X0346991Y0112684D01*
X0347054Y0112539D01*
X0347115Y0112392D01*
X0347171Y0112244D01*
X0347224Y0112095D01*
X0347273Y0111944D01*
X0347318Y0111793D01*
X0347359Y0111640D01*
X0347397Y0111486D01*
X0347430Y0111331D01*
X0347460Y0111176D01*
X0347486Y0111019D01*
X0347507Y0110863D01*
X0347525Y0110705D01*
X0347539Y0110548D01*
X0347549Y0110390D01*
X0347555Y0110231D01*
X0347557Y0110073D01*
X0347555Y0109915D01*
X0347549Y0109756D01*
X0347539Y0109598D01*
X0347525Y0109441D01*
X0347507Y0109283D01*
X0347486Y0109127D01*
X0347460Y0108970D01*
X0347430Y0108815D01*
X0347397Y0108660D01*
X0347359Y0108506D01*
X0347318Y0108353D01*
X0347273Y0108202D01*
X0347224Y0108051D01*
X0347171Y0107902D01*
X0347115Y0107754D01*
X0347054Y0107607D01*
X0346991Y0107462D01*
X0346923Y0107319D01*
X0346852Y0107178D01*
X0346778Y0107038D01*
X0346700Y0106900D01*
X0346618Y0106764D01*
X0346533Y0106631D01*
X0346445Y0106499D01*
X0346354Y0106370D01*
X0346259Y0106243D01*
X0346161Y0106119D01*
X0346060Y0105997D01*
X0345956Y0105877D01*
X0345850Y0105760D01*
X0345740Y0105646D01*
X0345627Y0105535D01*
X0345512Y0105427D01*
X0345393Y0105321D01*
X0345273Y0105219D01*
X0345150Y0105119D01*
X0345024Y0105023D01*
X0344896Y0104930D01*
X0344765Y0104840D01*
X0344633Y0104754D01*
X0344498Y0104671D01*
X0344361Y0104591D01*
X0344222Y0104515D01*
X0344082Y0104442D01*
X0343939Y0104373D01*
X0343795Y0104307D01*
X0343650Y0104245D01*
X0343502Y0104187D01*
X0343354Y0104132D01*
X0343204Y0104081D01*
X0343053Y0104034D01*
X0342900Y0103991D01*
X0342747Y0103952D01*
X0342593Y0103916D01*
X0342438Y0103885D01*
X0342282Y0103857D01*
X0342125Y0103833D01*
X0341968Y0103813D01*
X0341810Y0103797D01*
X0341653Y0103785D01*
X0341494Y0103777D01*
X0341336Y0103773D01*
X0341178Y0103773D01*
X0341020Y0103777D01*
X0340861Y0103785D01*
X0340704Y0103797D01*
X0340546Y0103813D01*
X0340389Y0103833D01*
X0340232Y0103857D01*
X0340076Y0103885D01*
X0339921Y0103916D01*
X0339767Y0103952D01*
X0339614Y0103991D01*
X0339461Y0104034D01*
X0339310Y0104081D01*
X0339160Y0104132D01*
X0339012Y0104187D01*
X0338864Y0104245D01*
X0338719Y0104307D01*
X0338575Y0104373D01*
X0338432Y0104442D01*
X0338292Y0104515D01*
X0338153Y0104591D01*
X0338016Y0104671D01*
X0337881Y0104754D01*
X0337749Y0104840D01*
X0337618Y0104930D01*
X0337490Y0105023D01*
X0337364Y0105119D01*
X0337241Y0105219D01*
X0337121Y0105321D01*
X0337002Y0105427D01*
X0336887Y0105535D01*
X0336774Y0105646D01*
X0336664Y0105760D01*
X0336558Y0105877D01*
X0336454Y0105997D01*
X0336353Y0106119D01*
X0336255Y0106243D01*
X0336160Y0106370D01*
X0336069Y0106499D01*
X0335981Y0106631D01*
X0335896Y0106764D01*
X0335814Y0106900D01*
X0335736Y0107038D01*
X0335662Y0107178D01*
X0335591Y0107319D01*
X0335523Y0107462D01*
X0335460Y0107607D01*
X0335399Y0107754D01*
X0335343Y0107902D01*
X0335290Y0108051D01*
X0335241Y0108202D01*
X0335196Y0108353D01*
X0335155Y0108506D01*
X0335117Y0108660D01*
X0335084Y0108815D01*
X0335054Y0108970D01*
X0335028Y0109127D01*
X0335007Y0109283D01*
X0334989Y0109441D01*
X0334975Y0109598D01*
X0334965Y0109756D01*
X0334959Y0109915D01*
X0334957Y0110073D01*
X0334957Y0065073D02*
X0334959Y0065231D01*
X0334965Y0065390D01*
X0334975Y0065548D01*
X0334989Y0065705D01*
X0335007Y0065863D01*
X0335028Y0066019D01*
X0335054Y0066176D01*
X0335084Y0066331D01*
X0335117Y0066486D01*
X0335155Y0066640D01*
X0335196Y0066793D01*
X0335241Y0066944D01*
X0335290Y0067095D01*
X0335343Y0067244D01*
X0335399Y0067392D01*
X0335460Y0067539D01*
X0335523Y0067684D01*
X0335591Y0067827D01*
X0335662Y0067968D01*
X0335736Y0068108D01*
X0335814Y0068246D01*
X0335896Y0068382D01*
X0335981Y0068515D01*
X0336069Y0068647D01*
X0336160Y0068776D01*
X0336255Y0068903D01*
X0336353Y0069027D01*
X0336454Y0069149D01*
X0336558Y0069269D01*
X0336664Y0069386D01*
X0336774Y0069500D01*
X0336887Y0069611D01*
X0337002Y0069719D01*
X0337121Y0069825D01*
X0337241Y0069927D01*
X0337364Y0070027D01*
X0337490Y0070123D01*
X0337618Y0070216D01*
X0337749Y0070306D01*
X0337881Y0070392D01*
X0338016Y0070475D01*
X0338153Y0070555D01*
X0338292Y0070631D01*
X0338432Y0070704D01*
X0338575Y0070773D01*
X0338719Y0070839D01*
X0338864Y0070901D01*
X0339012Y0070959D01*
X0339160Y0071014D01*
X0339310Y0071065D01*
X0339461Y0071112D01*
X0339614Y0071155D01*
X0339767Y0071194D01*
X0339921Y0071230D01*
X0340076Y0071261D01*
X0340232Y0071289D01*
X0340389Y0071313D01*
X0340546Y0071333D01*
X0340704Y0071349D01*
X0340861Y0071361D01*
X0341020Y0071369D01*
X0341178Y0071373D01*
X0341336Y0071373D01*
X0341494Y0071369D01*
X0341653Y0071361D01*
X0341810Y0071349D01*
X0341968Y0071333D01*
X0342125Y0071313D01*
X0342282Y0071289D01*
X0342438Y0071261D01*
X0342593Y0071230D01*
X0342747Y0071194D01*
X0342900Y0071155D01*
X0343053Y0071112D01*
X0343204Y0071065D01*
X0343354Y0071014D01*
X0343502Y0070959D01*
X0343650Y0070901D01*
X0343795Y0070839D01*
X0343939Y0070773D01*
X0344082Y0070704D01*
X0344222Y0070631D01*
X0344361Y0070555D01*
X0344498Y0070475D01*
X0344633Y0070392D01*
X0344765Y0070306D01*
X0344896Y0070216D01*
X0345024Y0070123D01*
X0345150Y0070027D01*
X0345273Y0069927D01*
X0345393Y0069825D01*
X0345512Y0069719D01*
X0345627Y0069611D01*
X0345740Y0069500D01*
X0345850Y0069386D01*
X0345956Y0069269D01*
X0346060Y0069149D01*
X0346161Y0069027D01*
X0346259Y0068903D01*
X0346354Y0068776D01*
X0346445Y0068647D01*
X0346533Y0068515D01*
X0346618Y0068382D01*
X0346700Y0068246D01*
X0346778Y0068108D01*
X0346852Y0067968D01*
X0346923Y0067827D01*
X0346991Y0067684D01*
X0347054Y0067539D01*
X0347115Y0067392D01*
X0347171Y0067244D01*
X0347224Y0067095D01*
X0347273Y0066944D01*
X0347318Y0066793D01*
X0347359Y0066640D01*
X0347397Y0066486D01*
X0347430Y0066331D01*
X0347460Y0066176D01*
X0347486Y0066019D01*
X0347507Y0065863D01*
X0347525Y0065705D01*
X0347539Y0065548D01*
X0347549Y0065390D01*
X0347555Y0065231D01*
X0347557Y0065073D01*
X0347555Y0064915D01*
X0347549Y0064756D01*
X0347539Y0064598D01*
X0347525Y0064441D01*
X0347507Y0064283D01*
X0347486Y0064127D01*
X0347460Y0063970D01*
X0347430Y0063815D01*
X0347397Y0063660D01*
X0347359Y0063506D01*
X0347318Y0063353D01*
X0347273Y0063202D01*
X0347224Y0063051D01*
X0347171Y0062902D01*
X0347115Y0062754D01*
X0347054Y0062607D01*
X0346991Y0062462D01*
X0346923Y0062319D01*
X0346852Y0062178D01*
X0346778Y0062038D01*
X0346700Y0061900D01*
X0346618Y0061764D01*
X0346533Y0061631D01*
X0346445Y0061499D01*
X0346354Y0061370D01*
X0346259Y0061243D01*
X0346161Y0061119D01*
X0346060Y0060997D01*
X0345956Y0060877D01*
X0345850Y0060760D01*
X0345740Y0060646D01*
X0345627Y0060535D01*
X0345512Y0060427D01*
X0345393Y0060321D01*
X0345273Y0060219D01*
X0345150Y0060119D01*
X0345024Y0060023D01*
X0344896Y0059930D01*
X0344765Y0059840D01*
X0344633Y0059754D01*
X0344498Y0059671D01*
X0344361Y0059591D01*
X0344222Y0059515D01*
X0344082Y0059442D01*
X0343939Y0059373D01*
X0343795Y0059307D01*
X0343650Y0059245D01*
X0343502Y0059187D01*
X0343354Y0059132D01*
X0343204Y0059081D01*
X0343053Y0059034D01*
X0342900Y0058991D01*
X0342747Y0058952D01*
X0342593Y0058916D01*
X0342438Y0058885D01*
X0342282Y0058857D01*
X0342125Y0058833D01*
X0341968Y0058813D01*
X0341810Y0058797D01*
X0341653Y0058785D01*
X0341494Y0058777D01*
X0341336Y0058773D01*
X0341178Y0058773D01*
X0341020Y0058777D01*
X0340861Y0058785D01*
X0340704Y0058797D01*
X0340546Y0058813D01*
X0340389Y0058833D01*
X0340232Y0058857D01*
X0340076Y0058885D01*
X0339921Y0058916D01*
X0339767Y0058952D01*
X0339614Y0058991D01*
X0339461Y0059034D01*
X0339310Y0059081D01*
X0339160Y0059132D01*
X0339012Y0059187D01*
X0338864Y0059245D01*
X0338719Y0059307D01*
X0338575Y0059373D01*
X0338432Y0059442D01*
X0338292Y0059515D01*
X0338153Y0059591D01*
X0338016Y0059671D01*
X0337881Y0059754D01*
X0337749Y0059840D01*
X0337618Y0059930D01*
X0337490Y0060023D01*
X0337364Y0060119D01*
X0337241Y0060219D01*
X0337121Y0060321D01*
X0337002Y0060427D01*
X0336887Y0060535D01*
X0336774Y0060646D01*
X0336664Y0060760D01*
X0336558Y0060877D01*
X0336454Y0060997D01*
X0336353Y0061119D01*
X0336255Y0061243D01*
X0336160Y0061370D01*
X0336069Y0061499D01*
X0335981Y0061631D01*
X0335896Y0061764D01*
X0335814Y0061900D01*
X0335736Y0062038D01*
X0335662Y0062178D01*
X0335591Y0062319D01*
X0335523Y0062462D01*
X0335460Y0062607D01*
X0335399Y0062754D01*
X0335343Y0062902D01*
X0335290Y0063051D01*
X0335241Y0063202D01*
X0335196Y0063353D01*
X0335155Y0063506D01*
X0335117Y0063660D01*
X0335084Y0063815D01*
X0335054Y0063970D01*
X0335028Y0064127D01*
X0335007Y0064283D01*
X0334989Y0064441D01*
X0334975Y0064598D01*
X0334965Y0064756D01*
X0334959Y0064915D01*
X0334957Y0065073D01*
X0357501Y0202676D02*
X0357503Y0202773D01*
X0357509Y0202870D01*
X0357519Y0202966D01*
X0357533Y0203062D01*
X0357551Y0203158D01*
X0357572Y0203252D01*
X0357598Y0203346D01*
X0357627Y0203438D01*
X0357661Y0203529D01*
X0357697Y0203619D01*
X0357738Y0203707D01*
X0357782Y0203793D01*
X0357830Y0203878D01*
X0357881Y0203960D01*
X0357935Y0204041D01*
X0357993Y0204119D01*
X0358054Y0204194D01*
X0358117Y0204267D01*
X0358184Y0204338D01*
X0358254Y0204405D01*
X0358326Y0204470D01*
X0358401Y0204531D01*
X0358479Y0204590D01*
X0358558Y0204645D01*
X0358640Y0204697D01*
X0358724Y0204745D01*
X0358810Y0204790D01*
X0358898Y0204832D01*
X0358987Y0204870D01*
X0359078Y0204904D01*
X0359170Y0204934D01*
X0359263Y0204961D01*
X0359358Y0204983D01*
X0359453Y0205002D01*
X0359549Y0205017D01*
X0359645Y0205028D01*
X0359742Y0205035D01*
X0359839Y0205038D01*
X0359936Y0205037D01*
X0360033Y0205032D01*
X0360129Y0205023D01*
X0360225Y0205010D01*
X0360321Y0204993D01*
X0360416Y0204972D01*
X0360509Y0204948D01*
X0360602Y0204919D01*
X0360694Y0204887D01*
X0360784Y0204851D01*
X0360872Y0204812D01*
X0360959Y0204768D01*
X0361044Y0204722D01*
X0361127Y0204671D01*
X0361208Y0204618D01*
X0361286Y0204561D01*
X0361363Y0204501D01*
X0361436Y0204438D01*
X0361507Y0204372D01*
X0361575Y0204303D01*
X0361641Y0204231D01*
X0361703Y0204157D01*
X0361762Y0204080D01*
X0361818Y0204001D01*
X0361871Y0203919D01*
X0361921Y0203836D01*
X0361966Y0203750D01*
X0362009Y0203663D01*
X0362048Y0203574D01*
X0362083Y0203484D01*
X0362114Y0203392D01*
X0362141Y0203299D01*
X0362165Y0203205D01*
X0362185Y0203110D01*
X0362201Y0203014D01*
X0362213Y0202918D01*
X0362221Y0202821D01*
X0362225Y0202724D01*
X0362225Y0202628D01*
X0362221Y0202531D01*
X0362213Y0202434D01*
X0362201Y0202338D01*
X0362185Y0202242D01*
X0362165Y0202147D01*
X0362141Y0202053D01*
X0362114Y0201960D01*
X0362083Y0201868D01*
X0362048Y0201778D01*
X0362009Y0201689D01*
X0361966Y0201602D01*
X0361921Y0201516D01*
X0361871Y0201433D01*
X0361818Y0201351D01*
X0361762Y0201272D01*
X0361703Y0201195D01*
X0361641Y0201121D01*
X0361575Y0201049D01*
X0361507Y0200980D01*
X0361436Y0200914D01*
X0361363Y0200851D01*
X0361286Y0200791D01*
X0361208Y0200734D01*
X0361127Y0200681D01*
X0361044Y0200630D01*
X0360959Y0200584D01*
X0360872Y0200540D01*
X0360784Y0200501D01*
X0360694Y0200465D01*
X0360602Y0200433D01*
X0360509Y0200404D01*
X0360416Y0200380D01*
X0360321Y0200359D01*
X0360225Y0200342D01*
X0360129Y0200329D01*
X0360033Y0200320D01*
X0359936Y0200315D01*
X0359839Y0200314D01*
X0359742Y0200317D01*
X0359645Y0200324D01*
X0359549Y0200335D01*
X0359453Y0200350D01*
X0359358Y0200369D01*
X0359263Y0200391D01*
X0359170Y0200418D01*
X0359078Y0200448D01*
X0358987Y0200482D01*
X0358898Y0200520D01*
X0358810Y0200562D01*
X0358724Y0200607D01*
X0358640Y0200655D01*
X0358558Y0200707D01*
X0358479Y0200762D01*
X0358401Y0200821D01*
X0358326Y0200882D01*
X0358254Y0200947D01*
X0358184Y0201014D01*
X0358117Y0201085D01*
X0358054Y0201158D01*
X0357993Y0201233D01*
X0357935Y0201311D01*
X0357881Y0201392D01*
X0357830Y0201474D01*
X0357782Y0201559D01*
X0357738Y0201645D01*
X0357697Y0201733D01*
X0357661Y0201823D01*
X0357627Y0201914D01*
X0357598Y0202006D01*
X0357572Y0202100D01*
X0357551Y0202194D01*
X0357533Y0202290D01*
X0357519Y0202386D01*
X0357509Y0202482D01*
X0357503Y0202579D01*
X0357501Y0202676D01*
X0347501Y0212676D02*
X0347503Y0212773D01*
X0347509Y0212870D01*
X0347519Y0212966D01*
X0347533Y0213062D01*
X0347551Y0213158D01*
X0347572Y0213252D01*
X0347598Y0213346D01*
X0347627Y0213438D01*
X0347661Y0213529D01*
X0347697Y0213619D01*
X0347738Y0213707D01*
X0347782Y0213793D01*
X0347830Y0213878D01*
X0347881Y0213960D01*
X0347935Y0214041D01*
X0347993Y0214119D01*
X0348054Y0214194D01*
X0348117Y0214267D01*
X0348184Y0214338D01*
X0348254Y0214405D01*
X0348326Y0214470D01*
X0348401Y0214531D01*
X0348479Y0214590D01*
X0348558Y0214645D01*
X0348640Y0214697D01*
X0348724Y0214745D01*
X0348810Y0214790D01*
X0348898Y0214832D01*
X0348987Y0214870D01*
X0349078Y0214904D01*
X0349170Y0214934D01*
X0349263Y0214961D01*
X0349358Y0214983D01*
X0349453Y0215002D01*
X0349549Y0215017D01*
X0349645Y0215028D01*
X0349742Y0215035D01*
X0349839Y0215038D01*
X0349936Y0215037D01*
X0350033Y0215032D01*
X0350129Y0215023D01*
X0350225Y0215010D01*
X0350321Y0214993D01*
X0350416Y0214972D01*
X0350509Y0214948D01*
X0350602Y0214919D01*
X0350694Y0214887D01*
X0350784Y0214851D01*
X0350872Y0214812D01*
X0350959Y0214768D01*
X0351044Y0214722D01*
X0351127Y0214671D01*
X0351208Y0214618D01*
X0351286Y0214561D01*
X0351363Y0214501D01*
X0351436Y0214438D01*
X0351507Y0214372D01*
X0351575Y0214303D01*
X0351641Y0214231D01*
X0351703Y0214157D01*
X0351762Y0214080D01*
X0351818Y0214001D01*
X0351871Y0213919D01*
X0351921Y0213836D01*
X0351966Y0213750D01*
X0352009Y0213663D01*
X0352048Y0213574D01*
X0352083Y0213484D01*
X0352114Y0213392D01*
X0352141Y0213299D01*
X0352165Y0213205D01*
X0352185Y0213110D01*
X0352201Y0213014D01*
X0352213Y0212918D01*
X0352221Y0212821D01*
X0352225Y0212724D01*
X0352225Y0212628D01*
X0352221Y0212531D01*
X0352213Y0212434D01*
X0352201Y0212338D01*
X0352185Y0212242D01*
X0352165Y0212147D01*
X0352141Y0212053D01*
X0352114Y0211960D01*
X0352083Y0211868D01*
X0352048Y0211778D01*
X0352009Y0211689D01*
X0351966Y0211602D01*
X0351921Y0211516D01*
X0351871Y0211433D01*
X0351818Y0211351D01*
X0351762Y0211272D01*
X0351703Y0211195D01*
X0351641Y0211121D01*
X0351575Y0211049D01*
X0351507Y0210980D01*
X0351436Y0210914D01*
X0351363Y0210851D01*
X0351286Y0210791D01*
X0351208Y0210734D01*
X0351127Y0210681D01*
X0351044Y0210630D01*
X0350959Y0210584D01*
X0350872Y0210540D01*
X0350784Y0210501D01*
X0350694Y0210465D01*
X0350602Y0210433D01*
X0350509Y0210404D01*
X0350416Y0210380D01*
X0350321Y0210359D01*
X0350225Y0210342D01*
X0350129Y0210329D01*
X0350033Y0210320D01*
X0349936Y0210315D01*
X0349839Y0210314D01*
X0349742Y0210317D01*
X0349645Y0210324D01*
X0349549Y0210335D01*
X0349453Y0210350D01*
X0349358Y0210369D01*
X0349263Y0210391D01*
X0349170Y0210418D01*
X0349078Y0210448D01*
X0348987Y0210482D01*
X0348898Y0210520D01*
X0348810Y0210562D01*
X0348724Y0210607D01*
X0348640Y0210655D01*
X0348558Y0210707D01*
X0348479Y0210762D01*
X0348401Y0210821D01*
X0348326Y0210882D01*
X0348254Y0210947D01*
X0348184Y0211014D01*
X0348117Y0211085D01*
X0348054Y0211158D01*
X0347993Y0211233D01*
X0347935Y0211311D01*
X0347881Y0211392D01*
X0347830Y0211474D01*
X0347782Y0211559D01*
X0347738Y0211645D01*
X0347697Y0211733D01*
X0347661Y0211823D01*
X0347627Y0211914D01*
X0347598Y0212006D01*
X0347572Y0212100D01*
X0347551Y0212194D01*
X0347533Y0212290D01*
X0347519Y0212386D01*
X0347509Y0212482D01*
X0347503Y0212579D01*
X0347501Y0212676D01*
X0347501Y0222676D02*
X0347503Y0222773D01*
X0347509Y0222870D01*
X0347519Y0222966D01*
X0347533Y0223062D01*
X0347551Y0223158D01*
X0347572Y0223252D01*
X0347598Y0223346D01*
X0347627Y0223438D01*
X0347661Y0223529D01*
X0347697Y0223619D01*
X0347738Y0223707D01*
X0347782Y0223793D01*
X0347830Y0223878D01*
X0347881Y0223960D01*
X0347935Y0224041D01*
X0347993Y0224119D01*
X0348054Y0224194D01*
X0348117Y0224267D01*
X0348184Y0224338D01*
X0348254Y0224405D01*
X0348326Y0224470D01*
X0348401Y0224531D01*
X0348479Y0224590D01*
X0348558Y0224645D01*
X0348640Y0224697D01*
X0348724Y0224745D01*
X0348810Y0224790D01*
X0348898Y0224832D01*
X0348987Y0224870D01*
X0349078Y0224904D01*
X0349170Y0224934D01*
X0349263Y0224961D01*
X0349358Y0224983D01*
X0349453Y0225002D01*
X0349549Y0225017D01*
X0349645Y0225028D01*
X0349742Y0225035D01*
X0349839Y0225038D01*
X0349936Y0225037D01*
X0350033Y0225032D01*
X0350129Y0225023D01*
X0350225Y0225010D01*
X0350321Y0224993D01*
X0350416Y0224972D01*
X0350509Y0224948D01*
X0350602Y0224919D01*
X0350694Y0224887D01*
X0350784Y0224851D01*
X0350872Y0224812D01*
X0350959Y0224768D01*
X0351044Y0224722D01*
X0351127Y0224671D01*
X0351208Y0224618D01*
X0351286Y0224561D01*
X0351363Y0224501D01*
X0351436Y0224438D01*
X0351507Y0224372D01*
X0351575Y0224303D01*
X0351641Y0224231D01*
X0351703Y0224157D01*
X0351762Y0224080D01*
X0351818Y0224001D01*
X0351871Y0223919D01*
X0351921Y0223836D01*
X0351966Y0223750D01*
X0352009Y0223663D01*
X0352048Y0223574D01*
X0352083Y0223484D01*
X0352114Y0223392D01*
X0352141Y0223299D01*
X0352165Y0223205D01*
X0352185Y0223110D01*
X0352201Y0223014D01*
X0352213Y0222918D01*
X0352221Y0222821D01*
X0352225Y0222724D01*
X0352225Y0222628D01*
X0352221Y0222531D01*
X0352213Y0222434D01*
X0352201Y0222338D01*
X0352185Y0222242D01*
X0352165Y0222147D01*
X0352141Y0222053D01*
X0352114Y0221960D01*
X0352083Y0221868D01*
X0352048Y0221778D01*
X0352009Y0221689D01*
X0351966Y0221602D01*
X0351921Y0221516D01*
X0351871Y0221433D01*
X0351818Y0221351D01*
X0351762Y0221272D01*
X0351703Y0221195D01*
X0351641Y0221121D01*
X0351575Y0221049D01*
X0351507Y0220980D01*
X0351436Y0220914D01*
X0351363Y0220851D01*
X0351286Y0220791D01*
X0351208Y0220734D01*
X0351127Y0220681D01*
X0351044Y0220630D01*
X0350959Y0220584D01*
X0350872Y0220540D01*
X0350784Y0220501D01*
X0350694Y0220465D01*
X0350602Y0220433D01*
X0350509Y0220404D01*
X0350416Y0220380D01*
X0350321Y0220359D01*
X0350225Y0220342D01*
X0350129Y0220329D01*
X0350033Y0220320D01*
X0349936Y0220315D01*
X0349839Y0220314D01*
X0349742Y0220317D01*
X0349645Y0220324D01*
X0349549Y0220335D01*
X0349453Y0220350D01*
X0349358Y0220369D01*
X0349263Y0220391D01*
X0349170Y0220418D01*
X0349078Y0220448D01*
X0348987Y0220482D01*
X0348898Y0220520D01*
X0348810Y0220562D01*
X0348724Y0220607D01*
X0348640Y0220655D01*
X0348558Y0220707D01*
X0348479Y0220762D01*
X0348401Y0220821D01*
X0348326Y0220882D01*
X0348254Y0220947D01*
X0348184Y0221014D01*
X0348117Y0221085D01*
X0348054Y0221158D01*
X0347993Y0221233D01*
X0347935Y0221311D01*
X0347881Y0221392D01*
X0347830Y0221474D01*
X0347782Y0221559D01*
X0347738Y0221645D01*
X0347697Y0221733D01*
X0347661Y0221823D01*
X0347627Y0221914D01*
X0347598Y0222006D01*
X0347572Y0222100D01*
X0347551Y0222194D01*
X0347533Y0222290D01*
X0347519Y0222386D01*
X0347509Y0222482D01*
X0347503Y0222579D01*
X0347501Y0222676D01*
X0347501Y0232676D02*
X0347503Y0232773D01*
X0347509Y0232870D01*
X0347519Y0232966D01*
X0347533Y0233062D01*
X0347551Y0233158D01*
X0347572Y0233252D01*
X0347598Y0233346D01*
X0347627Y0233438D01*
X0347661Y0233529D01*
X0347697Y0233619D01*
X0347738Y0233707D01*
X0347782Y0233793D01*
X0347830Y0233878D01*
X0347881Y0233960D01*
X0347935Y0234041D01*
X0347993Y0234119D01*
X0348054Y0234194D01*
X0348117Y0234267D01*
X0348184Y0234338D01*
X0348254Y0234405D01*
X0348326Y0234470D01*
X0348401Y0234531D01*
X0348479Y0234590D01*
X0348558Y0234645D01*
X0348640Y0234697D01*
X0348724Y0234745D01*
X0348810Y0234790D01*
X0348898Y0234832D01*
X0348987Y0234870D01*
X0349078Y0234904D01*
X0349170Y0234934D01*
X0349263Y0234961D01*
X0349358Y0234983D01*
X0349453Y0235002D01*
X0349549Y0235017D01*
X0349645Y0235028D01*
X0349742Y0235035D01*
X0349839Y0235038D01*
X0349936Y0235037D01*
X0350033Y0235032D01*
X0350129Y0235023D01*
X0350225Y0235010D01*
X0350321Y0234993D01*
X0350416Y0234972D01*
X0350509Y0234948D01*
X0350602Y0234919D01*
X0350694Y0234887D01*
X0350784Y0234851D01*
X0350872Y0234812D01*
X0350959Y0234768D01*
X0351044Y0234722D01*
X0351127Y0234671D01*
X0351208Y0234618D01*
X0351286Y0234561D01*
X0351363Y0234501D01*
X0351436Y0234438D01*
X0351507Y0234372D01*
X0351575Y0234303D01*
X0351641Y0234231D01*
X0351703Y0234157D01*
X0351762Y0234080D01*
X0351818Y0234001D01*
X0351871Y0233919D01*
X0351921Y0233836D01*
X0351966Y0233750D01*
X0352009Y0233663D01*
X0352048Y0233574D01*
X0352083Y0233484D01*
X0352114Y0233392D01*
X0352141Y0233299D01*
X0352165Y0233205D01*
X0352185Y0233110D01*
X0352201Y0233014D01*
X0352213Y0232918D01*
X0352221Y0232821D01*
X0352225Y0232724D01*
X0352225Y0232628D01*
X0352221Y0232531D01*
X0352213Y0232434D01*
X0352201Y0232338D01*
X0352185Y0232242D01*
X0352165Y0232147D01*
X0352141Y0232053D01*
X0352114Y0231960D01*
X0352083Y0231868D01*
X0352048Y0231778D01*
X0352009Y0231689D01*
X0351966Y0231602D01*
X0351921Y0231516D01*
X0351871Y0231433D01*
X0351818Y0231351D01*
X0351762Y0231272D01*
X0351703Y0231195D01*
X0351641Y0231121D01*
X0351575Y0231049D01*
X0351507Y0230980D01*
X0351436Y0230914D01*
X0351363Y0230851D01*
X0351286Y0230791D01*
X0351208Y0230734D01*
X0351127Y0230681D01*
X0351044Y0230630D01*
X0350959Y0230584D01*
X0350872Y0230540D01*
X0350784Y0230501D01*
X0350694Y0230465D01*
X0350602Y0230433D01*
X0350509Y0230404D01*
X0350416Y0230380D01*
X0350321Y0230359D01*
X0350225Y0230342D01*
X0350129Y0230329D01*
X0350033Y0230320D01*
X0349936Y0230315D01*
X0349839Y0230314D01*
X0349742Y0230317D01*
X0349645Y0230324D01*
X0349549Y0230335D01*
X0349453Y0230350D01*
X0349358Y0230369D01*
X0349263Y0230391D01*
X0349170Y0230418D01*
X0349078Y0230448D01*
X0348987Y0230482D01*
X0348898Y0230520D01*
X0348810Y0230562D01*
X0348724Y0230607D01*
X0348640Y0230655D01*
X0348558Y0230707D01*
X0348479Y0230762D01*
X0348401Y0230821D01*
X0348326Y0230882D01*
X0348254Y0230947D01*
X0348184Y0231014D01*
X0348117Y0231085D01*
X0348054Y0231158D01*
X0347993Y0231233D01*
X0347935Y0231311D01*
X0347881Y0231392D01*
X0347830Y0231474D01*
X0347782Y0231559D01*
X0347738Y0231645D01*
X0347697Y0231733D01*
X0347661Y0231823D01*
X0347627Y0231914D01*
X0347598Y0232006D01*
X0347572Y0232100D01*
X0347551Y0232194D01*
X0347533Y0232290D01*
X0347519Y0232386D01*
X0347509Y0232482D01*
X0347503Y0232579D01*
X0347501Y0232676D01*
X0347501Y0242676D02*
X0347503Y0242773D01*
X0347509Y0242870D01*
X0347519Y0242966D01*
X0347533Y0243062D01*
X0347551Y0243158D01*
X0347572Y0243252D01*
X0347598Y0243346D01*
X0347627Y0243438D01*
X0347661Y0243529D01*
X0347697Y0243619D01*
X0347738Y0243707D01*
X0347782Y0243793D01*
X0347830Y0243878D01*
X0347881Y0243960D01*
X0347935Y0244041D01*
X0347993Y0244119D01*
X0348054Y0244194D01*
X0348117Y0244267D01*
X0348184Y0244338D01*
X0348254Y0244405D01*
X0348326Y0244470D01*
X0348401Y0244531D01*
X0348479Y0244590D01*
X0348558Y0244645D01*
X0348640Y0244697D01*
X0348724Y0244745D01*
X0348810Y0244790D01*
X0348898Y0244832D01*
X0348987Y0244870D01*
X0349078Y0244904D01*
X0349170Y0244934D01*
X0349263Y0244961D01*
X0349358Y0244983D01*
X0349453Y0245002D01*
X0349549Y0245017D01*
X0349645Y0245028D01*
X0349742Y0245035D01*
X0349839Y0245038D01*
X0349936Y0245037D01*
X0350033Y0245032D01*
X0350129Y0245023D01*
X0350225Y0245010D01*
X0350321Y0244993D01*
X0350416Y0244972D01*
X0350509Y0244948D01*
X0350602Y0244919D01*
X0350694Y0244887D01*
X0350784Y0244851D01*
X0350872Y0244812D01*
X0350959Y0244768D01*
X0351044Y0244722D01*
X0351127Y0244671D01*
X0351208Y0244618D01*
X0351286Y0244561D01*
X0351363Y0244501D01*
X0351436Y0244438D01*
X0351507Y0244372D01*
X0351575Y0244303D01*
X0351641Y0244231D01*
X0351703Y0244157D01*
X0351762Y0244080D01*
X0351818Y0244001D01*
X0351871Y0243919D01*
X0351921Y0243836D01*
X0351966Y0243750D01*
X0352009Y0243663D01*
X0352048Y0243574D01*
X0352083Y0243484D01*
X0352114Y0243392D01*
X0352141Y0243299D01*
X0352165Y0243205D01*
X0352185Y0243110D01*
X0352201Y0243014D01*
X0352213Y0242918D01*
X0352221Y0242821D01*
X0352225Y0242724D01*
X0352225Y0242628D01*
X0352221Y0242531D01*
X0352213Y0242434D01*
X0352201Y0242338D01*
X0352185Y0242242D01*
X0352165Y0242147D01*
X0352141Y0242053D01*
X0352114Y0241960D01*
X0352083Y0241868D01*
X0352048Y0241778D01*
X0352009Y0241689D01*
X0351966Y0241602D01*
X0351921Y0241516D01*
X0351871Y0241433D01*
X0351818Y0241351D01*
X0351762Y0241272D01*
X0351703Y0241195D01*
X0351641Y0241121D01*
X0351575Y0241049D01*
X0351507Y0240980D01*
X0351436Y0240914D01*
X0351363Y0240851D01*
X0351286Y0240791D01*
X0351208Y0240734D01*
X0351127Y0240681D01*
X0351044Y0240630D01*
X0350959Y0240584D01*
X0350872Y0240540D01*
X0350784Y0240501D01*
X0350694Y0240465D01*
X0350602Y0240433D01*
X0350509Y0240404D01*
X0350416Y0240380D01*
X0350321Y0240359D01*
X0350225Y0240342D01*
X0350129Y0240329D01*
X0350033Y0240320D01*
X0349936Y0240315D01*
X0349839Y0240314D01*
X0349742Y0240317D01*
X0349645Y0240324D01*
X0349549Y0240335D01*
X0349453Y0240350D01*
X0349358Y0240369D01*
X0349263Y0240391D01*
X0349170Y0240418D01*
X0349078Y0240448D01*
X0348987Y0240482D01*
X0348898Y0240520D01*
X0348810Y0240562D01*
X0348724Y0240607D01*
X0348640Y0240655D01*
X0348558Y0240707D01*
X0348479Y0240762D01*
X0348401Y0240821D01*
X0348326Y0240882D01*
X0348254Y0240947D01*
X0348184Y0241014D01*
X0348117Y0241085D01*
X0348054Y0241158D01*
X0347993Y0241233D01*
X0347935Y0241311D01*
X0347881Y0241392D01*
X0347830Y0241474D01*
X0347782Y0241559D01*
X0347738Y0241645D01*
X0347697Y0241733D01*
X0347661Y0241823D01*
X0347627Y0241914D01*
X0347598Y0242006D01*
X0347572Y0242100D01*
X0347551Y0242194D01*
X0347533Y0242290D01*
X0347519Y0242386D01*
X0347509Y0242482D01*
X0347503Y0242579D01*
X0347501Y0242676D01*
X0347501Y0252676D02*
X0347503Y0252773D01*
X0347509Y0252870D01*
X0347519Y0252966D01*
X0347533Y0253062D01*
X0347551Y0253158D01*
X0347572Y0253252D01*
X0347598Y0253346D01*
X0347627Y0253438D01*
X0347661Y0253529D01*
X0347697Y0253619D01*
X0347738Y0253707D01*
X0347782Y0253793D01*
X0347830Y0253878D01*
X0347881Y0253960D01*
X0347935Y0254041D01*
X0347993Y0254119D01*
X0348054Y0254194D01*
X0348117Y0254267D01*
X0348184Y0254338D01*
X0348254Y0254405D01*
X0348326Y0254470D01*
X0348401Y0254531D01*
X0348479Y0254590D01*
X0348558Y0254645D01*
X0348640Y0254697D01*
X0348724Y0254745D01*
X0348810Y0254790D01*
X0348898Y0254832D01*
X0348987Y0254870D01*
X0349078Y0254904D01*
X0349170Y0254934D01*
X0349263Y0254961D01*
X0349358Y0254983D01*
X0349453Y0255002D01*
X0349549Y0255017D01*
X0349645Y0255028D01*
X0349742Y0255035D01*
X0349839Y0255038D01*
X0349936Y0255037D01*
X0350033Y0255032D01*
X0350129Y0255023D01*
X0350225Y0255010D01*
X0350321Y0254993D01*
X0350416Y0254972D01*
X0350509Y0254948D01*
X0350602Y0254919D01*
X0350694Y0254887D01*
X0350784Y0254851D01*
X0350872Y0254812D01*
X0350959Y0254768D01*
X0351044Y0254722D01*
X0351127Y0254671D01*
X0351208Y0254618D01*
X0351286Y0254561D01*
X0351363Y0254501D01*
X0351436Y0254438D01*
X0351507Y0254372D01*
X0351575Y0254303D01*
X0351641Y0254231D01*
X0351703Y0254157D01*
X0351762Y0254080D01*
X0351818Y0254001D01*
X0351871Y0253919D01*
X0351921Y0253836D01*
X0351966Y0253750D01*
X0352009Y0253663D01*
X0352048Y0253574D01*
X0352083Y0253484D01*
X0352114Y0253392D01*
X0352141Y0253299D01*
X0352165Y0253205D01*
X0352185Y0253110D01*
X0352201Y0253014D01*
X0352213Y0252918D01*
X0352221Y0252821D01*
X0352225Y0252724D01*
X0352225Y0252628D01*
X0352221Y0252531D01*
X0352213Y0252434D01*
X0352201Y0252338D01*
X0352185Y0252242D01*
X0352165Y0252147D01*
X0352141Y0252053D01*
X0352114Y0251960D01*
X0352083Y0251868D01*
X0352048Y0251778D01*
X0352009Y0251689D01*
X0351966Y0251602D01*
X0351921Y0251516D01*
X0351871Y0251433D01*
X0351818Y0251351D01*
X0351762Y0251272D01*
X0351703Y0251195D01*
X0351641Y0251121D01*
X0351575Y0251049D01*
X0351507Y0250980D01*
X0351436Y0250914D01*
X0351363Y0250851D01*
X0351286Y0250791D01*
X0351208Y0250734D01*
X0351127Y0250681D01*
X0351044Y0250630D01*
X0350959Y0250584D01*
X0350872Y0250540D01*
X0350784Y0250501D01*
X0350694Y0250465D01*
X0350602Y0250433D01*
X0350509Y0250404D01*
X0350416Y0250380D01*
X0350321Y0250359D01*
X0350225Y0250342D01*
X0350129Y0250329D01*
X0350033Y0250320D01*
X0349936Y0250315D01*
X0349839Y0250314D01*
X0349742Y0250317D01*
X0349645Y0250324D01*
X0349549Y0250335D01*
X0349453Y0250350D01*
X0349358Y0250369D01*
X0349263Y0250391D01*
X0349170Y0250418D01*
X0349078Y0250448D01*
X0348987Y0250482D01*
X0348898Y0250520D01*
X0348810Y0250562D01*
X0348724Y0250607D01*
X0348640Y0250655D01*
X0348558Y0250707D01*
X0348479Y0250762D01*
X0348401Y0250821D01*
X0348326Y0250882D01*
X0348254Y0250947D01*
X0348184Y0251014D01*
X0348117Y0251085D01*
X0348054Y0251158D01*
X0347993Y0251233D01*
X0347935Y0251311D01*
X0347881Y0251392D01*
X0347830Y0251474D01*
X0347782Y0251559D01*
X0347738Y0251645D01*
X0347697Y0251733D01*
X0347661Y0251823D01*
X0347627Y0251914D01*
X0347598Y0252006D01*
X0347572Y0252100D01*
X0347551Y0252194D01*
X0347533Y0252290D01*
X0347519Y0252386D01*
X0347509Y0252482D01*
X0347503Y0252579D01*
X0347501Y0252676D01*
X0347501Y0262676D02*
X0347503Y0262773D01*
X0347509Y0262870D01*
X0347519Y0262966D01*
X0347533Y0263062D01*
X0347551Y0263158D01*
X0347572Y0263252D01*
X0347598Y0263346D01*
X0347627Y0263438D01*
X0347661Y0263529D01*
X0347697Y0263619D01*
X0347738Y0263707D01*
X0347782Y0263793D01*
X0347830Y0263878D01*
X0347881Y0263960D01*
X0347935Y0264041D01*
X0347993Y0264119D01*
X0348054Y0264194D01*
X0348117Y0264267D01*
X0348184Y0264338D01*
X0348254Y0264405D01*
X0348326Y0264470D01*
X0348401Y0264531D01*
X0348479Y0264590D01*
X0348558Y0264645D01*
X0348640Y0264697D01*
X0348724Y0264745D01*
X0348810Y0264790D01*
X0348898Y0264832D01*
X0348987Y0264870D01*
X0349078Y0264904D01*
X0349170Y0264934D01*
X0349263Y0264961D01*
X0349358Y0264983D01*
X0349453Y0265002D01*
X0349549Y0265017D01*
X0349645Y0265028D01*
X0349742Y0265035D01*
X0349839Y0265038D01*
X0349936Y0265037D01*
X0350033Y0265032D01*
X0350129Y0265023D01*
X0350225Y0265010D01*
X0350321Y0264993D01*
X0350416Y0264972D01*
X0350509Y0264948D01*
X0350602Y0264919D01*
X0350694Y0264887D01*
X0350784Y0264851D01*
X0350872Y0264812D01*
X0350959Y0264768D01*
X0351044Y0264722D01*
X0351127Y0264671D01*
X0351208Y0264618D01*
X0351286Y0264561D01*
X0351363Y0264501D01*
X0351436Y0264438D01*
X0351507Y0264372D01*
X0351575Y0264303D01*
X0351641Y0264231D01*
X0351703Y0264157D01*
X0351762Y0264080D01*
X0351818Y0264001D01*
X0351871Y0263919D01*
X0351921Y0263836D01*
X0351966Y0263750D01*
X0352009Y0263663D01*
X0352048Y0263574D01*
X0352083Y0263484D01*
X0352114Y0263392D01*
X0352141Y0263299D01*
X0352165Y0263205D01*
X0352185Y0263110D01*
X0352201Y0263014D01*
X0352213Y0262918D01*
X0352221Y0262821D01*
X0352225Y0262724D01*
X0352225Y0262628D01*
X0352221Y0262531D01*
X0352213Y0262434D01*
X0352201Y0262338D01*
X0352185Y0262242D01*
X0352165Y0262147D01*
X0352141Y0262053D01*
X0352114Y0261960D01*
X0352083Y0261868D01*
X0352048Y0261778D01*
X0352009Y0261689D01*
X0351966Y0261602D01*
X0351921Y0261516D01*
X0351871Y0261433D01*
X0351818Y0261351D01*
X0351762Y0261272D01*
X0351703Y0261195D01*
X0351641Y0261121D01*
X0351575Y0261049D01*
X0351507Y0260980D01*
X0351436Y0260914D01*
X0351363Y0260851D01*
X0351286Y0260791D01*
X0351208Y0260734D01*
X0351127Y0260681D01*
X0351044Y0260630D01*
X0350959Y0260584D01*
X0350872Y0260540D01*
X0350784Y0260501D01*
X0350694Y0260465D01*
X0350602Y0260433D01*
X0350509Y0260404D01*
X0350416Y0260380D01*
X0350321Y0260359D01*
X0350225Y0260342D01*
X0350129Y0260329D01*
X0350033Y0260320D01*
X0349936Y0260315D01*
X0349839Y0260314D01*
X0349742Y0260317D01*
X0349645Y0260324D01*
X0349549Y0260335D01*
X0349453Y0260350D01*
X0349358Y0260369D01*
X0349263Y0260391D01*
X0349170Y0260418D01*
X0349078Y0260448D01*
X0348987Y0260482D01*
X0348898Y0260520D01*
X0348810Y0260562D01*
X0348724Y0260607D01*
X0348640Y0260655D01*
X0348558Y0260707D01*
X0348479Y0260762D01*
X0348401Y0260821D01*
X0348326Y0260882D01*
X0348254Y0260947D01*
X0348184Y0261014D01*
X0348117Y0261085D01*
X0348054Y0261158D01*
X0347993Y0261233D01*
X0347935Y0261311D01*
X0347881Y0261392D01*
X0347830Y0261474D01*
X0347782Y0261559D01*
X0347738Y0261645D01*
X0347697Y0261733D01*
X0347661Y0261823D01*
X0347627Y0261914D01*
X0347598Y0262006D01*
X0347572Y0262100D01*
X0347551Y0262194D01*
X0347533Y0262290D01*
X0347519Y0262386D01*
X0347509Y0262482D01*
X0347503Y0262579D01*
X0347501Y0262676D01*
X0347501Y0272676D02*
X0347503Y0272773D01*
X0347509Y0272870D01*
X0347519Y0272966D01*
X0347533Y0273062D01*
X0347551Y0273158D01*
X0347572Y0273252D01*
X0347598Y0273346D01*
X0347627Y0273438D01*
X0347661Y0273529D01*
X0347697Y0273619D01*
X0347738Y0273707D01*
X0347782Y0273793D01*
X0347830Y0273878D01*
X0347881Y0273960D01*
X0347935Y0274041D01*
X0347993Y0274119D01*
X0348054Y0274194D01*
X0348117Y0274267D01*
X0348184Y0274338D01*
X0348254Y0274405D01*
X0348326Y0274470D01*
X0348401Y0274531D01*
X0348479Y0274590D01*
X0348558Y0274645D01*
X0348640Y0274697D01*
X0348724Y0274745D01*
X0348810Y0274790D01*
X0348898Y0274832D01*
X0348987Y0274870D01*
X0349078Y0274904D01*
X0349170Y0274934D01*
X0349263Y0274961D01*
X0349358Y0274983D01*
X0349453Y0275002D01*
X0349549Y0275017D01*
X0349645Y0275028D01*
X0349742Y0275035D01*
X0349839Y0275038D01*
X0349936Y0275037D01*
X0350033Y0275032D01*
X0350129Y0275023D01*
X0350225Y0275010D01*
X0350321Y0274993D01*
X0350416Y0274972D01*
X0350509Y0274948D01*
X0350602Y0274919D01*
X0350694Y0274887D01*
X0350784Y0274851D01*
X0350872Y0274812D01*
X0350959Y0274768D01*
X0351044Y0274722D01*
X0351127Y0274671D01*
X0351208Y0274618D01*
X0351286Y0274561D01*
X0351363Y0274501D01*
X0351436Y0274438D01*
X0351507Y0274372D01*
X0351575Y0274303D01*
X0351641Y0274231D01*
X0351703Y0274157D01*
X0351762Y0274080D01*
X0351818Y0274001D01*
X0351871Y0273919D01*
X0351921Y0273836D01*
X0351966Y0273750D01*
X0352009Y0273663D01*
X0352048Y0273574D01*
X0352083Y0273484D01*
X0352114Y0273392D01*
X0352141Y0273299D01*
X0352165Y0273205D01*
X0352185Y0273110D01*
X0352201Y0273014D01*
X0352213Y0272918D01*
X0352221Y0272821D01*
X0352225Y0272724D01*
X0352225Y0272628D01*
X0352221Y0272531D01*
X0352213Y0272434D01*
X0352201Y0272338D01*
X0352185Y0272242D01*
X0352165Y0272147D01*
X0352141Y0272053D01*
X0352114Y0271960D01*
X0352083Y0271868D01*
X0352048Y0271778D01*
X0352009Y0271689D01*
X0351966Y0271602D01*
X0351921Y0271516D01*
X0351871Y0271433D01*
X0351818Y0271351D01*
X0351762Y0271272D01*
X0351703Y0271195D01*
X0351641Y0271121D01*
X0351575Y0271049D01*
X0351507Y0270980D01*
X0351436Y0270914D01*
X0351363Y0270851D01*
X0351286Y0270791D01*
X0351208Y0270734D01*
X0351127Y0270681D01*
X0351044Y0270630D01*
X0350959Y0270584D01*
X0350872Y0270540D01*
X0350784Y0270501D01*
X0350694Y0270465D01*
X0350602Y0270433D01*
X0350509Y0270404D01*
X0350416Y0270380D01*
X0350321Y0270359D01*
X0350225Y0270342D01*
X0350129Y0270329D01*
X0350033Y0270320D01*
X0349936Y0270315D01*
X0349839Y0270314D01*
X0349742Y0270317D01*
X0349645Y0270324D01*
X0349549Y0270335D01*
X0349453Y0270350D01*
X0349358Y0270369D01*
X0349263Y0270391D01*
X0349170Y0270418D01*
X0349078Y0270448D01*
X0348987Y0270482D01*
X0348898Y0270520D01*
X0348810Y0270562D01*
X0348724Y0270607D01*
X0348640Y0270655D01*
X0348558Y0270707D01*
X0348479Y0270762D01*
X0348401Y0270821D01*
X0348326Y0270882D01*
X0348254Y0270947D01*
X0348184Y0271014D01*
X0348117Y0271085D01*
X0348054Y0271158D01*
X0347993Y0271233D01*
X0347935Y0271311D01*
X0347881Y0271392D01*
X0347830Y0271474D01*
X0347782Y0271559D01*
X0347738Y0271645D01*
X0347697Y0271733D01*
X0347661Y0271823D01*
X0347627Y0271914D01*
X0347598Y0272006D01*
X0347572Y0272100D01*
X0347551Y0272194D01*
X0347533Y0272290D01*
X0347519Y0272386D01*
X0347509Y0272482D01*
X0347503Y0272579D01*
X0347501Y0272676D01*
X0347501Y0282676D02*
X0347503Y0282773D01*
X0347509Y0282870D01*
X0347519Y0282966D01*
X0347533Y0283062D01*
X0347551Y0283158D01*
X0347572Y0283252D01*
X0347598Y0283346D01*
X0347627Y0283438D01*
X0347661Y0283529D01*
X0347697Y0283619D01*
X0347738Y0283707D01*
X0347782Y0283793D01*
X0347830Y0283878D01*
X0347881Y0283960D01*
X0347935Y0284041D01*
X0347993Y0284119D01*
X0348054Y0284194D01*
X0348117Y0284267D01*
X0348184Y0284338D01*
X0348254Y0284405D01*
X0348326Y0284470D01*
X0348401Y0284531D01*
X0348479Y0284590D01*
X0348558Y0284645D01*
X0348640Y0284697D01*
X0348724Y0284745D01*
X0348810Y0284790D01*
X0348898Y0284832D01*
X0348987Y0284870D01*
X0349078Y0284904D01*
X0349170Y0284934D01*
X0349263Y0284961D01*
X0349358Y0284983D01*
X0349453Y0285002D01*
X0349549Y0285017D01*
X0349645Y0285028D01*
X0349742Y0285035D01*
X0349839Y0285038D01*
X0349936Y0285037D01*
X0350033Y0285032D01*
X0350129Y0285023D01*
X0350225Y0285010D01*
X0350321Y0284993D01*
X0350416Y0284972D01*
X0350509Y0284948D01*
X0350602Y0284919D01*
X0350694Y0284887D01*
X0350784Y0284851D01*
X0350872Y0284812D01*
X0350959Y0284768D01*
X0351044Y0284722D01*
X0351127Y0284671D01*
X0351208Y0284618D01*
X0351286Y0284561D01*
X0351363Y0284501D01*
X0351436Y0284438D01*
X0351507Y0284372D01*
X0351575Y0284303D01*
X0351641Y0284231D01*
X0351703Y0284157D01*
X0351762Y0284080D01*
X0351818Y0284001D01*
X0351871Y0283919D01*
X0351921Y0283836D01*
X0351966Y0283750D01*
X0352009Y0283663D01*
X0352048Y0283574D01*
X0352083Y0283484D01*
X0352114Y0283392D01*
X0352141Y0283299D01*
X0352165Y0283205D01*
X0352185Y0283110D01*
X0352201Y0283014D01*
X0352213Y0282918D01*
X0352221Y0282821D01*
X0352225Y0282724D01*
X0352225Y0282628D01*
X0352221Y0282531D01*
X0352213Y0282434D01*
X0352201Y0282338D01*
X0352185Y0282242D01*
X0352165Y0282147D01*
X0352141Y0282053D01*
X0352114Y0281960D01*
X0352083Y0281868D01*
X0352048Y0281778D01*
X0352009Y0281689D01*
X0351966Y0281602D01*
X0351921Y0281516D01*
X0351871Y0281433D01*
X0351818Y0281351D01*
X0351762Y0281272D01*
X0351703Y0281195D01*
X0351641Y0281121D01*
X0351575Y0281049D01*
X0351507Y0280980D01*
X0351436Y0280914D01*
X0351363Y0280851D01*
X0351286Y0280791D01*
X0351208Y0280734D01*
X0351127Y0280681D01*
X0351044Y0280630D01*
X0350959Y0280584D01*
X0350872Y0280540D01*
X0350784Y0280501D01*
X0350694Y0280465D01*
X0350602Y0280433D01*
X0350509Y0280404D01*
X0350416Y0280380D01*
X0350321Y0280359D01*
X0350225Y0280342D01*
X0350129Y0280329D01*
X0350033Y0280320D01*
X0349936Y0280315D01*
X0349839Y0280314D01*
X0349742Y0280317D01*
X0349645Y0280324D01*
X0349549Y0280335D01*
X0349453Y0280350D01*
X0349358Y0280369D01*
X0349263Y0280391D01*
X0349170Y0280418D01*
X0349078Y0280448D01*
X0348987Y0280482D01*
X0348898Y0280520D01*
X0348810Y0280562D01*
X0348724Y0280607D01*
X0348640Y0280655D01*
X0348558Y0280707D01*
X0348479Y0280762D01*
X0348401Y0280821D01*
X0348326Y0280882D01*
X0348254Y0280947D01*
X0348184Y0281014D01*
X0348117Y0281085D01*
X0348054Y0281158D01*
X0347993Y0281233D01*
X0347935Y0281311D01*
X0347881Y0281392D01*
X0347830Y0281474D01*
X0347782Y0281559D01*
X0347738Y0281645D01*
X0347697Y0281733D01*
X0347661Y0281823D01*
X0347627Y0281914D01*
X0347598Y0282006D01*
X0347572Y0282100D01*
X0347551Y0282194D01*
X0347533Y0282290D01*
X0347519Y0282386D01*
X0347509Y0282482D01*
X0347503Y0282579D01*
X0347501Y0282676D01*
X0347501Y0292676D02*
X0347503Y0292773D01*
X0347509Y0292870D01*
X0347519Y0292966D01*
X0347533Y0293062D01*
X0347551Y0293158D01*
X0347572Y0293252D01*
X0347598Y0293346D01*
X0347627Y0293438D01*
X0347661Y0293529D01*
X0347697Y0293619D01*
X0347738Y0293707D01*
X0347782Y0293793D01*
X0347830Y0293878D01*
X0347881Y0293960D01*
X0347935Y0294041D01*
X0347993Y0294119D01*
X0348054Y0294194D01*
X0348117Y0294267D01*
X0348184Y0294338D01*
X0348254Y0294405D01*
X0348326Y0294470D01*
X0348401Y0294531D01*
X0348479Y0294590D01*
X0348558Y0294645D01*
X0348640Y0294697D01*
X0348724Y0294745D01*
X0348810Y0294790D01*
X0348898Y0294832D01*
X0348987Y0294870D01*
X0349078Y0294904D01*
X0349170Y0294934D01*
X0349263Y0294961D01*
X0349358Y0294983D01*
X0349453Y0295002D01*
X0349549Y0295017D01*
X0349645Y0295028D01*
X0349742Y0295035D01*
X0349839Y0295038D01*
X0349936Y0295037D01*
X0350033Y0295032D01*
X0350129Y0295023D01*
X0350225Y0295010D01*
X0350321Y0294993D01*
X0350416Y0294972D01*
X0350509Y0294948D01*
X0350602Y0294919D01*
X0350694Y0294887D01*
X0350784Y0294851D01*
X0350872Y0294812D01*
X0350959Y0294768D01*
X0351044Y0294722D01*
X0351127Y0294671D01*
X0351208Y0294618D01*
X0351286Y0294561D01*
X0351363Y0294501D01*
X0351436Y0294438D01*
X0351507Y0294372D01*
X0351575Y0294303D01*
X0351641Y0294231D01*
X0351703Y0294157D01*
X0351762Y0294080D01*
X0351818Y0294001D01*
X0351871Y0293919D01*
X0351921Y0293836D01*
X0351966Y0293750D01*
X0352009Y0293663D01*
X0352048Y0293574D01*
X0352083Y0293484D01*
X0352114Y0293392D01*
X0352141Y0293299D01*
X0352165Y0293205D01*
X0352185Y0293110D01*
X0352201Y0293014D01*
X0352213Y0292918D01*
X0352221Y0292821D01*
X0352225Y0292724D01*
X0352225Y0292628D01*
X0352221Y0292531D01*
X0352213Y0292434D01*
X0352201Y0292338D01*
X0352185Y0292242D01*
X0352165Y0292147D01*
X0352141Y0292053D01*
X0352114Y0291960D01*
X0352083Y0291868D01*
X0352048Y0291778D01*
X0352009Y0291689D01*
X0351966Y0291602D01*
X0351921Y0291516D01*
X0351871Y0291433D01*
X0351818Y0291351D01*
X0351762Y0291272D01*
X0351703Y0291195D01*
X0351641Y0291121D01*
X0351575Y0291049D01*
X0351507Y0290980D01*
X0351436Y0290914D01*
X0351363Y0290851D01*
X0351286Y0290791D01*
X0351208Y0290734D01*
X0351127Y0290681D01*
X0351044Y0290630D01*
X0350959Y0290584D01*
X0350872Y0290540D01*
X0350784Y0290501D01*
X0350694Y0290465D01*
X0350602Y0290433D01*
X0350509Y0290404D01*
X0350416Y0290380D01*
X0350321Y0290359D01*
X0350225Y0290342D01*
X0350129Y0290329D01*
X0350033Y0290320D01*
X0349936Y0290315D01*
X0349839Y0290314D01*
X0349742Y0290317D01*
X0349645Y0290324D01*
X0349549Y0290335D01*
X0349453Y0290350D01*
X0349358Y0290369D01*
X0349263Y0290391D01*
X0349170Y0290418D01*
X0349078Y0290448D01*
X0348987Y0290482D01*
X0348898Y0290520D01*
X0348810Y0290562D01*
X0348724Y0290607D01*
X0348640Y0290655D01*
X0348558Y0290707D01*
X0348479Y0290762D01*
X0348401Y0290821D01*
X0348326Y0290882D01*
X0348254Y0290947D01*
X0348184Y0291014D01*
X0348117Y0291085D01*
X0348054Y0291158D01*
X0347993Y0291233D01*
X0347935Y0291311D01*
X0347881Y0291392D01*
X0347830Y0291474D01*
X0347782Y0291559D01*
X0347738Y0291645D01*
X0347697Y0291733D01*
X0347661Y0291823D01*
X0347627Y0291914D01*
X0347598Y0292006D01*
X0347572Y0292100D01*
X0347551Y0292194D01*
X0347533Y0292290D01*
X0347519Y0292386D01*
X0347509Y0292482D01*
X0347503Y0292579D01*
X0347501Y0292676D01*
X0347501Y0302676D02*
X0347503Y0302773D01*
X0347509Y0302870D01*
X0347519Y0302966D01*
X0347533Y0303062D01*
X0347551Y0303158D01*
X0347572Y0303252D01*
X0347598Y0303346D01*
X0347627Y0303438D01*
X0347661Y0303529D01*
X0347697Y0303619D01*
X0347738Y0303707D01*
X0347782Y0303793D01*
X0347830Y0303878D01*
X0347881Y0303960D01*
X0347935Y0304041D01*
X0347993Y0304119D01*
X0348054Y0304194D01*
X0348117Y0304267D01*
X0348184Y0304338D01*
X0348254Y0304405D01*
X0348326Y0304470D01*
X0348401Y0304531D01*
X0348479Y0304590D01*
X0348558Y0304645D01*
X0348640Y0304697D01*
X0348724Y0304745D01*
X0348810Y0304790D01*
X0348898Y0304832D01*
X0348987Y0304870D01*
X0349078Y0304904D01*
X0349170Y0304934D01*
X0349263Y0304961D01*
X0349358Y0304983D01*
X0349453Y0305002D01*
X0349549Y0305017D01*
X0349645Y0305028D01*
X0349742Y0305035D01*
X0349839Y0305038D01*
X0349936Y0305037D01*
X0350033Y0305032D01*
X0350129Y0305023D01*
X0350225Y0305010D01*
X0350321Y0304993D01*
X0350416Y0304972D01*
X0350509Y0304948D01*
X0350602Y0304919D01*
X0350694Y0304887D01*
X0350784Y0304851D01*
X0350872Y0304812D01*
X0350959Y0304768D01*
X0351044Y0304722D01*
X0351127Y0304671D01*
X0351208Y0304618D01*
X0351286Y0304561D01*
X0351363Y0304501D01*
X0351436Y0304438D01*
X0351507Y0304372D01*
X0351575Y0304303D01*
X0351641Y0304231D01*
X0351703Y0304157D01*
X0351762Y0304080D01*
X0351818Y0304001D01*
X0351871Y0303919D01*
X0351921Y0303836D01*
X0351966Y0303750D01*
X0352009Y0303663D01*
X0352048Y0303574D01*
X0352083Y0303484D01*
X0352114Y0303392D01*
X0352141Y0303299D01*
X0352165Y0303205D01*
X0352185Y0303110D01*
X0352201Y0303014D01*
X0352213Y0302918D01*
X0352221Y0302821D01*
X0352225Y0302724D01*
X0352225Y0302628D01*
X0352221Y0302531D01*
X0352213Y0302434D01*
X0352201Y0302338D01*
X0352185Y0302242D01*
X0352165Y0302147D01*
X0352141Y0302053D01*
X0352114Y0301960D01*
X0352083Y0301868D01*
X0352048Y0301778D01*
X0352009Y0301689D01*
X0351966Y0301602D01*
X0351921Y0301516D01*
X0351871Y0301433D01*
X0351818Y0301351D01*
X0351762Y0301272D01*
X0351703Y0301195D01*
X0351641Y0301121D01*
X0351575Y0301049D01*
X0351507Y0300980D01*
X0351436Y0300914D01*
X0351363Y0300851D01*
X0351286Y0300791D01*
X0351208Y0300734D01*
X0351127Y0300681D01*
X0351044Y0300630D01*
X0350959Y0300584D01*
X0350872Y0300540D01*
X0350784Y0300501D01*
X0350694Y0300465D01*
X0350602Y0300433D01*
X0350509Y0300404D01*
X0350416Y0300380D01*
X0350321Y0300359D01*
X0350225Y0300342D01*
X0350129Y0300329D01*
X0350033Y0300320D01*
X0349936Y0300315D01*
X0349839Y0300314D01*
X0349742Y0300317D01*
X0349645Y0300324D01*
X0349549Y0300335D01*
X0349453Y0300350D01*
X0349358Y0300369D01*
X0349263Y0300391D01*
X0349170Y0300418D01*
X0349078Y0300448D01*
X0348987Y0300482D01*
X0348898Y0300520D01*
X0348810Y0300562D01*
X0348724Y0300607D01*
X0348640Y0300655D01*
X0348558Y0300707D01*
X0348479Y0300762D01*
X0348401Y0300821D01*
X0348326Y0300882D01*
X0348254Y0300947D01*
X0348184Y0301014D01*
X0348117Y0301085D01*
X0348054Y0301158D01*
X0347993Y0301233D01*
X0347935Y0301311D01*
X0347881Y0301392D01*
X0347830Y0301474D01*
X0347782Y0301559D01*
X0347738Y0301645D01*
X0347697Y0301733D01*
X0347661Y0301823D01*
X0347627Y0301914D01*
X0347598Y0302006D01*
X0347572Y0302100D01*
X0347551Y0302194D01*
X0347533Y0302290D01*
X0347519Y0302386D01*
X0347509Y0302482D01*
X0347503Y0302579D01*
X0347501Y0302676D01*
X0347501Y0312676D02*
X0347503Y0312773D01*
X0347509Y0312870D01*
X0347519Y0312966D01*
X0347533Y0313062D01*
X0347551Y0313158D01*
X0347572Y0313252D01*
X0347598Y0313346D01*
X0347627Y0313438D01*
X0347661Y0313529D01*
X0347697Y0313619D01*
X0347738Y0313707D01*
X0347782Y0313793D01*
X0347830Y0313878D01*
X0347881Y0313960D01*
X0347935Y0314041D01*
X0347993Y0314119D01*
X0348054Y0314194D01*
X0348117Y0314267D01*
X0348184Y0314338D01*
X0348254Y0314405D01*
X0348326Y0314470D01*
X0348401Y0314531D01*
X0348479Y0314590D01*
X0348558Y0314645D01*
X0348640Y0314697D01*
X0348724Y0314745D01*
X0348810Y0314790D01*
X0348898Y0314832D01*
X0348987Y0314870D01*
X0349078Y0314904D01*
X0349170Y0314934D01*
X0349263Y0314961D01*
X0349358Y0314983D01*
X0349453Y0315002D01*
X0349549Y0315017D01*
X0349645Y0315028D01*
X0349742Y0315035D01*
X0349839Y0315038D01*
X0349936Y0315037D01*
X0350033Y0315032D01*
X0350129Y0315023D01*
X0350225Y0315010D01*
X0350321Y0314993D01*
X0350416Y0314972D01*
X0350509Y0314948D01*
X0350602Y0314919D01*
X0350694Y0314887D01*
X0350784Y0314851D01*
X0350872Y0314812D01*
X0350959Y0314768D01*
X0351044Y0314722D01*
X0351127Y0314671D01*
X0351208Y0314618D01*
X0351286Y0314561D01*
X0351363Y0314501D01*
X0351436Y0314438D01*
X0351507Y0314372D01*
X0351575Y0314303D01*
X0351641Y0314231D01*
X0351703Y0314157D01*
X0351762Y0314080D01*
X0351818Y0314001D01*
X0351871Y0313919D01*
X0351921Y0313836D01*
X0351966Y0313750D01*
X0352009Y0313663D01*
X0352048Y0313574D01*
X0352083Y0313484D01*
X0352114Y0313392D01*
X0352141Y0313299D01*
X0352165Y0313205D01*
X0352185Y0313110D01*
X0352201Y0313014D01*
X0352213Y0312918D01*
X0352221Y0312821D01*
X0352225Y0312724D01*
X0352225Y0312628D01*
X0352221Y0312531D01*
X0352213Y0312434D01*
X0352201Y0312338D01*
X0352185Y0312242D01*
X0352165Y0312147D01*
X0352141Y0312053D01*
X0352114Y0311960D01*
X0352083Y0311868D01*
X0352048Y0311778D01*
X0352009Y0311689D01*
X0351966Y0311602D01*
X0351921Y0311516D01*
X0351871Y0311433D01*
X0351818Y0311351D01*
X0351762Y0311272D01*
X0351703Y0311195D01*
X0351641Y0311121D01*
X0351575Y0311049D01*
X0351507Y0310980D01*
X0351436Y0310914D01*
X0351363Y0310851D01*
X0351286Y0310791D01*
X0351208Y0310734D01*
X0351127Y0310681D01*
X0351044Y0310630D01*
X0350959Y0310584D01*
X0350872Y0310540D01*
X0350784Y0310501D01*
X0350694Y0310465D01*
X0350602Y0310433D01*
X0350509Y0310404D01*
X0350416Y0310380D01*
X0350321Y0310359D01*
X0350225Y0310342D01*
X0350129Y0310329D01*
X0350033Y0310320D01*
X0349936Y0310315D01*
X0349839Y0310314D01*
X0349742Y0310317D01*
X0349645Y0310324D01*
X0349549Y0310335D01*
X0349453Y0310350D01*
X0349358Y0310369D01*
X0349263Y0310391D01*
X0349170Y0310418D01*
X0349078Y0310448D01*
X0348987Y0310482D01*
X0348898Y0310520D01*
X0348810Y0310562D01*
X0348724Y0310607D01*
X0348640Y0310655D01*
X0348558Y0310707D01*
X0348479Y0310762D01*
X0348401Y0310821D01*
X0348326Y0310882D01*
X0348254Y0310947D01*
X0348184Y0311014D01*
X0348117Y0311085D01*
X0348054Y0311158D01*
X0347993Y0311233D01*
X0347935Y0311311D01*
X0347881Y0311392D01*
X0347830Y0311474D01*
X0347782Y0311559D01*
X0347738Y0311645D01*
X0347697Y0311733D01*
X0347661Y0311823D01*
X0347627Y0311914D01*
X0347598Y0312006D01*
X0347572Y0312100D01*
X0347551Y0312194D01*
X0347533Y0312290D01*
X0347519Y0312386D01*
X0347509Y0312482D01*
X0347503Y0312579D01*
X0347501Y0312676D01*
X0347501Y0322676D02*
X0347503Y0322773D01*
X0347509Y0322870D01*
X0347519Y0322966D01*
X0347533Y0323062D01*
X0347551Y0323158D01*
X0347572Y0323252D01*
X0347598Y0323346D01*
X0347627Y0323438D01*
X0347661Y0323529D01*
X0347697Y0323619D01*
X0347738Y0323707D01*
X0347782Y0323793D01*
X0347830Y0323878D01*
X0347881Y0323960D01*
X0347935Y0324041D01*
X0347993Y0324119D01*
X0348054Y0324194D01*
X0348117Y0324267D01*
X0348184Y0324338D01*
X0348254Y0324405D01*
X0348326Y0324470D01*
X0348401Y0324531D01*
X0348479Y0324590D01*
X0348558Y0324645D01*
X0348640Y0324697D01*
X0348724Y0324745D01*
X0348810Y0324790D01*
X0348898Y0324832D01*
X0348987Y0324870D01*
X0349078Y0324904D01*
X0349170Y0324934D01*
X0349263Y0324961D01*
X0349358Y0324983D01*
X0349453Y0325002D01*
X0349549Y0325017D01*
X0349645Y0325028D01*
X0349742Y0325035D01*
X0349839Y0325038D01*
X0349936Y0325037D01*
X0350033Y0325032D01*
X0350129Y0325023D01*
X0350225Y0325010D01*
X0350321Y0324993D01*
X0350416Y0324972D01*
X0350509Y0324948D01*
X0350602Y0324919D01*
X0350694Y0324887D01*
X0350784Y0324851D01*
X0350872Y0324812D01*
X0350959Y0324768D01*
X0351044Y0324722D01*
X0351127Y0324671D01*
X0351208Y0324618D01*
X0351286Y0324561D01*
X0351363Y0324501D01*
X0351436Y0324438D01*
X0351507Y0324372D01*
X0351575Y0324303D01*
X0351641Y0324231D01*
X0351703Y0324157D01*
X0351762Y0324080D01*
X0351818Y0324001D01*
X0351871Y0323919D01*
X0351921Y0323836D01*
X0351966Y0323750D01*
X0352009Y0323663D01*
X0352048Y0323574D01*
X0352083Y0323484D01*
X0352114Y0323392D01*
X0352141Y0323299D01*
X0352165Y0323205D01*
X0352185Y0323110D01*
X0352201Y0323014D01*
X0352213Y0322918D01*
X0352221Y0322821D01*
X0352225Y0322724D01*
X0352225Y0322628D01*
X0352221Y0322531D01*
X0352213Y0322434D01*
X0352201Y0322338D01*
X0352185Y0322242D01*
X0352165Y0322147D01*
X0352141Y0322053D01*
X0352114Y0321960D01*
X0352083Y0321868D01*
X0352048Y0321778D01*
X0352009Y0321689D01*
X0351966Y0321602D01*
X0351921Y0321516D01*
X0351871Y0321433D01*
X0351818Y0321351D01*
X0351762Y0321272D01*
X0351703Y0321195D01*
X0351641Y0321121D01*
X0351575Y0321049D01*
X0351507Y0320980D01*
X0351436Y0320914D01*
X0351363Y0320851D01*
X0351286Y0320791D01*
X0351208Y0320734D01*
X0351127Y0320681D01*
X0351044Y0320630D01*
X0350959Y0320584D01*
X0350872Y0320540D01*
X0350784Y0320501D01*
X0350694Y0320465D01*
X0350602Y0320433D01*
X0350509Y0320404D01*
X0350416Y0320380D01*
X0350321Y0320359D01*
X0350225Y0320342D01*
X0350129Y0320329D01*
X0350033Y0320320D01*
X0349936Y0320315D01*
X0349839Y0320314D01*
X0349742Y0320317D01*
X0349645Y0320324D01*
X0349549Y0320335D01*
X0349453Y0320350D01*
X0349358Y0320369D01*
X0349263Y0320391D01*
X0349170Y0320418D01*
X0349078Y0320448D01*
X0348987Y0320482D01*
X0348898Y0320520D01*
X0348810Y0320562D01*
X0348724Y0320607D01*
X0348640Y0320655D01*
X0348558Y0320707D01*
X0348479Y0320762D01*
X0348401Y0320821D01*
X0348326Y0320882D01*
X0348254Y0320947D01*
X0348184Y0321014D01*
X0348117Y0321085D01*
X0348054Y0321158D01*
X0347993Y0321233D01*
X0347935Y0321311D01*
X0347881Y0321392D01*
X0347830Y0321474D01*
X0347782Y0321559D01*
X0347738Y0321645D01*
X0347697Y0321733D01*
X0347661Y0321823D01*
X0347627Y0321914D01*
X0347598Y0322006D01*
X0347572Y0322100D01*
X0347551Y0322194D01*
X0347533Y0322290D01*
X0347519Y0322386D01*
X0347509Y0322482D01*
X0347503Y0322579D01*
X0347501Y0322676D01*
X0347501Y0332676D02*
X0347503Y0332773D01*
X0347509Y0332870D01*
X0347519Y0332966D01*
X0347533Y0333062D01*
X0347551Y0333158D01*
X0347572Y0333252D01*
X0347598Y0333346D01*
X0347627Y0333438D01*
X0347661Y0333529D01*
X0347697Y0333619D01*
X0347738Y0333707D01*
X0347782Y0333793D01*
X0347830Y0333878D01*
X0347881Y0333960D01*
X0347935Y0334041D01*
X0347993Y0334119D01*
X0348054Y0334194D01*
X0348117Y0334267D01*
X0348184Y0334338D01*
X0348254Y0334405D01*
X0348326Y0334470D01*
X0348401Y0334531D01*
X0348479Y0334590D01*
X0348558Y0334645D01*
X0348640Y0334697D01*
X0348724Y0334745D01*
X0348810Y0334790D01*
X0348898Y0334832D01*
X0348987Y0334870D01*
X0349078Y0334904D01*
X0349170Y0334934D01*
X0349263Y0334961D01*
X0349358Y0334983D01*
X0349453Y0335002D01*
X0349549Y0335017D01*
X0349645Y0335028D01*
X0349742Y0335035D01*
X0349839Y0335038D01*
X0349936Y0335037D01*
X0350033Y0335032D01*
X0350129Y0335023D01*
X0350225Y0335010D01*
X0350321Y0334993D01*
X0350416Y0334972D01*
X0350509Y0334948D01*
X0350602Y0334919D01*
X0350694Y0334887D01*
X0350784Y0334851D01*
X0350872Y0334812D01*
X0350959Y0334768D01*
X0351044Y0334722D01*
X0351127Y0334671D01*
X0351208Y0334618D01*
X0351286Y0334561D01*
X0351363Y0334501D01*
X0351436Y0334438D01*
X0351507Y0334372D01*
X0351575Y0334303D01*
X0351641Y0334231D01*
X0351703Y0334157D01*
X0351762Y0334080D01*
X0351818Y0334001D01*
X0351871Y0333919D01*
X0351921Y0333836D01*
X0351966Y0333750D01*
X0352009Y0333663D01*
X0352048Y0333574D01*
X0352083Y0333484D01*
X0352114Y0333392D01*
X0352141Y0333299D01*
X0352165Y0333205D01*
X0352185Y0333110D01*
X0352201Y0333014D01*
X0352213Y0332918D01*
X0352221Y0332821D01*
X0352225Y0332724D01*
X0352225Y0332628D01*
X0352221Y0332531D01*
X0352213Y0332434D01*
X0352201Y0332338D01*
X0352185Y0332242D01*
X0352165Y0332147D01*
X0352141Y0332053D01*
X0352114Y0331960D01*
X0352083Y0331868D01*
X0352048Y0331778D01*
X0352009Y0331689D01*
X0351966Y0331602D01*
X0351921Y0331516D01*
X0351871Y0331433D01*
X0351818Y0331351D01*
X0351762Y0331272D01*
X0351703Y0331195D01*
X0351641Y0331121D01*
X0351575Y0331049D01*
X0351507Y0330980D01*
X0351436Y0330914D01*
X0351363Y0330851D01*
X0351286Y0330791D01*
X0351208Y0330734D01*
X0351127Y0330681D01*
X0351044Y0330630D01*
X0350959Y0330584D01*
X0350872Y0330540D01*
X0350784Y0330501D01*
X0350694Y0330465D01*
X0350602Y0330433D01*
X0350509Y0330404D01*
X0350416Y0330380D01*
X0350321Y0330359D01*
X0350225Y0330342D01*
X0350129Y0330329D01*
X0350033Y0330320D01*
X0349936Y0330315D01*
X0349839Y0330314D01*
X0349742Y0330317D01*
X0349645Y0330324D01*
X0349549Y0330335D01*
X0349453Y0330350D01*
X0349358Y0330369D01*
X0349263Y0330391D01*
X0349170Y0330418D01*
X0349078Y0330448D01*
X0348987Y0330482D01*
X0348898Y0330520D01*
X0348810Y0330562D01*
X0348724Y0330607D01*
X0348640Y0330655D01*
X0348558Y0330707D01*
X0348479Y0330762D01*
X0348401Y0330821D01*
X0348326Y0330882D01*
X0348254Y0330947D01*
X0348184Y0331014D01*
X0348117Y0331085D01*
X0348054Y0331158D01*
X0347993Y0331233D01*
X0347935Y0331311D01*
X0347881Y0331392D01*
X0347830Y0331474D01*
X0347782Y0331559D01*
X0347738Y0331645D01*
X0347697Y0331733D01*
X0347661Y0331823D01*
X0347627Y0331914D01*
X0347598Y0332006D01*
X0347572Y0332100D01*
X0347551Y0332194D01*
X0347533Y0332290D01*
X0347519Y0332386D01*
X0347509Y0332482D01*
X0347503Y0332579D01*
X0347501Y0332676D01*
X0347501Y0342676D02*
X0347503Y0342773D01*
X0347509Y0342870D01*
X0347519Y0342966D01*
X0347533Y0343062D01*
X0347551Y0343158D01*
X0347572Y0343252D01*
X0347598Y0343346D01*
X0347627Y0343438D01*
X0347661Y0343529D01*
X0347697Y0343619D01*
X0347738Y0343707D01*
X0347782Y0343793D01*
X0347830Y0343878D01*
X0347881Y0343960D01*
X0347935Y0344041D01*
X0347993Y0344119D01*
X0348054Y0344194D01*
X0348117Y0344267D01*
X0348184Y0344338D01*
X0348254Y0344405D01*
X0348326Y0344470D01*
X0348401Y0344531D01*
X0348479Y0344590D01*
X0348558Y0344645D01*
X0348640Y0344697D01*
X0348724Y0344745D01*
X0348810Y0344790D01*
X0348898Y0344832D01*
X0348987Y0344870D01*
X0349078Y0344904D01*
X0349170Y0344934D01*
X0349263Y0344961D01*
X0349358Y0344983D01*
X0349453Y0345002D01*
X0349549Y0345017D01*
X0349645Y0345028D01*
X0349742Y0345035D01*
X0349839Y0345038D01*
X0349936Y0345037D01*
X0350033Y0345032D01*
X0350129Y0345023D01*
X0350225Y0345010D01*
X0350321Y0344993D01*
X0350416Y0344972D01*
X0350509Y0344948D01*
X0350602Y0344919D01*
X0350694Y0344887D01*
X0350784Y0344851D01*
X0350872Y0344812D01*
X0350959Y0344768D01*
X0351044Y0344722D01*
X0351127Y0344671D01*
X0351208Y0344618D01*
X0351286Y0344561D01*
X0351363Y0344501D01*
X0351436Y0344438D01*
X0351507Y0344372D01*
X0351575Y0344303D01*
X0351641Y0344231D01*
X0351703Y0344157D01*
X0351762Y0344080D01*
X0351818Y0344001D01*
X0351871Y0343919D01*
X0351921Y0343836D01*
X0351966Y0343750D01*
X0352009Y0343663D01*
X0352048Y0343574D01*
X0352083Y0343484D01*
X0352114Y0343392D01*
X0352141Y0343299D01*
X0352165Y0343205D01*
X0352185Y0343110D01*
X0352201Y0343014D01*
X0352213Y0342918D01*
X0352221Y0342821D01*
X0352225Y0342724D01*
X0352225Y0342628D01*
X0352221Y0342531D01*
X0352213Y0342434D01*
X0352201Y0342338D01*
X0352185Y0342242D01*
X0352165Y0342147D01*
X0352141Y0342053D01*
X0352114Y0341960D01*
X0352083Y0341868D01*
X0352048Y0341778D01*
X0352009Y0341689D01*
X0351966Y0341602D01*
X0351921Y0341516D01*
X0351871Y0341433D01*
X0351818Y0341351D01*
X0351762Y0341272D01*
X0351703Y0341195D01*
X0351641Y0341121D01*
X0351575Y0341049D01*
X0351507Y0340980D01*
X0351436Y0340914D01*
X0351363Y0340851D01*
X0351286Y0340791D01*
X0351208Y0340734D01*
X0351127Y0340681D01*
X0351044Y0340630D01*
X0350959Y0340584D01*
X0350872Y0340540D01*
X0350784Y0340501D01*
X0350694Y0340465D01*
X0350602Y0340433D01*
X0350509Y0340404D01*
X0350416Y0340380D01*
X0350321Y0340359D01*
X0350225Y0340342D01*
X0350129Y0340329D01*
X0350033Y0340320D01*
X0349936Y0340315D01*
X0349839Y0340314D01*
X0349742Y0340317D01*
X0349645Y0340324D01*
X0349549Y0340335D01*
X0349453Y0340350D01*
X0349358Y0340369D01*
X0349263Y0340391D01*
X0349170Y0340418D01*
X0349078Y0340448D01*
X0348987Y0340482D01*
X0348898Y0340520D01*
X0348810Y0340562D01*
X0348724Y0340607D01*
X0348640Y0340655D01*
X0348558Y0340707D01*
X0348479Y0340762D01*
X0348401Y0340821D01*
X0348326Y0340882D01*
X0348254Y0340947D01*
X0348184Y0341014D01*
X0348117Y0341085D01*
X0348054Y0341158D01*
X0347993Y0341233D01*
X0347935Y0341311D01*
X0347881Y0341392D01*
X0347830Y0341474D01*
X0347782Y0341559D01*
X0347738Y0341645D01*
X0347697Y0341733D01*
X0347661Y0341823D01*
X0347627Y0341914D01*
X0347598Y0342006D01*
X0347572Y0342100D01*
X0347551Y0342194D01*
X0347533Y0342290D01*
X0347519Y0342386D01*
X0347509Y0342482D01*
X0347503Y0342579D01*
X0347501Y0342676D01*
X0347501Y0352676D02*
X0347503Y0352773D01*
X0347509Y0352870D01*
X0347519Y0352966D01*
X0347533Y0353062D01*
X0347551Y0353158D01*
X0347572Y0353252D01*
X0347598Y0353346D01*
X0347627Y0353438D01*
X0347661Y0353529D01*
X0347697Y0353619D01*
X0347738Y0353707D01*
X0347782Y0353793D01*
X0347830Y0353878D01*
X0347881Y0353960D01*
X0347935Y0354041D01*
X0347993Y0354119D01*
X0348054Y0354194D01*
X0348117Y0354267D01*
X0348184Y0354338D01*
X0348254Y0354405D01*
X0348326Y0354470D01*
X0348401Y0354531D01*
X0348479Y0354590D01*
X0348558Y0354645D01*
X0348640Y0354697D01*
X0348724Y0354745D01*
X0348810Y0354790D01*
X0348898Y0354832D01*
X0348987Y0354870D01*
X0349078Y0354904D01*
X0349170Y0354934D01*
X0349263Y0354961D01*
X0349358Y0354983D01*
X0349453Y0355002D01*
X0349549Y0355017D01*
X0349645Y0355028D01*
X0349742Y0355035D01*
X0349839Y0355038D01*
X0349936Y0355037D01*
X0350033Y0355032D01*
X0350129Y0355023D01*
X0350225Y0355010D01*
X0350321Y0354993D01*
X0350416Y0354972D01*
X0350509Y0354948D01*
X0350602Y0354919D01*
X0350694Y0354887D01*
X0350784Y0354851D01*
X0350872Y0354812D01*
X0350959Y0354768D01*
X0351044Y0354722D01*
X0351127Y0354671D01*
X0351208Y0354618D01*
X0351286Y0354561D01*
X0351363Y0354501D01*
X0351436Y0354438D01*
X0351507Y0354372D01*
X0351575Y0354303D01*
X0351641Y0354231D01*
X0351703Y0354157D01*
X0351762Y0354080D01*
X0351818Y0354001D01*
X0351871Y0353919D01*
X0351921Y0353836D01*
X0351966Y0353750D01*
X0352009Y0353663D01*
X0352048Y0353574D01*
X0352083Y0353484D01*
X0352114Y0353392D01*
X0352141Y0353299D01*
X0352165Y0353205D01*
X0352185Y0353110D01*
X0352201Y0353014D01*
X0352213Y0352918D01*
X0352221Y0352821D01*
X0352225Y0352724D01*
X0352225Y0352628D01*
X0352221Y0352531D01*
X0352213Y0352434D01*
X0352201Y0352338D01*
X0352185Y0352242D01*
X0352165Y0352147D01*
X0352141Y0352053D01*
X0352114Y0351960D01*
X0352083Y0351868D01*
X0352048Y0351778D01*
X0352009Y0351689D01*
X0351966Y0351602D01*
X0351921Y0351516D01*
X0351871Y0351433D01*
X0351818Y0351351D01*
X0351762Y0351272D01*
X0351703Y0351195D01*
X0351641Y0351121D01*
X0351575Y0351049D01*
X0351507Y0350980D01*
X0351436Y0350914D01*
X0351363Y0350851D01*
X0351286Y0350791D01*
X0351208Y0350734D01*
X0351127Y0350681D01*
X0351044Y0350630D01*
X0350959Y0350584D01*
X0350872Y0350540D01*
X0350784Y0350501D01*
X0350694Y0350465D01*
X0350602Y0350433D01*
X0350509Y0350404D01*
X0350416Y0350380D01*
X0350321Y0350359D01*
X0350225Y0350342D01*
X0350129Y0350329D01*
X0350033Y0350320D01*
X0349936Y0350315D01*
X0349839Y0350314D01*
X0349742Y0350317D01*
X0349645Y0350324D01*
X0349549Y0350335D01*
X0349453Y0350350D01*
X0349358Y0350369D01*
X0349263Y0350391D01*
X0349170Y0350418D01*
X0349078Y0350448D01*
X0348987Y0350482D01*
X0348898Y0350520D01*
X0348810Y0350562D01*
X0348724Y0350607D01*
X0348640Y0350655D01*
X0348558Y0350707D01*
X0348479Y0350762D01*
X0348401Y0350821D01*
X0348326Y0350882D01*
X0348254Y0350947D01*
X0348184Y0351014D01*
X0348117Y0351085D01*
X0348054Y0351158D01*
X0347993Y0351233D01*
X0347935Y0351311D01*
X0347881Y0351392D01*
X0347830Y0351474D01*
X0347782Y0351559D01*
X0347738Y0351645D01*
X0347697Y0351733D01*
X0347661Y0351823D01*
X0347627Y0351914D01*
X0347598Y0352006D01*
X0347572Y0352100D01*
X0347551Y0352194D01*
X0347533Y0352290D01*
X0347519Y0352386D01*
X0347509Y0352482D01*
X0347503Y0352579D01*
X0347501Y0352676D01*
X0347501Y0362676D02*
X0347503Y0362773D01*
X0347509Y0362870D01*
X0347519Y0362966D01*
X0347533Y0363062D01*
X0347551Y0363158D01*
X0347572Y0363252D01*
X0347598Y0363346D01*
X0347627Y0363438D01*
X0347661Y0363529D01*
X0347697Y0363619D01*
X0347738Y0363707D01*
X0347782Y0363793D01*
X0347830Y0363878D01*
X0347881Y0363960D01*
X0347935Y0364041D01*
X0347993Y0364119D01*
X0348054Y0364194D01*
X0348117Y0364267D01*
X0348184Y0364338D01*
X0348254Y0364405D01*
X0348326Y0364470D01*
X0348401Y0364531D01*
X0348479Y0364590D01*
X0348558Y0364645D01*
X0348640Y0364697D01*
X0348724Y0364745D01*
X0348810Y0364790D01*
X0348898Y0364832D01*
X0348987Y0364870D01*
X0349078Y0364904D01*
X0349170Y0364934D01*
X0349263Y0364961D01*
X0349358Y0364983D01*
X0349453Y0365002D01*
X0349549Y0365017D01*
X0349645Y0365028D01*
X0349742Y0365035D01*
X0349839Y0365038D01*
X0349936Y0365037D01*
X0350033Y0365032D01*
X0350129Y0365023D01*
X0350225Y0365010D01*
X0350321Y0364993D01*
X0350416Y0364972D01*
X0350509Y0364948D01*
X0350602Y0364919D01*
X0350694Y0364887D01*
X0350784Y0364851D01*
X0350872Y0364812D01*
X0350959Y0364768D01*
X0351044Y0364722D01*
X0351127Y0364671D01*
X0351208Y0364618D01*
X0351286Y0364561D01*
X0351363Y0364501D01*
X0351436Y0364438D01*
X0351507Y0364372D01*
X0351575Y0364303D01*
X0351641Y0364231D01*
X0351703Y0364157D01*
X0351762Y0364080D01*
X0351818Y0364001D01*
X0351871Y0363919D01*
X0351921Y0363836D01*
X0351966Y0363750D01*
X0352009Y0363663D01*
X0352048Y0363574D01*
X0352083Y0363484D01*
X0352114Y0363392D01*
X0352141Y0363299D01*
X0352165Y0363205D01*
X0352185Y0363110D01*
X0352201Y0363014D01*
X0352213Y0362918D01*
X0352221Y0362821D01*
X0352225Y0362724D01*
X0352225Y0362628D01*
X0352221Y0362531D01*
X0352213Y0362434D01*
X0352201Y0362338D01*
X0352185Y0362242D01*
X0352165Y0362147D01*
X0352141Y0362053D01*
X0352114Y0361960D01*
X0352083Y0361868D01*
X0352048Y0361778D01*
X0352009Y0361689D01*
X0351966Y0361602D01*
X0351921Y0361516D01*
X0351871Y0361433D01*
X0351818Y0361351D01*
X0351762Y0361272D01*
X0351703Y0361195D01*
X0351641Y0361121D01*
X0351575Y0361049D01*
X0351507Y0360980D01*
X0351436Y0360914D01*
X0351363Y0360851D01*
X0351286Y0360791D01*
X0351208Y0360734D01*
X0351127Y0360681D01*
X0351044Y0360630D01*
X0350959Y0360584D01*
X0350872Y0360540D01*
X0350784Y0360501D01*
X0350694Y0360465D01*
X0350602Y0360433D01*
X0350509Y0360404D01*
X0350416Y0360380D01*
X0350321Y0360359D01*
X0350225Y0360342D01*
X0350129Y0360329D01*
X0350033Y0360320D01*
X0349936Y0360315D01*
X0349839Y0360314D01*
X0349742Y0360317D01*
X0349645Y0360324D01*
X0349549Y0360335D01*
X0349453Y0360350D01*
X0349358Y0360369D01*
X0349263Y0360391D01*
X0349170Y0360418D01*
X0349078Y0360448D01*
X0348987Y0360482D01*
X0348898Y0360520D01*
X0348810Y0360562D01*
X0348724Y0360607D01*
X0348640Y0360655D01*
X0348558Y0360707D01*
X0348479Y0360762D01*
X0348401Y0360821D01*
X0348326Y0360882D01*
X0348254Y0360947D01*
X0348184Y0361014D01*
X0348117Y0361085D01*
X0348054Y0361158D01*
X0347993Y0361233D01*
X0347935Y0361311D01*
X0347881Y0361392D01*
X0347830Y0361474D01*
X0347782Y0361559D01*
X0347738Y0361645D01*
X0347697Y0361733D01*
X0347661Y0361823D01*
X0347627Y0361914D01*
X0347598Y0362006D01*
X0347572Y0362100D01*
X0347551Y0362194D01*
X0347533Y0362290D01*
X0347519Y0362386D01*
X0347509Y0362482D01*
X0347503Y0362579D01*
X0347501Y0362676D01*
X0357501Y0372676D02*
X0357503Y0372773D01*
X0357509Y0372870D01*
X0357519Y0372966D01*
X0357533Y0373062D01*
X0357551Y0373158D01*
X0357572Y0373252D01*
X0357598Y0373346D01*
X0357627Y0373438D01*
X0357661Y0373529D01*
X0357697Y0373619D01*
X0357738Y0373707D01*
X0357782Y0373793D01*
X0357830Y0373878D01*
X0357881Y0373960D01*
X0357935Y0374041D01*
X0357993Y0374119D01*
X0358054Y0374194D01*
X0358117Y0374267D01*
X0358184Y0374338D01*
X0358254Y0374405D01*
X0358326Y0374470D01*
X0358401Y0374531D01*
X0358479Y0374590D01*
X0358558Y0374645D01*
X0358640Y0374697D01*
X0358724Y0374745D01*
X0358810Y0374790D01*
X0358898Y0374832D01*
X0358987Y0374870D01*
X0359078Y0374904D01*
X0359170Y0374934D01*
X0359263Y0374961D01*
X0359358Y0374983D01*
X0359453Y0375002D01*
X0359549Y0375017D01*
X0359645Y0375028D01*
X0359742Y0375035D01*
X0359839Y0375038D01*
X0359936Y0375037D01*
X0360033Y0375032D01*
X0360129Y0375023D01*
X0360225Y0375010D01*
X0360321Y0374993D01*
X0360416Y0374972D01*
X0360509Y0374948D01*
X0360602Y0374919D01*
X0360694Y0374887D01*
X0360784Y0374851D01*
X0360872Y0374812D01*
X0360959Y0374768D01*
X0361044Y0374722D01*
X0361127Y0374671D01*
X0361208Y0374618D01*
X0361286Y0374561D01*
X0361363Y0374501D01*
X0361436Y0374438D01*
X0361507Y0374372D01*
X0361575Y0374303D01*
X0361641Y0374231D01*
X0361703Y0374157D01*
X0361762Y0374080D01*
X0361818Y0374001D01*
X0361871Y0373919D01*
X0361921Y0373836D01*
X0361966Y0373750D01*
X0362009Y0373663D01*
X0362048Y0373574D01*
X0362083Y0373484D01*
X0362114Y0373392D01*
X0362141Y0373299D01*
X0362165Y0373205D01*
X0362185Y0373110D01*
X0362201Y0373014D01*
X0362213Y0372918D01*
X0362221Y0372821D01*
X0362225Y0372724D01*
X0362225Y0372628D01*
X0362221Y0372531D01*
X0362213Y0372434D01*
X0362201Y0372338D01*
X0362185Y0372242D01*
X0362165Y0372147D01*
X0362141Y0372053D01*
X0362114Y0371960D01*
X0362083Y0371868D01*
X0362048Y0371778D01*
X0362009Y0371689D01*
X0361966Y0371602D01*
X0361921Y0371516D01*
X0361871Y0371433D01*
X0361818Y0371351D01*
X0361762Y0371272D01*
X0361703Y0371195D01*
X0361641Y0371121D01*
X0361575Y0371049D01*
X0361507Y0370980D01*
X0361436Y0370914D01*
X0361363Y0370851D01*
X0361286Y0370791D01*
X0361208Y0370734D01*
X0361127Y0370681D01*
X0361044Y0370630D01*
X0360959Y0370584D01*
X0360872Y0370540D01*
X0360784Y0370501D01*
X0360694Y0370465D01*
X0360602Y0370433D01*
X0360509Y0370404D01*
X0360416Y0370380D01*
X0360321Y0370359D01*
X0360225Y0370342D01*
X0360129Y0370329D01*
X0360033Y0370320D01*
X0359936Y0370315D01*
X0359839Y0370314D01*
X0359742Y0370317D01*
X0359645Y0370324D01*
X0359549Y0370335D01*
X0359453Y0370350D01*
X0359358Y0370369D01*
X0359263Y0370391D01*
X0359170Y0370418D01*
X0359078Y0370448D01*
X0358987Y0370482D01*
X0358898Y0370520D01*
X0358810Y0370562D01*
X0358724Y0370607D01*
X0358640Y0370655D01*
X0358558Y0370707D01*
X0358479Y0370762D01*
X0358401Y0370821D01*
X0358326Y0370882D01*
X0358254Y0370947D01*
X0358184Y0371014D01*
X0358117Y0371085D01*
X0358054Y0371158D01*
X0357993Y0371233D01*
X0357935Y0371311D01*
X0357881Y0371392D01*
X0357830Y0371474D01*
X0357782Y0371559D01*
X0357738Y0371645D01*
X0357697Y0371733D01*
X0357661Y0371823D01*
X0357627Y0371914D01*
X0357598Y0372006D01*
X0357572Y0372100D01*
X0357551Y0372194D01*
X0357533Y0372290D01*
X0357519Y0372386D01*
X0357509Y0372482D01*
X0357503Y0372579D01*
X0357501Y0372676D01*
X0354563Y0400122D02*
X0354565Y0400219D01*
X0354571Y0400316D01*
X0354581Y0400412D01*
X0354595Y0400508D01*
X0354613Y0400604D01*
X0354634Y0400698D01*
X0354660Y0400792D01*
X0354689Y0400884D01*
X0354723Y0400975D01*
X0354759Y0401065D01*
X0354800Y0401153D01*
X0354844Y0401239D01*
X0354892Y0401324D01*
X0354943Y0401406D01*
X0354997Y0401487D01*
X0355055Y0401565D01*
X0355116Y0401640D01*
X0355179Y0401713D01*
X0355246Y0401784D01*
X0355316Y0401851D01*
X0355388Y0401916D01*
X0355463Y0401977D01*
X0355541Y0402036D01*
X0355620Y0402091D01*
X0355702Y0402143D01*
X0355786Y0402191D01*
X0355872Y0402236D01*
X0355960Y0402278D01*
X0356049Y0402316D01*
X0356140Y0402350D01*
X0356232Y0402380D01*
X0356325Y0402407D01*
X0356420Y0402429D01*
X0356515Y0402448D01*
X0356611Y0402463D01*
X0356707Y0402474D01*
X0356804Y0402481D01*
X0356901Y0402484D01*
X0356998Y0402483D01*
X0357095Y0402478D01*
X0357191Y0402469D01*
X0357287Y0402456D01*
X0357383Y0402439D01*
X0357478Y0402418D01*
X0357571Y0402394D01*
X0357664Y0402365D01*
X0357756Y0402333D01*
X0357846Y0402297D01*
X0357934Y0402258D01*
X0358021Y0402214D01*
X0358106Y0402168D01*
X0358189Y0402117D01*
X0358270Y0402064D01*
X0358348Y0402007D01*
X0358425Y0401947D01*
X0358498Y0401884D01*
X0358569Y0401818D01*
X0358637Y0401749D01*
X0358703Y0401677D01*
X0358765Y0401603D01*
X0358824Y0401526D01*
X0358880Y0401447D01*
X0358933Y0401365D01*
X0358983Y0401282D01*
X0359028Y0401196D01*
X0359071Y0401109D01*
X0359110Y0401020D01*
X0359145Y0400930D01*
X0359176Y0400838D01*
X0359203Y0400745D01*
X0359227Y0400651D01*
X0359247Y0400556D01*
X0359263Y0400460D01*
X0359275Y0400364D01*
X0359283Y0400267D01*
X0359287Y0400170D01*
X0359287Y0400074D01*
X0359283Y0399977D01*
X0359275Y0399880D01*
X0359263Y0399784D01*
X0359247Y0399688D01*
X0359227Y0399593D01*
X0359203Y0399499D01*
X0359176Y0399406D01*
X0359145Y0399314D01*
X0359110Y0399224D01*
X0359071Y0399135D01*
X0359028Y0399048D01*
X0358983Y0398962D01*
X0358933Y0398879D01*
X0358880Y0398797D01*
X0358824Y0398718D01*
X0358765Y0398641D01*
X0358703Y0398567D01*
X0358637Y0398495D01*
X0358569Y0398426D01*
X0358498Y0398360D01*
X0358425Y0398297D01*
X0358348Y0398237D01*
X0358270Y0398180D01*
X0358189Y0398127D01*
X0358106Y0398076D01*
X0358021Y0398030D01*
X0357934Y0397986D01*
X0357846Y0397947D01*
X0357756Y0397911D01*
X0357664Y0397879D01*
X0357571Y0397850D01*
X0357478Y0397826D01*
X0357383Y0397805D01*
X0357287Y0397788D01*
X0357191Y0397775D01*
X0357095Y0397766D01*
X0356998Y0397761D01*
X0356901Y0397760D01*
X0356804Y0397763D01*
X0356707Y0397770D01*
X0356611Y0397781D01*
X0356515Y0397796D01*
X0356420Y0397815D01*
X0356325Y0397837D01*
X0356232Y0397864D01*
X0356140Y0397894D01*
X0356049Y0397928D01*
X0355960Y0397966D01*
X0355872Y0398008D01*
X0355786Y0398053D01*
X0355702Y0398101D01*
X0355620Y0398153D01*
X0355541Y0398208D01*
X0355463Y0398267D01*
X0355388Y0398328D01*
X0355316Y0398393D01*
X0355246Y0398460D01*
X0355179Y0398531D01*
X0355116Y0398604D01*
X0355055Y0398679D01*
X0354997Y0398757D01*
X0354943Y0398838D01*
X0354892Y0398920D01*
X0354844Y0399005D01*
X0354800Y0399091D01*
X0354759Y0399179D01*
X0354723Y0399269D01*
X0354689Y0399360D01*
X0354660Y0399452D01*
X0354634Y0399546D01*
X0354613Y0399640D01*
X0354595Y0399736D01*
X0354581Y0399832D01*
X0354571Y0399928D01*
X0354565Y0400025D01*
X0354563Y0400122D01*
X0344563Y0410122D02*
X0344565Y0410219D01*
X0344571Y0410316D01*
X0344581Y0410412D01*
X0344595Y0410508D01*
X0344613Y0410604D01*
X0344634Y0410698D01*
X0344660Y0410792D01*
X0344689Y0410884D01*
X0344723Y0410975D01*
X0344759Y0411065D01*
X0344800Y0411153D01*
X0344844Y0411239D01*
X0344892Y0411324D01*
X0344943Y0411406D01*
X0344997Y0411487D01*
X0345055Y0411565D01*
X0345116Y0411640D01*
X0345179Y0411713D01*
X0345246Y0411784D01*
X0345316Y0411851D01*
X0345388Y0411916D01*
X0345463Y0411977D01*
X0345541Y0412036D01*
X0345620Y0412091D01*
X0345702Y0412143D01*
X0345786Y0412191D01*
X0345872Y0412236D01*
X0345960Y0412278D01*
X0346049Y0412316D01*
X0346140Y0412350D01*
X0346232Y0412380D01*
X0346325Y0412407D01*
X0346420Y0412429D01*
X0346515Y0412448D01*
X0346611Y0412463D01*
X0346707Y0412474D01*
X0346804Y0412481D01*
X0346901Y0412484D01*
X0346998Y0412483D01*
X0347095Y0412478D01*
X0347191Y0412469D01*
X0347287Y0412456D01*
X0347383Y0412439D01*
X0347478Y0412418D01*
X0347571Y0412394D01*
X0347664Y0412365D01*
X0347756Y0412333D01*
X0347846Y0412297D01*
X0347934Y0412258D01*
X0348021Y0412214D01*
X0348106Y0412168D01*
X0348189Y0412117D01*
X0348270Y0412064D01*
X0348348Y0412007D01*
X0348425Y0411947D01*
X0348498Y0411884D01*
X0348569Y0411818D01*
X0348637Y0411749D01*
X0348703Y0411677D01*
X0348765Y0411603D01*
X0348824Y0411526D01*
X0348880Y0411447D01*
X0348933Y0411365D01*
X0348983Y0411282D01*
X0349028Y0411196D01*
X0349071Y0411109D01*
X0349110Y0411020D01*
X0349145Y0410930D01*
X0349176Y0410838D01*
X0349203Y0410745D01*
X0349227Y0410651D01*
X0349247Y0410556D01*
X0349263Y0410460D01*
X0349275Y0410364D01*
X0349283Y0410267D01*
X0349287Y0410170D01*
X0349287Y0410074D01*
X0349283Y0409977D01*
X0349275Y0409880D01*
X0349263Y0409784D01*
X0349247Y0409688D01*
X0349227Y0409593D01*
X0349203Y0409499D01*
X0349176Y0409406D01*
X0349145Y0409314D01*
X0349110Y0409224D01*
X0349071Y0409135D01*
X0349028Y0409048D01*
X0348983Y0408962D01*
X0348933Y0408879D01*
X0348880Y0408797D01*
X0348824Y0408718D01*
X0348765Y0408641D01*
X0348703Y0408567D01*
X0348637Y0408495D01*
X0348569Y0408426D01*
X0348498Y0408360D01*
X0348425Y0408297D01*
X0348348Y0408237D01*
X0348270Y0408180D01*
X0348189Y0408127D01*
X0348106Y0408076D01*
X0348021Y0408030D01*
X0347934Y0407986D01*
X0347846Y0407947D01*
X0347756Y0407911D01*
X0347664Y0407879D01*
X0347571Y0407850D01*
X0347478Y0407826D01*
X0347383Y0407805D01*
X0347287Y0407788D01*
X0347191Y0407775D01*
X0347095Y0407766D01*
X0346998Y0407761D01*
X0346901Y0407760D01*
X0346804Y0407763D01*
X0346707Y0407770D01*
X0346611Y0407781D01*
X0346515Y0407796D01*
X0346420Y0407815D01*
X0346325Y0407837D01*
X0346232Y0407864D01*
X0346140Y0407894D01*
X0346049Y0407928D01*
X0345960Y0407966D01*
X0345872Y0408008D01*
X0345786Y0408053D01*
X0345702Y0408101D01*
X0345620Y0408153D01*
X0345541Y0408208D01*
X0345463Y0408267D01*
X0345388Y0408328D01*
X0345316Y0408393D01*
X0345246Y0408460D01*
X0345179Y0408531D01*
X0345116Y0408604D01*
X0345055Y0408679D01*
X0344997Y0408757D01*
X0344943Y0408838D01*
X0344892Y0408920D01*
X0344844Y0409005D01*
X0344800Y0409091D01*
X0344759Y0409179D01*
X0344723Y0409269D01*
X0344689Y0409360D01*
X0344660Y0409452D01*
X0344634Y0409546D01*
X0344613Y0409640D01*
X0344595Y0409736D01*
X0344581Y0409832D01*
X0344571Y0409928D01*
X0344565Y0410025D01*
X0344563Y0410122D01*
X0344563Y0420122D02*
X0344565Y0420219D01*
X0344571Y0420316D01*
X0344581Y0420412D01*
X0344595Y0420508D01*
X0344613Y0420604D01*
X0344634Y0420698D01*
X0344660Y0420792D01*
X0344689Y0420884D01*
X0344723Y0420975D01*
X0344759Y0421065D01*
X0344800Y0421153D01*
X0344844Y0421239D01*
X0344892Y0421324D01*
X0344943Y0421406D01*
X0344997Y0421487D01*
X0345055Y0421565D01*
X0345116Y0421640D01*
X0345179Y0421713D01*
X0345246Y0421784D01*
X0345316Y0421851D01*
X0345388Y0421916D01*
X0345463Y0421977D01*
X0345541Y0422036D01*
X0345620Y0422091D01*
X0345702Y0422143D01*
X0345786Y0422191D01*
X0345872Y0422236D01*
X0345960Y0422278D01*
X0346049Y0422316D01*
X0346140Y0422350D01*
X0346232Y0422380D01*
X0346325Y0422407D01*
X0346420Y0422429D01*
X0346515Y0422448D01*
X0346611Y0422463D01*
X0346707Y0422474D01*
X0346804Y0422481D01*
X0346901Y0422484D01*
X0346998Y0422483D01*
X0347095Y0422478D01*
X0347191Y0422469D01*
X0347287Y0422456D01*
X0347383Y0422439D01*
X0347478Y0422418D01*
X0347571Y0422394D01*
X0347664Y0422365D01*
X0347756Y0422333D01*
X0347846Y0422297D01*
X0347934Y0422258D01*
X0348021Y0422214D01*
X0348106Y0422168D01*
X0348189Y0422117D01*
X0348270Y0422064D01*
X0348348Y0422007D01*
X0348425Y0421947D01*
X0348498Y0421884D01*
X0348569Y0421818D01*
X0348637Y0421749D01*
X0348703Y0421677D01*
X0348765Y0421603D01*
X0348824Y0421526D01*
X0348880Y0421447D01*
X0348933Y0421365D01*
X0348983Y0421282D01*
X0349028Y0421196D01*
X0349071Y0421109D01*
X0349110Y0421020D01*
X0349145Y0420930D01*
X0349176Y0420838D01*
X0349203Y0420745D01*
X0349227Y0420651D01*
X0349247Y0420556D01*
X0349263Y0420460D01*
X0349275Y0420364D01*
X0349283Y0420267D01*
X0349287Y0420170D01*
X0349287Y0420074D01*
X0349283Y0419977D01*
X0349275Y0419880D01*
X0349263Y0419784D01*
X0349247Y0419688D01*
X0349227Y0419593D01*
X0349203Y0419499D01*
X0349176Y0419406D01*
X0349145Y0419314D01*
X0349110Y0419224D01*
X0349071Y0419135D01*
X0349028Y0419048D01*
X0348983Y0418962D01*
X0348933Y0418879D01*
X0348880Y0418797D01*
X0348824Y0418718D01*
X0348765Y0418641D01*
X0348703Y0418567D01*
X0348637Y0418495D01*
X0348569Y0418426D01*
X0348498Y0418360D01*
X0348425Y0418297D01*
X0348348Y0418237D01*
X0348270Y0418180D01*
X0348189Y0418127D01*
X0348106Y0418076D01*
X0348021Y0418030D01*
X0347934Y0417986D01*
X0347846Y0417947D01*
X0347756Y0417911D01*
X0347664Y0417879D01*
X0347571Y0417850D01*
X0347478Y0417826D01*
X0347383Y0417805D01*
X0347287Y0417788D01*
X0347191Y0417775D01*
X0347095Y0417766D01*
X0346998Y0417761D01*
X0346901Y0417760D01*
X0346804Y0417763D01*
X0346707Y0417770D01*
X0346611Y0417781D01*
X0346515Y0417796D01*
X0346420Y0417815D01*
X0346325Y0417837D01*
X0346232Y0417864D01*
X0346140Y0417894D01*
X0346049Y0417928D01*
X0345960Y0417966D01*
X0345872Y0418008D01*
X0345786Y0418053D01*
X0345702Y0418101D01*
X0345620Y0418153D01*
X0345541Y0418208D01*
X0345463Y0418267D01*
X0345388Y0418328D01*
X0345316Y0418393D01*
X0345246Y0418460D01*
X0345179Y0418531D01*
X0345116Y0418604D01*
X0345055Y0418679D01*
X0344997Y0418757D01*
X0344943Y0418838D01*
X0344892Y0418920D01*
X0344844Y0419005D01*
X0344800Y0419091D01*
X0344759Y0419179D01*
X0344723Y0419269D01*
X0344689Y0419360D01*
X0344660Y0419452D01*
X0344634Y0419546D01*
X0344613Y0419640D01*
X0344595Y0419736D01*
X0344581Y0419832D01*
X0344571Y0419928D01*
X0344565Y0420025D01*
X0344563Y0420122D01*
X0344563Y0430122D02*
X0344565Y0430219D01*
X0344571Y0430316D01*
X0344581Y0430412D01*
X0344595Y0430508D01*
X0344613Y0430604D01*
X0344634Y0430698D01*
X0344660Y0430792D01*
X0344689Y0430884D01*
X0344723Y0430975D01*
X0344759Y0431065D01*
X0344800Y0431153D01*
X0344844Y0431239D01*
X0344892Y0431324D01*
X0344943Y0431406D01*
X0344997Y0431487D01*
X0345055Y0431565D01*
X0345116Y0431640D01*
X0345179Y0431713D01*
X0345246Y0431784D01*
X0345316Y0431851D01*
X0345388Y0431916D01*
X0345463Y0431977D01*
X0345541Y0432036D01*
X0345620Y0432091D01*
X0345702Y0432143D01*
X0345786Y0432191D01*
X0345872Y0432236D01*
X0345960Y0432278D01*
X0346049Y0432316D01*
X0346140Y0432350D01*
X0346232Y0432380D01*
X0346325Y0432407D01*
X0346420Y0432429D01*
X0346515Y0432448D01*
X0346611Y0432463D01*
X0346707Y0432474D01*
X0346804Y0432481D01*
X0346901Y0432484D01*
X0346998Y0432483D01*
X0347095Y0432478D01*
X0347191Y0432469D01*
X0347287Y0432456D01*
X0347383Y0432439D01*
X0347478Y0432418D01*
X0347571Y0432394D01*
X0347664Y0432365D01*
X0347756Y0432333D01*
X0347846Y0432297D01*
X0347934Y0432258D01*
X0348021Y0432214D01*
X0348106Y0432168D01*
X0348189Y0432117D01*
X0348270Y0432064D01*
X0348348Y0432007D01*
X0348425Y0431947D01*
X0348498Y0431884D01*
X0348569Y0431818D01*
X0348637Y0431749D01*
X0348703Y0431677D01*
X0348765Y0431603D01*
X0348824Y0431526D01*
X0348880Y0431447D01*
X0348933Y0431365D01*
X0348983Y0431282D01*
X0349028Y0431196D01*
X0349071Y0431109D01*
X0349110Y0431020D01*
X0349145Y0430930D01*
X0349176Y0430838D01*
X0349203Y0430745D01*
X0349227Y0430651D01*
X0349247Y0430556D01*
X0349263Y0430460D01*
X0349275Y0430364D01*
X0349283Y0430267D01*
X0349287Y0430170D01*
X0349287Y0430074D01*
X0349283Y0429977D01*
X0349275Y0429880D01*
X0349263Y0429784D01*
X0349247Y0429688D01*
X0349227Y0429593D01*
X0349203Y0429499D01*
X0349176Y0429406D01*
X0349145Y0429314D01*
X0349110Y0429224D01*
X0349071Y0429135D01*
X0349028Y0429048D01*
X0348983Y0428962D01*
X0348933Y0428879D01*
X0348880Y0428797D01*
X0348824Y0428718D01*
X0348765Y0428641D01*
X0348703Y0428567D01*
X0348637Y0428495D01*
X0348569Y0428426D01*
X0348498Y0428360D01*
X0348425Y0428297D01*
X0348348Y0428237D01*
X0348270Y0428180D01*
X0348189Y0428127D01*
X0348106Y0428076D01*
X0348021Y0428030D01*
X0347934Y0427986D01*
X0347846Y0427947D01*
X0347756Y0427911D01*
X0347664Y0427879D01*
X0347571Y0427850D01*
X0347478Y0427826D01*
X0347383Y0427805D01*
X0347287Y0427788D01*
X0347191Y0427775D01*
X0347095Y0427766D01*
X0346998Y0427761D01*
X0346901Y0427760D01*
X0346804Y0427763D01*
X0346707Y0427770D01*
X0346611Y0427781D01*
X0346515Y0427796D01*
X0346420Y0427815D01*
X0346325Y0427837D01*
X0346232Y0427864D01*
X0346140Y0427894D01*
X0346049Y0427928D01*
X0345960Y0427966D01*
X0345872Y0428008D01*
X0345786Y0428053D01*
X0345702Y0428101D01*
X0345620Y0428153D01*
X0345541Y0428208D01*
X0345463Y0428267D01*
X0345388Y0428328D01*
X0345316Y0428393D01*
X0345246Y0428460D01*
X0345179Y0428531D01*
X0345116Y0428604D01*
X0345055Y0428679D01*
X0344997Y0428757D01*
X0344943Y0428838D01*
X0344892Y0428920D01*
X0344844Y0429005D01*
X0344800Y0429091D01*
X0344759Y0429179D01*
X0344723Y0429269D01*
X0344689Y0429360D01*
X0344660Y0429452D01*
X0344634Y0429546D01*
X0344613Y0429640D01*
X0344595Y0429736D01*
X0344581Y0429832D01*
X0344571Y0429928D01*
X0344565Y0430025D01*
X0344563Y0430122D01*
X0344563Y0440122D02*
X0344565Y0440219D01*
X0344571Y0440316D01*
X0344581Y0440412D01*
X0344595Y0440508D01*
X0344613Y0440604D01*
X0344634Y0440698D01*
X0344660Y0440792D01*
X0344689Y0440884D01*
X0344723Y0440975D01*
X0344759Y0441065D01*
X0344800Y0441153D01*
X0344844Y0441239D01*
X0344892Y0441324D01*
X0344943Y0441406D01*
X0344997Y0441487D01*
X0345055Y0441565D01*
X0345116Y0441640D01*
X0345179Y0441713D01*
X0345246Y0441784D01*
X0345316Y0441851D01*
X0345388Y0441916D01*
X0345463Y0441977D01*
X0345541Y0442036D01*
X0345620Y0442091D01*
X0345702Y0442143D01*
X0345786Y0442191D01*
X0345872Y0442236D01*
X0345960Y0442278D01*
X0346049Y0442316D01*
X0346140Y0442350D01*
X0346232Y0442380D01*
X0346325Y0442407D01*
X0346420Y0442429D01*
X0346515Y0442448D01*
X0346611Y0442463D01*
X0346707Y0442474D01*
X0346804Y0442481D01*
X0346901Y0442484D01*
X0346998Y0442483D01*
X0347095Y0442478D01*
X0347191Y0442469D01*
X0347287Y0442456D01*
X0347383Y0442439D01*
X0347478Y0442418D01*
X0347571Y0442394D01*
X0347664Y0442365D01*
X0347756Y0442333D01*
X0347846Y0442297D01*
X0347934Y0442258D01*
X0348021Y0442214D01*
X0348106Y0442168D01*
X0348189Y0442117D01*
X0348270Y0442064D01*
X0348348Y0442007D01*
X0348425Y0441947D01*
X0348498Y0441884D01*
X0348569Y0441818D01*
X0348637Y0441749D01*
X0348703Y0441677D01*
X0348765Y0441603D01*
X0348824Y0441526D01*
X0348880Y0441447D01*
X0348933Y0441365D01*
X0348983Y0441282D01*
X0349028Y0441196D01*
X0349071Y0441109D01*
X0349110Y0441020D01*
X0349145Y0440930D01*
X0349176Y0440838D01*
X0349203Y0440745D01*
X0349227Y0440651D01*
X0349247Y0440556D01*
X0349263Y0440460D01*
X0349275Y0440364D01*
X0349283Y0440267D01*
X0349287Y0440170D01*
X0349287Y0440074D01*
X0349283Y0439977D01*
X0349275Y0439880D01*
X0349263Y0439784D01*
X0349247Y0439688D01*
X0349227Y0439593D01*
X0349203Y0439499D01*
X0349176Y0439406D01*
X0349145Y0439314D01*
X0349110Y0439224D01*
X0349071Y0439135D01*
X0349028Y0439048D01*
X0348983Y0438962D01*
X0348933Y0438879D01*
X0348880Y0438797D01*
X0348824Y0438718D01*
X0348765Y0438641D01*
X0348703Y0438567D01*
X0348637Y0438495D01*
X0348569Y0438426D01*
X0348498Y0438360D01*
X0348425Y0438297D01*
X0348348Y0438237D01*
X0348270Y0438180D01*
X0348189Y0438127D01*
X0348106Y0438076D01*
X0348021Y0438030D01*
X0347934Y0437986D01*
X0347846Y0437947D01*
X0347756Y0437911D01*
X0347664Y0437879D01*
X0347571Y0437850D01*
X0347478Y0437826D01*
X0347383Y0437805D01*
X0347287Y0437788D01*
X0347191Y0437775D01*
X0347095Y0437766D01*
X0346998Y0437761D01*
X0346901Y0437760D01*
X0346804Y0437763D01*
X0346707Y0437770D01*
X0346611Y0437781D01*
X0346515Y0437796D01*
X0346420Y0437815D01*
X0346325Y0437837D01*
X0346232Y0437864D01*
X0346140Y0437894D01*
X0346049Y0437928D01*
X0345960Y0437966D01*
X0345872Y0438008D01*
X0345786Y0438053D01*
X0345702Y0438101D01*
X0345620Y0438153D01*
X0345541Y0438208D01*
X0345463Y0438267D01*
X0345388Y0438328D01*
X0345316Y0438393D01*
X0345246Y0438460D01*
X0345179Y0438531D01*
X0345116Y0438604D01*
X0345055Y0438679D01*
X0344997Y0438757D01*
X0344943Y0438838D01*
X0344892Y0438920D01*
X0344844Y0439005D01*
X0344800Y0439091D01*
X0344759Y0439179D01*
X0344723Y0439269D01*
X0344689Y0439360D01*
X0344660Y0439452D01*
X0344634Y0439546D01*
X0344613Y0439640D01*
X0344595Y0439736D01*
X0344581Y0439832D01*
X0344571Y0439928D01*
X0344565Y0440025D01*
X0344563Y0440122D01*
X0344563Y0450122D02*
X0344565Y0450219D01*
X0344571Y0450316D01*
X0344581Y0450412D01*
X0344595Y0450508D01*
X0344613Y0450604D01*
X0344634Y0450698D01*
X0344660Y0450792D01*
X0344689Y0450884D01*
X0344723Y0450975D01*
X0344759Y0451065D01*
X0344800Y0451153D01*
X0344844Y0451239D01*
X0344892Y0451324D01*
X0344943Y0451406D01*
X0344997Y0451487D01*
X0345055Y0451565D01*
X0345116Y0451640D01*
X0345179Y0451713D01*
X0345246Y0451784D01*
X0345316Y0451851D01*
X0345388Y0451916D01*
X0345463Y0451977D01*
X0345541Y0452036D01*
X0345620Y0452091D01*
X0345702Y0452143D01*
X0345786Y0452191D01*
X0345872Y0452236D01*
X0345960Y0452278D01*
X0346049Y0452316D01*
X0346140Y0452350D01*
X0346232Y0452380D01*
X0346325Y0452407D01*
X0346420Y0452429D01*
X0346515Y0452448D01*
X0346611Y0452463D01*
X0346707Y0452474D01*
X0346804Y0452481D01*
X0346901Y0452484D01*
X0346998Y0452483D01*
X0347095Y0452478D01*
X0347191Y0452469D01*
X0347287Y0452456D01*
X0347383Y0452439D01*
X0347478Y0452418D01*
X0347571Y0452394D01*
X0347664Y0452365D01*
X0347756Y0452333D01*
X0347846Y0452297D01*
X0347934Y0452258D01*
X0348021Y0452214D01*
X0348106Y0452168D01*
X0348189Y0452117D01*
X0348270Y0452064D01*
X0348348Y0452007D01*
X0348425Y0451947D01*
X0348498Y0451884D01*
X0348569Y0451818D01*
X0348637Y0451749D01*
X0348703Y0451677D01*
X0348765Y0451603D01*
X0348824Y0451526D01*
X0348880Y0451447D01*
X0348933Y0451365D01*
X0348983Y0451282D01*
X0349028Y0451196D01*
X0349071Y0451109D01*
X0349110Y0451020D01*
X0349145Y0450930D01*
X0349176Y0450838D01*
X0349203Y0450745D01*
X0349227Y0450651D01*
X0349247Y0450556D01*
X0349263Y0450460D01*
X0349275Y0450364D01*
X0349283Y0450267D01*
X0349287Y0450170D01*
X0349287Y0450074D01*
X0349283Y0449977D01*
X0349275Y0449880D01*
X0349263Y0449784D01*
X0349247Y0449688D01*
X0349227Y0449593D01*
X0349203Y0449499D01*
X0349176Y0449406D01*
X0349145Y0449314D01*
X0349110Y0449224D01*
X0349071Y0449135D01*
X0349028Y0449048D01*
X0348983Y0448962D01*
X0348933Y0448879D01*
X0348880Y0448797D01*
X0348824Y0448718D01*
X0348765Y0448641D01*
X0348703Y0448567D01*
X0348637Y0448495D01*
X0348569Y0448426D01*
X0348498Y0448360D01*
X0348425Y0448297D01*
X0348348Y0448237D01*
X0348270Y0448180D01*
X0348189Y0448127D01*
X0348106Y0448076D01*
X0348021Y0448030D01*
X0347934Y0447986D01*
X0347846Y0447947D01*
X0347756Y0447911D01*
X0347664Y0447879D01*
X0347571Y0447850D01*
X0347478Y0447826D01*
X0347383Y0447805D01*
X0347287Y0447788D01*
X0347191Y0447775D01*
X0347095Y0447766D01*
X0346998Y0447761D01*
X0346901Y0447760D01*
X0346804Y0447763D01*
X0346707Y0447770D01*
X0346611Y0447781D01*
X0346515Y0447796D01*
X0346420Y0447815D01*
X0346325Y0447837D01*
X0346232Y0447864D01*
X0346140Y0447894D01*
X0346049Y0447928D01*
X0345960Y0447966D01*
X0345872Y0448008D01*
X0345786Y0448053D01*
X0345702Y0448101D01*
X0345620Y0448153D01*
X0345541Y0448208D01*
X0345463Y0448267D01*
X0345388Y0448328D01*
X0345316Y0448393D01*
X0345246Y0448460D01*
X0345179Y0448531D01*
X0345116Y0448604D01*
X0345055Y0448679D01*
X0344997Y0448757D01*
X0344943Y0448838D01*
X0344892Y0448920D01*
X0344844Y0449005D01*
X0344800Y0449091D01*
X0344759Y0449179D01*
X0344723Y0449269D01*
X0344689Y0449360D01*
X0344660Y0449452D01*
X0344634Y0449546D01*
X0344613Y0449640D01*
X0344595Y0449736D01*
X0344581Y0449832D01*
X0344571Y0449928D01*
X0344565Y0450025D01*
X0344563Y0450122D01*
X0344563Y0460122D02*
X0344565Y0460219D01*
X0344571Y0460316D01*
X0344581Y0460412D01*
X0344595Y0460508D01*
X0344613Y0460604D01*
X0344634Y0460698D01*
X0344660Y0460792D01*
X0344689Y0460884D01*
X0344723Y0460975D01*
X0344759Y0461065D01*
X0344800Y0461153D01*
X0344844Y0461239D01*
X0344892Y0461324D01*
X0344943Y0461406D01*
X0344997Y0461487D01*
X0345055Y0461565D01*
X0345116Y0461640D01*
X0345179Y0461713D01*
X0345246Y0461784D01*
X0345316Y0461851D01*
X0345388Y0461916D01*
X0345463Y0461977D01*
X0345541Y0462036D01*
X0345620Y0462091D01*
X0345702Y0462143D01*
X0345786Y0462191D01*
X0345872Y0462236D01*
X0345960Y0462278D01*
X0346049Y0462316D01*
X0346140Y0462350D01*
X0346232Y0462380D01*
X0346325Y0462407D01*
X0346420Y0462429D01*
X0346515Y0462448D01*
X0346611Y0462463D01*
X0346707Y0462474D01*
X0346804Y0462481D01*
X0346901Y0462484D01*
X0346998Y0462483D01*
X0347095Y0462478D01*
X0347191Y0462469D01*
X0347287Y0462456D01*
X0347383Y0462439D01*
X0347478Y0462418D01*
X0347571Y0462394D01*
X0347664Y0462365D01*
X0347756Y0462333D01*
X0347846Y0462297D01*
X0347934Y0462258D01*
X0348021Y0462214D01*
X0348106Y0462168D01*
X0348189Y0462117D01*
X0348270Y0462064D01*
X0348348Y0462007D01*
X0348425Y0461947D01*
X0348498Y0461884D01*
X0348569Y0461818D01*
X0348637Y0461749D01*
X0348703Y0461677D01*
X0348765Y0461603D01*
X0348824Y0461526D01*
X0348880Y0461447D01*
X0348933Y0461365D01*
X0348983Y0461282D01*
X0349028Y0461196D01*
X0349071Y0461109D01*
X0349110Y0461020D01*
X0349145Y0460930D01*
X0349176Y0460838D01*
X0349203Y0460745D01*
X0349227Y0460651D01*
X0349247Y0460556D01*
X0349263Y0460460D01*
X0349275Y0460364D01*
X0349283Y0460267D01*
X0349287Y0460170D01*
X0349287Y0460074D01*
X0349283Y0459977D01*
X0349275Y0459880D01*
X0349263Y0459784D01*
X0349247Y0459688D01*
X0349227Y0459593D01*
X0349203Y0459499D01*
X0349176Y0459406D01*
X0349145Y0459314D01*
X0349110Y0459224D01*
X0349071Y0459135D01*
X0349028Y0459048D01*
X0348983Y0458962D01*
X0348933Y0458879D01*
X0348880Y0458797D01*
X0348824Y0458718D01*
X0348765Y0458641D01*
X0348703Y0458567D01*
X0348637Y0458495D01*
X0348569Y0458426D01*
X0348498Y0458360D01*
X0348425Y0458297D01*
X0348348Y0458237D01*
X0348270Y0458180D01*
X0348189Y0458127D01*
X0348106Y0458076D01*
X0348021Y0458030D01*
X0347934Y0457986D01*
X0347846Y0457947D01*
X0347756Y0457911D01*
X0347664Y0457879D01*
X0347571Y0457850D01*
X0347478Y0457826D01*
X0347383Y0457805D01*
X0347287Y0457788D01*
X0347191Y0457775D01*
X0347095Y0457766D01*
X0346998Y0457761D01*
X0346901Y0457760D01*
X0346804Y0457763D01*
X0346707Y0457770D01*
X0346611Y0457781D01*
X0346515Y0457796D01*
X0346420Y0457815D01*
X0346325Y0457837D01*
X0346232Y0457864D01*
X0346140Y0457894D01*
X0346049Y0457928D01*
X0345960Y0457966D01*
X0345872Y0458008D01*
X0345786Y0458053D01*
X0345702Y0458101D01*
X0345620Y0458153D01*
X0345541Y0458208D01*
X0345463Y0458267D01*
X0345388Y0458328D01*
X0345316Y0458393D01*
X0345246Y0458460D01*
X0345179Y0458531D01*
X0345116Y0458604D01*
X0345055Y0458679D01*
X0344997Y0458757D01*
X0344943Y0458838D01*
X0344892Y0458920D01*
X0344844Y0459005D01*
X0344800Y0459091D01*
X0344759Y0459179D01*
X0344723Y0459269D01*
X0344689Y0459360D01*
X0344660Y0459452D01*
X0344634Y0459546D01*
X0344613Y0459640D01*
X0344595Y0459736D01*
X0344581Y0459832D01*
X0344571Y0459928D01*
X0344565Y0460025D01*
X0344563Y0460122D01*
X0344563Y0470122D02*
X0344565Y0470219D01*
X0344571Y0470316D01*
X0344581Y0470412D01*
X0344595Y0470508D01*
X0344613Y0470604D01*
X0344634Y0470698D01*
X0344660Y0470792D01*
X0344689Y0470884D01*
X0344723Y0470975D01*
X0344759Y0471065D01*
X0344800Y0471153D01*
X0344844Y0471239D01*
X0344892Y0471324D01*
X0344943Y0471406D01*
X0344997Y0471487D01*
X0345055Y0471565D01*
X0345116Y0471640D01*
X0345179Y0471713D01*
X0345246Y0471784D01*
X0345316Y0471851D01*
X0345388Y0471916D01*
X0345463Y0471977D01*
X0345541Y0472036D01*
X0345620Y0472091D01*
X0345702Y0472143D01*
X0345786Y0472191D01*
X0345872Y0472236D01*
X0345960Y0472278D01*
X0346049Y0472316D01*
X0346140Y0472350D01*
X0346232Y0472380D01*
X0346325Y0472407D01*
X0346420Y0472429D01*
X0346515Y0472448D01*
X0346611Y0472463D01*
X0346707Y0472474D01*
X0346804Y0472481D01*
X0346901Y0472484D01*
X0346998Y0472483D01*
X0347095Y0472478D01*
X0347191Y0472469D01*
X0347287Y0472456D01*
X0347383Y0472439D01*
X0347478Y0472418D01*
X0347571Y0472394D01*
X0347664Y0472365D01*
X0347756Y0472333D01*
X0347846Y0472297D01*
X0347934Y0472258D01*
X0348021Y0472214D01*
X0348106Y0472168D01*
X0348189Y0472117D01*
X0348270Y0472064D01*
X0348348Y0472007D01*
X0348425Y0471947D01*
X0348498Y0471884D01*
X0348569Y0471818D01*
X0348637Y0471749D01*
X0348703Y0471677D01*
X0348765Y0471603D01*
X0348824Y0471526D01*
X0348880Y0471447D01*
X0348933Y0471365D01*
X0348983Y0471282D01*
X0349028Y0471196D01*
X0349071Y0471109D01*
X0349110Y0471020D01*
X0349145Y0470930D01*
X0349176Y0470838D01*
X0349203Y0470745D01*
X0349227Y0470651D01*
X0349247Y0470556D01*
X0349263Y0470460D01*
X0349275Y0470364D01*
X0349283Y0470267D01*
X0349287Y0470170D01*
X0349287Y0470074D01*
X0349283Y0469977D01*
X0349275Y0469880D01*
X0349263Y0469784D01*
X0349247Y0469688D01*
X0349227Y0469593D01*
X0349203Y0469499D01*
X0349176Y0469406D01*
X0349145Y0469314D01*
X0349110Y0469224D01*
X0349071Y0469135D01*
X0349028Y0469048D01*
X0348983Y0468962D01*
X0348933Y0468879D01*
X0348880Y0468797D01*
X0348824Y0468718D01*
X0348765Y0468641D01*
X0348703Y0468567D01*
X0348637Y0468495D01*
X0348569Y0468426D01*
X0348498Y0468360D01*
X0348425Y0468297D01*
X0348348Y0468237D01*
X0348270Y0468180D01*
X0348189Y0468127D01*
X0348106Y0468076D01*
X0348021Y0468030D01*
X0347934Y0467986D01*
X0347846Y0467947D01*
X0347756Y0467911D01*
X0347664Y0467879D01*
X0347571Y0467850D01*
X0347478Y0467826D01*
X0347383Y0467805D01*
X0347287Y0467788D01*
X0347191Y0467775D01*
X0347095Y0467766D01*
X0346998Y0467761D01*
X0346901Y0467760D01*
X0346804Y0467763D01*
X0346707Y0467770D01*
X0346611Y0467781D01*
X0346515Y0467796D01*
X0346420Y0467815D01*
X0346325Y0467837D01*
X0346232Y0467864D01*
X0346140Y0467894D01*
X0346049Y0467928D01*
X0345960Y0467966D01*
X0345872Y0468008D01*
X0345786Y0468053D01*
X0345702Y0468101D01*
X0345620Y0468153D01*
X0345541Y0468208D01*
X0345463Y0468267D01*
X0345388Y0468328D01*
X0345316Y0468393D01*
X0345246Y0468460D01*
X0345179Y0468531D01*
X0345116Y0468604D01*
X0345055Y0468679D01*
X0344997Y0468757D01*
X0344943Y0468838D01*
X0344892Y0468920D01*
X0344844Y0469005D01*
X0344800Y0469091D01*
X0344759Y0469179D01*
X0344723Y0469269D01*
X0344689Y0469360D01*
X0344660Y0469452D01*
X0344634Y0469546D01*
X0344613Y0469640D01*
X0344595Y0469736D01*
X0344581Y0469832D01*
X0344571Y0469928D01*
X0344565Y0470025D01*
X0344563Y0470122D01*
X0344563Y0480122D02*
X0344565Y0480219D01*
X0344571Y0480316D01*
X0344581Y0480412D01*
X0344595Y0480508D01*
X0344613Y0480604D01*
X0344634Y0480698D01*
X0344660Y0480792D01*
X0344689Y0480884D01*
X0344723Y0480975D01*
X0344759Y0481065D01*
X0344800Y0481153D01*
X0344844Y0481239D01*
X0344892Y0481324D01*
X0344943Y0481406D01*
X0344997Y0481487D01*
X0345055Y0481565D01*
X0345116Y0481640D01*
X0345179Y0481713D01*
X0345246Y0481784D01*
X0345316Y0481851D01*
X0345388Y0481916D01*
X0345463Y0481977D01*
X0345541Y0482036D01*
X0345620Y0482091D01*
X0345702Y0482143D01*
X0345786Y0482191D01*
X0345872Y0482236D01*
X0345960Y0482278D01*
X0346049Y0482316D01*
X0346140Y0482350D01*
X0346232Y0482380D01*
X0346325Y0482407D01*
X0346420Y0482429D01*
X0346515Y0482448D01*
X0346611Y0482463D01*
X0346707Y0482474D01*
X0346804Y0482481D01*
X0346901Y0482484D01*
X0346998Y0482483D01*
X0347095Y0482478D01*
X0347191Y0482469D01*
X0347287Y0482456D01*
X0347383Y0482439D01*
X0347478Y0482418D01*
X0347571Y0482394D01*
X0347664Y0482365D01*
X0347756Y0482333D01*
X0347846Y0482297D01*
X0347934Y0482258D01*
X0348021Y0482214D01*
X0348106Y0482168D01*
X0348189Y0482117D01*
X0348270Y0482064D01*
X0348348Y0482007D01*
X0348425Y0481947D01*
X0348498Y0481884D01*
X0348569Y0481818D01*
X0348637Y0481749D01*
X0348703Y0481677D01*
X0348765Y0481603D01*
X0348824Y0481526D01*
X0348880Y0481447D01*
X0348933Y0481365D01*
X0348983Y0481282D01*
X0349028Y0481196D01*
X0349071Y0481109D01*
X0349110Y0481020D01*
X0349145Y0480930D01*
X0349176Y0480838D01*
X0349203Y0480745D01*
X0349227Y0480651D01*
X0349247Y0480556D01*
X0349263Y0480460D01*
X0349275Y0480364D01*
X0349283Y0480267D01*
X0349287Y0480170D01*
X0349287Y0480074D01*
X0349283Y0479977D01*
X0349275Y0479880D01*
X0349263Y0479784D01*
X0349247Y0479688D01*
X0349227Y0479593D01*
X0349203Y0479499D01*
X0349176Y0479406D01*
X0349145Y0479314D01*
X0349110Y0479224D01*
X0349071Y0479135D01*
X0349028Y0479048D01*
X0348983Y0478962D01*
X0348933Y0478879D01*
X0348880Y0478797D01*
X0348824Y0478718D01*
X0348765Y0478641D01*
X0348703Y0478567D01*
X0348637Y0478495D01*
X0348569Y0478426D01*
X0348498Y0478360D01*
X0348425Y0478297D01*
X0348348Y0478237D01*
X0348270Y0478180D01*
X0348189Y0478127D01*
X0348106Y0478076D01*
X0348021Y0478030D01*
X0347934Y0477986D01*
X0347846Y0477947D01*
X0347756Y0477911D01*
X0347664Y0477879D01*
X0347571Y0477850D01*
X0347478Y0477826D01*
X0347383Y0477805D01*
X0347287Y0477788D01*
X0347191Y0477775D01*
X0347095Y0477766D01*
X0346998Y0477761D01*
X0346901Y0477760D01*
X0346804Y0477763D01*
X0346707Y0477770D01*
X0346611Y0477781D01*
X0346515Y0477796D01*
X0346420Y0477815D01*
X0346325Y0477837D01*
X0346232Y0477864D01*
X0346140Y0477894D01*
X0346049Y0477928D01*
X0345960Y0477966D01*
X0345872Y0478008D01*
X0345786Y0478053D01*
X0345702Y0478101D01*
X0345620Y0478153D01*
X0345541Y0478208D01*
X0345463Y0478267D01*
X0345388Y0478328D01*
X0345316Y0478393D01*
X0345246Y0478460D01*
X0345179Y0478531D01*
X0345116Y0478604D01*
X0345055Y0478679D01*
X0344997Y0478757D01*
X0344943Y0478838D01*
X0344892Y0478920D01*
X0344844Y0479005D01*
X0344800Y0479091D01*
X0344759Y0479179D01*
X0344723Y0479269D01*
X0344689Y0479360D01*
X0344660Y0479452D01*
X0344634Y0479546D01*
X0344613Y0479640D01*
X0344595Y0479736D01*
X0344581Y0479832D01*
X0344571Y0479928D01*
X0344565Y0480025D01*
X0344563Y0480122D01*
X0344563Y0490122D02*
X0344565Y0490219D01*
X0344571Y0490316D01*
X0344581Y0490412D01*
X0344595Y0490508D01*
X0344613Y0490604D01*
X0344634Y0490698D01*
X0344660Y0490792D01*
X0344689Y0490884D01*
X0344723Y0490975D01*
X0344759Y0491065D01*
X0344800Y0491153D01*
X0344844Y0491239D01*
X0344892Y0491324D01*
X0344943Y0491406D01*
X0344997Y0491487D01*
X0345055Y0491565D01*
X0345116Y0491640D01*
X0345179Y0491713D01*
X0345246Y0491784D01*
X0345316Y0491851D01*
X0345388Y0491916D01*
X0345463Y0491977D01*
X0345541Y0492036D01*
X0345620Y0492091D01*
X0345702Y0492143D01*
X0345786Y0492191D01*
X0345872Y0492236D01*
X0345960Y0492278D01*
X0346049Y0492316D01*
X0346140Y0492350D01*
X0346232Y0492380D01*
X0346325Y0492407D01*
X0346420Y0492429D01*
X0346515Y0492448D01*
X0346611Y0492463D01*
X0346707Y0492474D01*
X0346804Y0492481D01*
X0346901Y0492484D01*
X0346998Y0492483D01*
X0347095Y0492478D01*
X0347191Y0492469D01*
X0347287Y0492456D01*
X0347383Y0492439D01*
X0347478Y0492418D01*
X0347571Y0492394D01*
X0347664Y0492365D01*
X0347756Y0492333D01*
X0347846Y0492297D01*
X0347934Y0492258D01*
X0348021Y0492214D01*
X0348106Y0492168D01*
X0348189Y0492117D01*
X0348270Y0492064D01*
X0348348Y0492007D01*
X0348425Y0491947D01*
X0348498Y0491884D01*
X0348569Y0491818D01*
X0348637Y0491749D01*
X0348703Y0491677D01*
X0348765Y0491603D01*
X0348824Y0491526D01*
X0348880Y0491447D01*
X0348933Y0491365D01*
X0348983Y0491282D01*
X0349028Y0491196D01*
X0349071Y0491109D01*
X0349110Y0491020D01*
X0349145Y0490930D01*
X0349176Y0490838D01*
X0349203Y0490745D01*
X0349227Y0490651D01*
X0349247Y0490556D01*
X0349263Y0490460D01*
X0349275Y0490364D01*
X0349283Y0490267D01*
X0349287Y0490170D01*
X0349287Y0490074D01*
X0349283Y0489977D01*
X0349275Y0489880D01*
X0349263Y0489784D01*
X0349247Y0489688D01*
X0349227Y0489593D01*
X0349203Y0489499D01*
X0349176Y0489406D01*
X0349145Y0489314D01*
X0349110Y0489224D01*
X0349071Y0489135D01*
X0349028Y0489048D01*
X0348983Y0488962D01*
X0348933Y0488879D01*
X0348880Y0488797D01*
X0348824Y0488718D01*
X0348765Y0488641D01*
X0348703Y0488567D01*
X0348637Y0488495D01*
X0348569Y0488426D01*
X0348498Y0488360D01*
X0348425Y0488297D01*
X0348348Y0488237D01*
X0348270Y0488180D01*
X0348189Y0488127D01*
X0348106Y0488076D01*
X0348021Y0488030D01*
X0347934Y0487986D01*
X0347846Y0487947D01*
X0347756Y0487911D01*
X0347664Y0487879D01*
X0347571Y0487850D01*
X0347478Y0487826D01*
X0347383Y0487805D01*
X0347287Y0487788D01*
X0347191Y0487775D01*
X0347095Y0487766D01*
X0346998Y0487761D01*
X0346901Y0487760D01*
X0346804Y0487763D01*
X0346707Y0487770D01*
X0346611Y0487781D01*
X0346515Y0487796D01*
X0346420Y0487815D01*
X0346325Y0487837D01*
X0346232Y0487864D01*
X0346140Y0487894D01*
X0346049Y0487928D01*
X0345960Y0487966D01*
X0345872Y0488008D01*
X0345786Y0488053D01*
X0345702Y0488101D01*
X0345620Y0488153D01*
X0345541Y0488208D01*
X0345463Y0488267D01*
X0345388Y0488328D01*
X0345316Y0488393D01*
X0345246Y0488460D01*
X0345179Y0488531D01*
X0345116Y0488604D01*
X0345055Y0488679D01*
X0344997Y0488757D01*
X0344943Y0488838D01*
X0344892Y0488920D01*
X0344844Y0489005D01*
X0344800Y0489091D01*
X0344759Y0489179D01*
X0344723Y0489269D01*
X0344689Y0489360D01*
X0344660Y0489452D01*
X0344634Y0489546D01*
X0344613Y0489640D01*
X0344595Y0489736D01*
X0344581Y0489832D01*
X0344571Y0489928D01*
X0344565Y0490025D01*
X0344563Y0490122D01*
X0344563Y0500122D02*
X0344565Y0500219D01*
X0344571Y0500316D01*
X0344581Y0500412D01*
X0344595Y0500508D01*
X0344613Y0500604D01*
X0344634Y0500698D01*
X0344660Y0500792D01*
X0344689Y0500884D01*
X0344723Y0500975D01*
X0344759Y0501065D01*
X0344800Y0501153D01*
X0344844Y0501239D01*
X0344892Y0501324D01*
X0344943Y0501406D01*
X0344997Y0501487D01*
X0345055Y0501565D01*
X0345116Y0501640D01*
X0345179Y0501713D01*
X0345246Y0501784D01*
X0345316Y0501851D01*
X0345388Y0501916D01*
X0345463Y0501977D01*
X0345541Y0502036D01*
X0345620Y0502091D01*
X0345702Y0502143D01*
X0345786Y0502191D01*
X0345872Y0502236D01*
X0345960Y0502278D01*
X0346049Y0502316D01*
X0346140Y0502350D01*
X0346232Y0502380D01*
X0346325Y0502407D01*
X0346420Y0502429D01*
X0346515Y0502448D01*
X0346611Y0502463D01*
X0346707Y0502474D01*
X0346804Y0502481D01*
X0346901Y0502484D01*
X0346998Y0502483D01*
X0347095Y0502478D01*
X0347191Y0502469D01*
X0347287Y0502456D01*
X0347383Y0502439D01*
X0347478Y0502418D01*
X0347571Y0502394D01*
X0347664Y0502365D01*
X0347756Y0502333D01*
X0347846Y0502297D01*
X0347934Y0502258D01*
X0348021Y0502214D01*
X0348106Y0502168D01*
X0348189Y0502117D01*
X0348270Y0502064D01*
X0348348Y0502007D01*
X0348425Y0501947D01*
X0348498Y0501884D01*
X0348569Y0501818D01*
X0348637Y0501749D01*
X0348703Y0501677D01*
X0348765Y0501603D01*
X0348824Y0501526D01*
X0348880Y0501447D01*
X0348933Y0501365D01*
X0348983Y0501282D01*
X0349028Y0501196D01*
X0349071Y0501109D01*
X0349110Y0501020D01*
X0349145Y0500930D01*
X0349176Y0500838D01*
X0349203Y0500745D01*
X0349227Y0500651D01*
X0349247Y0500556D01*
X0349263Y0500460D01*
X0349275Y0500364D01*
X0349283Y0500267D01*
X0349287Y0500170D01*
X0349287Y0500074D01*
X0349283Y0499977D01*
X0349275Y0499880D01*
X0349263Y0499784D01*
X0349247Y0499688D01*
X0349227Y0499593D01*
X0349203Y0499499D01*
X0349176Y0499406D01*
X0349145Y0499314D01*
X0349110Y0499224D01*
X0349071Y0499135D01*
X0349028Y0499048D01*
X0348983Y0498962D01*
X0348933Y0498879D01*
X0348880Y0498797D01*
X0348824Y0498718D01*
X0348765Y0498641D01*
X0348703Y0498567D01*
X0348637Y0498495D01*
X0348569Y0498426D01*
X0348498Y0498360D01*
X0348425Y0498297D01*
X0348348Y0498237D01*
X0348270Y0498180D01*
X0348189Y0498127D01*
X0348106Y0498076D01*
X0348021Y0498030D01*
X0347934Y0497986D01*
X0347846Y0497947D01*
X0347756Y0497911D01*
X0347664Y0497879D01*
X0347571Y0497850D01*
X0347478Y0497826D01*
X0347383Y0497805D01*
X0347287Y0497788D01*
X0347191Y0497775D01*
X0347095Y0497766D01*
X0346998Y0497761D01*
X0346901Y0497760D01*
X0346804Y0497763D01*
X0346707Y0497770D01*
X0346611Y0497781D01*
X0346515Y0497796D01*
X0346420Y0497815D01*
X0346325Y0497837D01*
X0346232Y0497864D01*
X0346140Y0497894D01*
X0346049Y0497928D01*
X0345960Y0497966D01*
X0345872Y0498008D01*
X0345786Y0498053D01*
X0345702Y0498101D01*
X0345620Y0498153D01*
X0345541Y0498208D01*
X0345463Y0498267D01*
X0345388Y0498328D01*
X0345316Y0498393D01*
X0345246Y0498460D01*
X0345179Y0498531D01*
X0345116Y0498604D01*
X0345055Y0498679D01*
X0344997Y0498757D01*
X0344943Y0498838D01*
X0344892Y0498920D01*
X0344844Y0499005D01*
X0344800Y0499091D01*
X0344759Y0499179D01*
X0344723Y0499269D01*
X0344689Y0499360D01*
X0344660Y0499452D01*
X0344634Y0499546D01*
X0344613Y0499640D01*
X0344595Y0499736D01*
X0344581Y0499832D01*
X0344571Y0499928D01*
X0344565Y0500025D01*
X0344563Y0500122D01*
X0354563Y0510122D02*
X0354565Y0510219D01*
X0354571Y0510316D01*
X0354581Y0510412D01*
X0354595Y0510508D01*
X0354613Y0510604D01*
X0354634Y0510698D01*
X0354660Y0510792D01*
X0354689Y0510884D01*
X0354723Y0510975D01*
X0354759Y0511065D01*
X0354800Y0511153D01*
X0354844Y0511239D01*
X0354892Y0511324D01*
X0354943Y0511406D01*
X0354997Y0511487D01*
X0355055Y0511565D01*
X0355116Y0511640D01*
X0355179Y0511713D01*
X0355246Y0511784D01*
X0355316Y0511851D01*
X0355388Y0511916D01*
X0355463Y0511977D01*
X0355541Y0512036D01*
X0355620Y0512091D01*
X0355702Y0512143D01*
X0355786Y0512191D01*
X0355872Y0512236D01*
X0355960Y0512278D01*
X0356049Y0512316D01*
X0356140Y0512350D01*
X0356232Y0512380D01*
X0356325Y0512407D01*
X0356420Y0512429D01*
X0356515Y0512448D01*
X0356611Y0512463D01*
X0356707Y0512474D01*
X0356804Y0512481D01*
X0356901Y0512484D01*
X0356998Y0512483D01*
X0357095Y0512478D01*
X0357191Y0512469D01*
X0357287Y0512456D01*
X0357383Y0512439D01*
X0357478Y0512418D01*
X0357571Y0512394D01*
X0357664Y0512365D01*
X0357756Y0512333D01*
X0357846Y0512297D01*
X0357934Y0512258D01*
X0358021Y0512214D01*
X0358106Y0512168D01*
X0358189Y0512117D01*
X0358270Y0512064D01*
X0358348Y0512007D01*
X0358425Y0511947D01*
X0358498Y0511884D01*
X0358569Y0511818D01*
X0358637Y0511749D01*
X0358703Y0511677D01*
X0358765Y0511603D01*
X0358824Y0511526D01*
X0358880Y0511447D01*
X0358933Y0511365D01*
X0358983Y0511282D01*
X0359028Y0511196D01*
X0359071Y0511109D01*
X0359110Y0511020D01*
X0359145Y0510930D01*
X0359176Y0510838D01*
X0359203Y0510745D01*
X0359227Y0510651D01*
X0359247Y0510556D01*
X0359263Y0510460D01*
X0359275Y0510364D01*
X0359283Y0510267D01*
X0359287Y0510170D01*
X0359287Y0510074D01*
X0359283Y0509977D01*
X0359275Y0509880D01*
X0359263Y0509784D01*
X0359247Y0509688D01*
X0359227Y0509593D01*
X0359203Y0509499D01*
X0359176Y0509406D01*
X0359145Y0509314D01*
X0359110Y0509224D01*
X0359071Y0509135D01*
X0359028Y0509048D01*
X0358983Y0508962D01*
X0358933Y0508879D01*
X0358880Y0508797D01*
X0358824Y0508718D01*
X0358765Y0508641D01*
X0358703Y0508567D01*
X0358637Y0508495D01*
X0358569Y0508426D01*
X0358498Y0508360D01*
X0358425Y0508297D01*
X0358348Y0508237D01*
X0358270Y0508180D01*
X0358189Y0508127D01*
X0358106Y0508076D01*
X0358021Y0508030D01*
X0357934Y0507986D01*
X0357846Y0507947D01*
X0357756Y0507911D01*
X0357664Y0507879D01*
X0357571Y0507850D01*
X0357478Y0507826D01*
X0357383Y0507805D01*
X0357287Y0507788D01*
X0357191Y0507775D01*
X0357095Y0507766D01*
X0356998Y0507761D01*
X0356901Y0507760D01*
X0356804Y0507763D01*
X0356707Y0507770D01*
X0356611Y0507781D01*
X0356515Y0507796D01*
X0356420Y0507815D01*
X0356325Y0507837D01*
X0356232Y0507864D01*
X0356140Y0507894D01*
X0356049Y0507928D01*
X0355960Y0507966D01*
X0355872Y0508008D01*
X0355786Y0508053D01*
X0355702Y0508101D01*
X0355620Y0508153D01*
X0355541Y0508208D01*
X0355463Y0508267D01*
X0355388Y0508328D01*
X0355316Y0508393D01*
X0355246Y0508460D01*
X0355179Y0508531D01*
X0355116Y0508604D01*
X0355055Y0508679D01*
X0354997Y0508757D01*
X0354943Y0508838D01*
X0354892Y0508920D01*
X0354844Y0509005D01*
X0354800Y0509091D01*
X0354759Y0509179D01*
X0354723Y0509269D01*
X0354689Y0509360D01*
X0354660Y0509452D01*
X0354634Y0509546D01*
X0354613Y0509640D01*
X0354595Y0509736D01*
X0354581Y0509832D01*
X0354571Y0509928D01*
X0354565Y0510025D01*
X0354563Y0510122D01*
D11*
X0242307Y0395234D02*
X0238370Y0397202D01*
X0238370Y0393265D01*
X0242307Y0395234D01*
X0286323Y0335828D02*
X0297347Y0335828D01*
X0297347Y0324804D01*
X0286323Y0324804D01*
X0286323Y0335828D01*
X0287504Y0333466D02*
X0289867Y0333466D01*
X0289865Y0333533D01*
X0289859Y0333601D01*
X0289850Y0333667D01*
X0289836Y0333733D01*
X0289819Y0333799D01*
X0289798Y0333863D01*
X0289774Y0333926D01*
X0289746Y0333987D01*
X0289714Y0334047D01*
X0289680Y0334104D01*
X0289641Y0334160D01*
X0289600Y0334214D01*
X0289556Y0334265D01*
X0289509Y0334313D01*
X0289459Y0334359D01*
X0289407Y0334401D01*
X0289353Y0334441D01*
X0289296Y0334477D01*
X0289237Y0334511D01*
X0289177Y0334540D01*
X0289114Y0334567D01*
X0289051Y0334589D01*
X0288986Y0334608D01*
X0288921Y0334623D01*
X0288854Y0334635D01*
X0288787Y0334643D01*
X0288720Y0334647D01*
X0288652Y0334647D01*
X0288585Y0334643D01*
X0288518Y0334635D01*
X0288451Y0334623D01*
X0288386Y0334608D01*
X0288321Y0334589D01*
X0288258Y0334567D01*
X0288195Y0334540D01*
X0288135Y0334511D01*
X0288076Y0334477D01*
X0288019Y0334441D01*
X0287965Y0334401D01*
X0287913Y0334359D01*
X0287863Y0334313D01*
X0287816Y0334265D01*
X0287772Y0334214D01*
X0287731Y0334160D01*
X0287692Y0334104D01*
X0287658Y0334047D01*
X0287626Y0333987D01*
X0287598Y0333926D01*
X0287574Y0333863D01*
X0287553Y0333799D01*
X0287536Y0333733D01*
X0287522Y0333667D01*
X0287513Y0333601D01*
X0287507Y0333533D01*
X0287505Y0333466D01*
X0316514Y0345815D02*
X0323601Y0345815D01*
X0323601Y0350539D02*
X0316514Y0350539D01*
X0197292Y0233479D02*
X0193355Y0235841D01*
X0193355Y0231116D01*
X0197292Y0233479D01*
X0115492Y0145083D02*
X0115492Y0131083D01*
X0089689Y0131083D01*
X0089689Y0145083D01*
X0115492Y0145083D01*
X0117953Y0106813D02*
X0112835Y0106813D01*
X0117953Y0106813D02*
X0121497Y0103270D01*
X0121497Y0080829D01*
X0112835Y0080829D01*
X0104174Y0080829D02*
X0095512Y0080829D01*
X0095512Y0103270D01*
X0099056Y0106813D01*
X0104174Y0106813D01*
X0112245Y0105435D02*
X0112526Y0105341D01*
X0112805Y0105239D01*
X0113081Y0105131D01*
X0113354Y0105016D01*
X0113625Y0104895D01*
X0113892Y0104767D01*
X0114157Y0104632D01*
X0114418Y0104491D01*
X0114675Y0104344D01*
X0114929Y0104191D01*
X0115179Y0104031D01*
X0115425Y0103866D01*
X0115667Y0103694D01*
X0115904Y0103517D01*
X0116138Y0103334D01*
X0116366Y0103145D01*
X0116591Y0102950D01*
X0116810Y0102751D01*
X0117024Y0102546D01*
X0117233Y0102336D01*
X0117437Y0102121D01*
X0117636Y0101900D01*
X0117830Y0101676D01*
X0118017Y0101446D01*
X0118200Y0101212D01*
X0118376Y0100974D01*
X0118547Y0100731D01*
X0118711Y0100485D01*
X0118870Y0100234D01*
X0119022Y0099980D01*
X0119168Y0099721D01*
X0119308Y0099460D01*
X0119442Y0099195D01*
X0119569Y0098927D01*
X0119689Y0098656D01*
X0119803Y0098382D01*
X0119910Y0098106D01*
X0120010Y0097826D01*
X0120103Y0097545D01*
X0120190Y0097261D01*
X0120269Y0096976D01*
X0120342Y0096688D01*
X0120408Y0096399D01*
X0120466Y0096108D01*
X0120517Y0095816D01*
X0120562Y0095523D01*
X0120599Y0095229D01*
X0120629Y0094934D01*
X0120652Y0094638D01*
X0120667Y0094342D01*
X0120675Y0094045D01*
X0120677Y0093749D01*
X0120670Y0093452D01*
X0120657Y0093156D01*
X0120637Y0092860D01*
X0120609Y0092565D01*
X0120574Y0092271D01*
X0120532Y0091977D01*
X0120482Y0091685D01*
X0120426Y0091393D01*
X0120363Y0091104D01*
X0120292Y0090816D01*
X0120215Y0090529D01*
X0120130Y0090245D01*
X0120039Y0089963D01*
X0119941Y0089683D01*
X0119836Y0089406D01*
X0119724Y0089131D01*
X0119606Y0088859D01*
X0119481Y0088590D01*
X0119349Y0088324D01*
X0119212Y0088062D01*
X0119067Y0087803D01*
X0118917Y0087547D01*
X0118760Y0087295D01*
X0118597Y0087047D01*
X0118429Y0086804D01*
X0118254Y0086564D01*
X0118073Y0086329D01*
X0117887Y0086098D01*
X0117696Y0085871D01*
X0117499Y0085650D01*
X0117296Y0085433D01*
X0117088Y0085222D01*
X0116876Y0085015D01*
X0116658Y0084814D01*
X0116435Y0084618D01*
X0116208Y0084427D01*
X0115976Y0084242D01*
X0115740Y0084063D01*
X0115499Y0083890D01*
X0115254Y0083723D01*
X0115005Y0083561D01*
X0114753Y0083406D01*
X0114496Y0083257D01*
X0114237Y0083114D01*
X0113973Y0082977D01*
X0113707Y0082847D01*
X0113437Y0082724D01*
X0113165Y0082607D01*
X0112889Y0082497D01*
X0112611Y0082394D01*
X0112331Y0082297D01*
X0112048Y0082207D01*
X0104765Y0082207D02*
X0104484Y0082301D01*
X0104205Y0082403D01*
X0103929Y0082511D01*
X0103656Y0082626D01*
X0103385Y0082747D01*
X0103118Y0082875D01*
X0102853Y0083010D01*
X0102592Y0083151D01*
X0102335Y0083298D01*
X0102081Y0083451D01*
X0101831Y0083611D01*
X0101585Y0083776D01*
X0101343Y0083948D01*
X0101106Y0084125D01*
X0100872Y0084308D01*
X0100644Y0084497D01*
X0100419Y0084692D01*
X0100200Y0084891D01*
X0099986Y0085096D01*
X0099777Y0085306D01*
X0099573Y0085521D01*
X0099374Y0085742D01*
X0099180Y0085966D01*
X0098993Y0086196D01*
X0098810Y0086430D01*
X0098634Y0086668D01*
X0098463Y0086911D01*
X0098299Y0087157D01*
X0098140Y0087408D01*
X0097988Y0087662D01*
X0097842Y0087921D01*
X0097702Y0088182D01*
X0097568Y0088447D01*
X0097441Y0088715D01*
X0097321Y0088986D01*
X0097207Y0089260D01*
X0097100Y0089536D01*
X0097000Y0089816D01*
X0096907Y0090097D01*
X0096820Y0090381D01*
X0096741Y0090666D01*
X0096668Y0090954D01*
X0096602Y0091243D01*
X0096544Y0091534D01*
X0096493Y0091826D01*
X0096448Y0092119D01*
X0096411Y0092413D01*
X0096381Y0092708D01*
X0096358Y0093004D01*
X0096343Y0093300D01*
X0096335Y0093597D01*
X0096333Y0093893D01*
X0096340Y0094190D01*
X0096353Y0094486D01*
X0096373Y0094782D01*
X0096401Y0095077D01*
X0096436Y0095371D01*
X0096478Y0095665D01*
X0096528Y0095957D01*
X0096584Y0096249D01*
X0096647Y0096538D01*
X0096718Y0096826D01*
X0096795Y0097113D01*
X0096880Y0097397D01*
X0096971Y0097679D01*
X0097069Y0097959D01*
X0097174Y0098236D01*
X0097286Y0098511D01*
X0097404Y0098783D01*
X0097529Y0099052D01*
X0097661Y0099318D01*
X0097798Y0099580D01*
X0097943Y0099839D01*
X0098093Y0100095D01*
X0098250Y0100347D01*
X0098413Y0100595D01*
X0098581Y0100838D01*
X0098756Y0101078D01*
X0098937Y0101313D01*
X0099123Y0101544D01*
X0099314Y0101771D01*
X0099511Y0101992D01*
X0099714Y0102209D01*
X0099922Y0102420D01*
X0100134Y0102627D01*
X0100352Y0102828D01*
X0100575Y0103024D01*
X0100802Y0103215D01*
X0101034Y0103400D01*
X0101270Y0103579D01*
X0101511Y0103752D01*
X0101756Y0103919D01*
X0102005Y0104081D01*
X0102257Y0104236D01*
X0102514Y0104385D01*
X0102773Y0104528D01*
X0103037Y0104665D01*
X0103303Y0104795D01*
X0103573Y0104918D01*
X0103845Y0105035D01*
X0104121Y0105145D01*
X0104399Y0105248D01*
X0104679Y0105345D01*
X0104962Y0105435D01*
X0082654Y0102242D02*
X0082654Y0079801D01*
X0073992Y0079801D01*
X0065331Y0079801D02*
X0056669Y0079801D01*
X0056669Y0102242D01*
X0060213Y0105785D01*
X0065331Y0105785D01*
X0073992Y0105785D02*
X0079110Y0105785D01*
X0082654Y0102242D01*
X0073401Y0104407D02*
X0073682Y0104313D01*
X0073961Y0104211D01*
X0074237Y0104103D01*
X0074510Y0103988D01*
X0074781Y0103867D01*
X0075048Y0103739D01*
X0075313Y0103604D01*
X0075574Y0103463D01*
X0075831Y0103316D01*
X0076085Y0103163D01*
X0076335Y0103003D01*
X0076581Y0102838D01*
X0076823Y0102666D01*
X0077060Y0102489D01*
X0077294Y0102306D01*
X0077522Y0102117D01*
X0077747Y0101922D01*
X0077966Y0101723D01*
X0078180Y0101518D01*
X0078389Y0101308D01*
X0078593Y0101093D01*
X0078792Y0100872D01*
X0078986Y0100648D01*
X0079173Y0100418D01*
X0079356Y0100184D01*
X0079532Y0099946D01*
X0079703Y0099703D01*
X0079867Y0099457D01*
X0080026Y0099206D01*
X0080178Y0098952D01*
X0080324Y0098693D01*
X0080464Y0098432D01*
X0080598Y0098167D01*
X0080725Y0097899D01*
X0080845Y0097628D01*
X0080959Y0097354D01*
X0081066Y0097078D01*
X0081166Y0096798D01*
X0081259Y0096517D01*
X0081346Y0096233D01*
X0081425Y0095948D01*
X0081498Y0095660D01*
X0081564Y0095371D01*
X0081622Y0095080D01*
X0081673Y0094788D01*
X0081718Y0094495D01*
X0081755Y0094201D01*
X0081785Y0093906D01*
X0081808Y0093610D01*
X0081823Y0093314D01*
X0081831Y0093017D01*
X0081833Y0092721D01*
X0081826Y0092424D01*
X0081813Y0092128D01*
X0081793Y0091832D01*
X0081765Y0091537D01*
X0081730Y0091243D01*
X0081688Y0090949D01*
X0081638Y0090657D01*
X0081582Y0090365D01*
X0081519Y0090076D01*
X0081448Y0089788D01*
X0081371Y0089501D01*
X0081286Y0089217D01*
X0081195Y0088935D01*
X0081097Y0088655D01*
X0080992Y0088378D01*
X0080880Y0088103D01*
X0080762Y0087831D01*
X0080637Y0087562D01*
X0080505Y0087296D01*
X0080368Y0087034D01*
X0080223Y0086775D01*
X0080073Y0086519D01*
X0079916Y0086267D01*
X0079753Y0086019D01*
X0079585Y0085776D01*
X0079410Y0085536D01*
X0079229Y0085301D01*
X0079043Y0085070D01*
X0078852Y0084843D01*
X0078655Y0084622D01*
X0078452Y0084405D01*
X0078244Y0084194D01*
X0078032Y0083987D01*
X0077814Y0083786D01*
X0077591Y0083590D01*
X0077364Y0083399D01*
X0077132Y0083214D01*
X0076896Y0083035D01*
X0076655Y0082862D01*
X0076410Y0082695D01*
X0076161Y0082533D01*
X0075909Y0082378D01*
X0075652Y0082229D01*
X0075393Y0082086D01*
X0075129Y0081949D01*
X0074863Y0081819D01*
X0074593Y0081696D01*
X0074321Y0081579D01*
X0074045Y0081469D01*
X0073767Y0081366D01*
X0073487Y0081269D01*
X0073204Y0081179D01*
X0065921Y0081179D02*
X0065640Y0081273D01*
X0065361Y0081375D01*
X0065085Y0081483D01*
X0064812Y0081598D01*
X0064541Y0081719D01*
X0064274Y0081847D01*
X0064009Y0081982D01*
X0063748Y0082123D01*
X0063491Y0082270D01*
X0063237Y0082423D01*
X0062987Y0082583D01*
X0062741Y0082748D01*
X0062499Y0082920D01*
X0062262Y0083097D01*
X0062028Y0083280D01*
X0061800Y0083469D01*
X0061575Y0083664D01*
X0061356Y0083863D01*
X0061142Y0084068D01*
X0060933Y0084278D01*
X0060729Y0084493D01*
X0060530Y0084714D01*
X0060336Y0084938D01*
X0060149Y0085168D01*
X0059966Y0085402D01*
X0059790Y0085640D01*
X0059619Y0085883D01*
X0059455Y0086129D01*
X0059296Y0086380D01*
X0059144Y0086634D01*
X0058998Y0086893D01*
X0058858Y0087154D01*
X0058724Y0087419D01*
X0058597Y0087687D01*
X0058477Y0087958D01*
X0058363Y0088232D01*
X0058256Y0088508D01*
X0058156Y0088788D01*
X0058063Y0089069D01*
X0057976Y0089353D01*
X0057897Y0089638D01*
X0057824Y0089926D01*
X0057758Y0090215D01*
X0057700Y0090506D01*
X0057649Y0090798D01*
X0057604Y0091091D01*
X0057567Y0091385D01*
X0057537Y0091680D01*
X0057514Y0091976D01*
X0057499Y0092272D01*
X0057491Y0092569D01*
X0057489Y0092865D01*
X0057496Y0093162D01*
X0057509Y0093458D01*
X0057529Y0093754D01*
X0057557Y0094049D01*
X0057592Y0094343D01*
X0057634Y0094637D01*
X0057684Y0094929D01*
X0057740Y0095221D01*
X0057803Y0095510D01*
X0057874Y0095798D01*
X0057951Y0096085D01*
X0058036Y0096369D01*
X0058127Y0096651D01*
X0058225Y0096931D01*
X0058330Y0097208D01*
X0058442Y0097483D01*
X0058560Y0097755D01*
X0058685Y0098024D01*
X0058817Y0098290D01*
X0058954Y0098552D01*
X0059099Y0098811D01*
X0059249Y0099067D01*
X0059406Y0099319D01*
X0059569Y0099567D01*
X0059737Y0099810D01*
X0059912Y0100050D01*
X0060093Y0100285D01*
X0060279Y0100516D01*
X0060470Y0100743D01*
X0060667Y0100964D01*
X0060870Y0101181D01*
X0061078Y0101392D01*
X0061290Y0101599D01*
X0061508Y0101800D01*
X0061731Y0101996D01*
X0061958Y0102187D01*
X0062190Y0102372D01*
X0062426Y0102551D01*
X0062667Y0102724D01*
X0062912Y0102891D01*
X0063161Y0103053D01*
X0063413Y0103208D01*
X0063670Y0103357D01*
X0063929Y0103500D01*
X0064193Y0103637D01*
X0064459Y0103767D01*
X0064729Y0103890D01*
X0065001Y0104007D01*
X0065277Y0104117D01*
X0065555Y0104220D01*
X0065835Y0104317D01*
X0066118Y0104407D01*
X0237860Y0113707D02*
X0237860Y0073549D01*
X0258333Y0073549D01*
X0258333Y0113707D01*
X0294170Y0120664D02*
X0321257Y0120664D01*
X0336257Y0120664D02*
X0383383Y0120664D01*
X0383383Y0054483D01*
X0336257Y0054483D01*
X0321257Y0054483D02*
X0294170Y0054483D01*
X0294170Y0120664D01*
D12*
X0273415Y0103586D02*
X0273415Y0100517D01*
X0270346Y0103586D01*
X0269579Y0103586D01*
X0268811Y0102819D01*
X0268811Y0101284D01*
X0269579Y0100517D01*
X0269579Y0098983D02*
X0268811Y0098983D01*
X0269579Y0098983D02*
X0271113Y0097448D01*
X0273415Y0097448D01*
X0271113Y0097448D02*
X0269579Y0095913D01*
X0268811Y0095913D01*
X0245616Y0116154D02*
X0244848Y0115387D01*
X0243314Y0115387D01*
X0242547Y0116154D01*
X0241012Y0116154D02*
X0241012Y0119991D01*
X0242547Y0119224D02*
X0243314Y0119991D01*
X0244848Y0119991D01*
X0245616Y0119224D01*
X0245616Y0118456D01*
X0244848Y0117689D01*
X0245616Y0116922D01*
X0245616Y0116154D01*
X0244848Y0117689D02*
X0244081Y0117689D01*
X0241012Y0116154D02*
X0240245Y0115387D01*
X0238710Y0115387D01*
X0237943Y0116154D01*
X0237943Y0119991D01*
X0217264Y0120369D02*
X0214194Y0120369D01*
X0216496Y0122671D01*
X0216496Y0118067D01*
X0216735Y0117450D02*
X0217503Y0116683D01*
X0217503Y0115916D01*
X0216735Y0115148D01*
X0215201Y0115148D01*
X0214433Y0115916D01*
X0214433Y0116683D01*
X0215201Y0117450D01*
X0216735Y0117450D01*
X0216735Y0115148D02*
X0217503Y0114381D01*
X0217503Y0113614D01*
X0216735Y0112847D01*
X0215201Y0112847D01*
X0214433Y0113614D01*
X0214433Y0114381D01*
X0215201Y0115148D01*
X0212899Y0113614D02*
X0212132Y0112847D01*
X0210597Y0112847D01*
X0209830Y0113614D01*
X0209830Y0116683D01*
X0210597Y0117450D01*
X0212132Y0117450D01*
X0212899Y0116683D01*
X0211892Y0118067D02*
X0212660Y0118834D01*
X0211892Y0118067D02*
X0210358Y0118067D01*
X0209590Y0118834D01*
X0209590Y0121904D01*
X0210358Y0122671D01*
X0211892Y0122671D01*
X0212660Y0121904D01*
X0212621Y0101572D02*
X0210319Y0099270D01*
X0213388Y0099270D01*
X0212621Y0096968D02*
X0212621Y0101572D01*
X0207249Y0101572D02*
X0207249Y0096968D01*
X0207335Y0095886D02*
X0207335Y0091282D01*
X0207295Y0089970D02*
X0207295Y0085366D01*
X0206231Y0084582D02*
X0203162Y0084582D01*
X0202395Y0083815D01*
X0202395Y0082280D01*
X0203162Y0081513D01*
X0203929Y0081513D01*
X0204697Y0082280D01*
X0204697Y0084582D01*
X0204226Y0085366D02*
X0202691Y0086901D01*
X0203458Y0086901D02*
X0201156Y0086901D01*
X0201156Y0085366D02*
X0201156Y0089970D01*
X0203458Y0089970D01*
X0204226Y0089203D01*
X0204226Y0087668D01*
X0203458Y0086901D01*
X0205760Y0085366D02*
X0208830Y0085366D01*
X0210364Y0086134D02*
X0210364Y0087668D01*
X0212666Y0087668D01*
X0213434Y0086901D01*
X0213434Y0086134D01*
X0212666Y0085366D01*
X0211132Y0085366D01*
X0210364Y0086134D01*
X0210364Y0087668D02*
X0211899Y0089203D01*
X0213434Y0089970D01*
X0212706Y0091282D02*
X0211172Y0091282D01*
X0210404Y0092050D01*
X0210404Y0093584D02*
X0211939Y0094352D01*
X0212706Y0094352D01*
X0213474Y0093584D01*
X0213474Y0092050D01*
X0212706Y0091282D01*
X0210404Y0093584D02*
X0210404Y0095886D01*
X0213474Y0095886D01*
X0208784Y0096968D02*
X0205715Y0096968D01*
X0204180Y0096968D02*
X0202645Y0098503D01*
X0203413Y0098503D02*
X0201111Y0098503D01*
X0201111Y0096968D02*
X0201111Y0101572D01*
X0203413Y0101572D01*
X0204180Y0100805D01*
X0204180Y0099270D01*
X0203413Y0098503D01*
X0203498Y0095886D02*
X0201197Y0095886D01*
X0201197Y0091282D01*
X0201197Y0092817D02*
X0203498Y0092817D01*
X0204266Y0093584D01*
X0204266Y0095119D01*
X0203498Y0095886D01*
X0205800Y0094352D02*
X0207335Y0095886D01*
X0205715Y0100037D02*
X0207249Y0101572D01*
X0202731Y0092817D02*
X0204266Y0091282D01*
X0205800Y0091282D02*
X0208870Y0091282D01*
X0207295Y0089970D02*
X0205760Y0088436D01*
X0206231Y0084582D02*
X0206999Y0083815D01*
X0206999Y0082280D01*
X0206231Y0081513D01*
X0205875Y0082509D02*
X0207410Y0084043D01*
X0207410Y0079439D01*
X0206999Y0079211D02*
X0206231Y0079978D01*
X0205875Y0079439D02*
X0208945Y0079439D01*
X0210479Y0080207D02*
X0211247Y0079439D01*
X0212781Y0079439D01*
X0213549Y0080207D01*
X0213549Y0080974D01*
X0212781Y0081741D01*
X0212014Y0081741D01*
X0212781Y0081741D02*
X0213549Y0082509D01*
X0213549Y0083276D01*
X0212781Y0084043D01*
X0211247Y0084043D01*
X0210479Y0083276D01*
X0210608Y0082080D02*
X0212910Y0082080D01*
X0213677Y0081313D01*
X0213677Y0079778D01*
X0212910Y0079011D01*
X0210608Y0079011D01*
X0210608Y0077476D02*
X0210608Y0082080D01*
X0212143Y0079011D02*
X0213677Y0077476D01*
X0212910Y0076172D02*
X0213678Y0075405D01*
X0213678Y0073870D01*
X0212910Y0073103D01*
X0210608Y0073103D01*
X0210389Y0073471D02*
X0213459Y0073471D01*
X0212143Y0073103D02*
X0213678Y0071568D01*
X0215212Y0071568D02*
X0218281Y0071568D01*
X0216747Y0071568D02*
X0216747Y0076172D01*
X0215212Y0074637D01*
X0212910Y0076172D02*
X0210608Y0076172D01*
X0210608Y0071568D01*
X0211924Y0073471D02*
X0211924Y0078075D01*
X0210389Y0076540D01*
X0208855Y0073471D02*
X0205785Y0073471D01*
X0204251Y0073471D02*
X0202716Y0075006D01*
X0203483Y0075006D02*
X0201181Y0075006D01*
X0201181Y0073471D02*
X0201181Y0078075D01*
X0203483Y0078075D01*
X0204251Y0077308D01*
X0204251Y0075773D01*
X0203483Y0075006D01*
X0203162Y0076909D02*
X0206231Y0076909D01*
X0206999Y0077676D01*
X0206999Y0079211D01*
X0207320Y0078075D02*
X0207320Y0073471D01*
X0205785Y0076540D02*
X0207320Y0078075D01*
X0204341Y0079439D02*
X0202806Y0080974D01*
X0203573Y0080974D02*
X0201271Y0080974D01*
X0201271Y0079439D02*
X0201271Y0084043D01*
X0203573Y0084043D01*
X0204341Y0083276D01*
X0204341Y0081741D01*
X0203573Y0080974D01*
X0203162Y0079978D02*
X0202395Y0079211D01*
X0202395Y0077676D01*
X0203162Y0076909D01*
X0215212Y0077476D02*
X0218281Y0077476D01*
X0216747Y0077476D02*
X0216747Y0082080D01*
X0215212Y0080546D01*
X0219816Y0080546D02*
X0220583Y0079778D01*
X0222885Y0079778D01*
X0222885Y0078244D02*
X0222885Y0081313D01*
X0222118Y0082080D01*
X0220583Y0082080D01*
X0219816Y0081313D01*
X0219816Y0080546D01*
X0219816Y0078244D02*
X0220583Y0077476D01*
X0222118Y0077476D01*
X0222885Y0078244D01*
X0222118Y0076172D02*
X0222885Y0075405D01*
X0222885Y0074637D01*
X0222118Y0073870D01*
X0220583Y0073870D01*
X0219816Y0074637D01*
X0219816Y0075405D01*
X0220583Y0076172D01*
X0222118Y0076172D01*
X0222118Y0073870D02*
X0222885Y0073103D01*
X0222885Y0072335D01*
X0222118Y0071568D01*
X0220583Y0071568D01*
X0219816Y0072335D01*
X0219816Y0073103D01*
X0220583Y0073870D01*
X0286453Y0069679D02*
X0286453Y0068144D01*
X0287220Y0067377D01*
X0286453Y0065842D02*
X0290289Y0065842D01*
X0291057Y0065075D01*
X0291057Y0063540D01*
X0290289Y0062773D01*
X0286453Y0062773D01*
X0291057Y0067377D02*
X0287987Y0070446D01*
X0287220Y0070446D01*
X0286453Y0069679D01*
X0291057Y0070446D02*
X0291057Y0067377D01*
X0322686Y0150800D02*
X0322686Y0153869D01*
X0324221Y0155404D02*
X0322686Y0156938D01*
X0327290Y0156938D01*
X0327290Y0155404D02*
X0327290Y0158473D01*
X0324988Y0152334D02*
X0324988Y0150800D01*
X0327290Y0150800D02*
X0322686Y0150800D01*
X0313951Y0175151D02*
X0310882Y0175151D01*
X0310115Y0175918D01*
X0310115Y0177453D01*
X0310882Y0178220D01*
X0311649Y0179755D02*
X0310115Y0181289D01*
X0314718Y0181289D01*
X0314718Y0179755D02*
X0314718Y0182824D01*
X0313951Y0184359D02*
X0314718Y0185126D01*
X0314718Y0186661D01*
X0313951Y0187428D01*
X0312416Y0187428D01*
X0311649Y0186661D01*
X0311649Y0185893D01*
X0312416Y0184359D01*
X0310115Y0184359D01*
X0310115Y0187428D01*
X0313951Y0178220D02*
X0314718Y0177453D01*
X0314718Y0175918D01*
X0313951Y0175151D01*
X0265475Y0195384D02*
X0264708Y0194617D01*
X0263173Y0194617D01*
X0262406Y0195384D01*
X0265475Y0198454D01*
X0265475Y0195384D01*
X0262406Y0195384D02*
X0262406Y0198454D01*
X0263173Y0199221D01*
X0264708Y0199221D01*
X0265475Y0198454D01*
X0264683Y0201049D02*
X0263148Y0201049D01*
X0262381Y0201816D01*
X0260846Y0201816D02*
X0260079Y0201049D01*
X0258544Y0201049D01*
X0257777Y0201816D01*
X0256242Y0201049D02*
X0254707Y0202584D01*
X0254566Y0202059D02*
X0251497Y0197455D01*
X0251626Y0197522D02*
X0254695Y0192918D01*
X0253954Y0193029D02*
X0250885Y0196099D01*
X0250117Y0196099D01*
X0249350Y0195331D01*
X0249350Y0193797D01*
X0250117Y0193029D01*
X0251626Y0192918D02*
X0254695Y0197522D01*
X0254566Y0197455D02*
X0251497Y0202059D01*
X0249962Y0201292D02*
X0249962Y0199757D01*
X0249195Y0198990D01*
X0246893Y0198990D01*
X0247022Y0197522D02*
X0250091Y0197522D01*
X0250117Y0197633D02*
X0249350Y0198401D01*
X0249350Y0199935D01*
X0250117Y0200703D01*
X0253187Y0197633D01*
X0253954Y0198401D01*
X0253954Y0199935D01*
X0253187Y0200703D01*
X0250117Y0200703D01*
X0249962Y0201292D02*
X0249195Y0202059D01*
X0246893Y0202059D01*
X0246893Y0197455D01*
X0248556Y0197522D02*
X0248556Y0192918D01*
X0250117Y0191495D02*
X0249350Y0190727D01*
X0249350Y0189193D01*
X0250117Y0188426D01*
X0253187Y0188426D01*
X0253954Y0189193D01*
X0253954Y0190727D01*
X0253187Y0191495D01*
X0252915Y0190567D02*
X0253683Y0190567D01*
X0254450Y0191335D01*
X0254450Y0193637D01*
X0253954Y0193029D02*
X0253954Y0196099D01*
X0253198Y0196152D02*
X0255500Y0196152D01*
X0256267Y0196919D01*
X0256267Y0198454D01*
X0255500Y0199221D01*
X0253198Y0199221D01*
X0253198Y0194617D01*
X0252915Y0193637D02*
X0252148Y0192869D01*
X0252148Y0191335D01*
X0252915Y0190567D01*
X0255985Y0190567D02*
X0256752Y0191335D01*
X0256752Y0192869D01*
X0255985Y0193637D01*
X0252915Y0193637D01*
X0254732Y0196152D02*
X0256267Y0194617D01*
X0257802Y0195384D02*
X0258569Y0194617D01*
X0260104Y0194617D01*
X0260871Y0195384D01*
X0260871Y0196152D01*
X0260104Y0196919D01*
X0259336Y0196919D01*
X0260104Y0196919D02*
X0260871Y0197686D01*
X0260871Y0198454D01*
X0260104Y0199221D01*
X0258569Y0199221D01*
X0257802Y0198454D01*
X0260846Y0201816D02*
X0260846Y0202584D01*
X0260079Y0203351D01*
X0259311Y0203351D01*
X0260079Y0203351D02*
X0260846Y0204118D01*
X0260846Y0204886D01*
X0260079Y0205653D01*
X0258544Y0205653D01*
X0257777Y0204886D01*
X0256242Y0204886D02*
X0256242Y0203351D01*
X0255475Y0202584D01*
X0253173Y0202584D01*
X0253173Y0201049D02*
X0253173Y0205653D01*
X0255475Y0205653D01*
X0256242Y0204886D01*
X0253187Y0197633D02*
X0250117Y0197633D01*
X0249962Y0197455D02*
X0248427Y0198990D01*
X0252148Y0187498D02*
X0256752Y0187498D01*
X0256752Y0185963D02*
X0256752Y0189033D01*
X0253683Y0185963D02*
X0252148Y0187498D01*
X0252915Y0184429D02*
X0252148Y0183661D01*
X0252148Y0182127D01*
X0252915Y0181360D01*
X0255985Y0181360D01*
X0256752Y0182127D01*
X0256752Y0183661D01*
X0255985Y0184429D01*
X0264683Y0201049D02*
X0265450Y0201816D01*
X0265450Y0202584D01*
X0264683Y0203351D01*
X0263915Y0203351D01*
X0264683Y0203351D02*
X0265450Y0204118D01*
X0265450Y0204886D01*
X0264683Y0205653D01*
X0263148Y0205653D01*
X0262381Y0204886D01*
X0257555Y0241503D02*
X0256020Y0241503D01*
X0255253Y0242271D01*
X0253718Y0241503D02*
X0252184Y0243038D01*
X0252951Y0243038D02*
X0250649Y0243038D01*
X0250649Y0241503D02*
X0250649Y0246107D01*
X0252951Y0246107D01*
X0253718Y0245340D01*
X0253718Y0243805D01*
X0252951Y0243038D01*
X0255253Y0245340D02*
X0256020Y0246107D01*
X0257555Y0246107D01*
X0258322Y0245340D01*
X0258322Y0244573D01*
X0257555Y0243805D01*
X0258322Y0243038D01*
X0258322Y0242271D01*
X0257555Y0241503D01*
X0257555Y0243805D02*
X0256787Y0243805D01*
X0256827Y0247794D02*
X0256827Y0252398D01*
X0255293Y0250863D01*
X0253959Y0251766D02*
X0250890Y0251766D01*
X0253192Y0254068D01*
X0253192Y0249464D01*
X0252991Y0249328D02*
X0250689Y0249328D01*
X0249356Y0249464D02*
X0247821Y0250999D01*
X0248588Y0250999D02*
X0246286Y0250999D01*
X0246286Y0249464D02*
X0246286Y0254068D01*
X0248588Y0254068D01*
X0249356Y0253301D01*
X0249356Y0251766D01*
X0248588Y0250999D01*
X0250689Y0252398D02*
X0252991Y0252398D01*
X0253758Y0251630D01*
X0253758Y0250096D01*
X0252991Y0249328D01*
X0252224Y0249328D02*
X0253758Y0247794D01*
X0255293Y0247794D02*
X0258362Y0247794D01*
X0258197Y0253702D02*
X0255128Y0253702D01*
X0258197Y0256771D01*
X0258197Y0257539D01*
X0257430Y0258306D01*
X0255895Y0258306D01*
X0255128Y0257539D01*
X0253593Y0257539D02*
X0253593Y0256004D01*
X0252826Y0255237D01*
X0250524Y0255237D01*
X0252059Y0255237D02*
X0253593Y0253702D01*
X0250524Y0253702D02*
X0250524Y0258306D01*
X0252826Y0258306D01*
X0253593Y0257539D01*
X0252547Y0263179D02*
X0252547Y0265481D01*
X0253314Y0266248D01*
X0254849Y0266248D01*
X0255616Y0265481D01*
X0255616Y0263179D01*
X0255616Y0264713D02*
X0257151Y0266248D01*
X0258406Y0265566D02*
X0259173Y0266334D01*
X0260708Y0266334D01*
X0261475Y0265566D01*
X0261475Y0263264D01*
X0261475Y0264799D02*
X0263010Y0266334D01*
X0262243Y0267868D02*
X0263010Y0268635D01*
X0263010Y0270170D01*
X0262243Y0270937D01*
X0261475Y0270937D01*
X0260708Y0270170D01*
X0260708Y0267868D01*
X0262243Y0267868D01*
X0260708Y0267868D02*
X0259173Y0269403D01*
X0258406Y0270937D01*
X0257151Y0270085D02*
X0257151Y0268550D01*
X0256383Y0267783D01*
X0255616Y0267783D01*
X0254849Y0268550D01*
X0254849Y0270085D01*
X0255616Y0270852D01*
X0256383Y0270852D01*
X0257151Y0270085D01*
X0254849Y0270085D02*
X0254081Y0270852D01*
X0253314Y0270852D01*
X0252547Y0270085D01*
X0252547Y0268550D01*
X0253314Y0267783D01*
X0254081Y0267783D01*
X0254849Y0268550D01*
X0258406Y0265566D02*
X0258406Y0263264D01*
X0263010Y0263264D01*
X0257151Y0263179D02*
X0252547Y0263179D01*
X0250689Y0252398D02*
X0250689Y0247794D01*
X0271149Y0249247D02*
X0271149Y0246178D01*
X0273451Y0246178D01*
X0272684Y0247712D01*
X0272684Y0248480D01*
X0273451Y0249247D01*
X0274986Y0249247D01*
X0275753Y0248480D01*
X0275753Y0246945D01*
X0274986Y0246178D01*
X0275753Y0244643D02*
X0274219Y0243108D01*
X0274219Y0243876D02*
X0274219Y0241574D01*
X0275753Y0241574D02*
X0271149Y0241574D01*
X0271149Y0243876D01*
X0271917Y0244643D01*
X0273451Y0244643D01*
X0274219Y0243876D01*
X0283965Y0243889D02*
X0288569Y0243889D01*
X0288569Y0246958D01*
X0288569Y0248492D02*
X0288569Y0251562D01*
X0289762Y0251638D02*
X0289762Y0248569D01*
X0294366Y0248569D01*
X0294366Y0251638D01*
X0294366Y0253173D02*
X0294366Y0255475D01*
X0293599Y0256242D01*
X0290529Y0256242D01*
X0289762Y0255475D01*
X0289762Y0253173D01*
X0294366Y0253173D01*
X0292064Y0250103D02*
X0292064Y0248569D01*
X0294366Y0247034D02*
X0294366Y0243965D01*
X0289762Y0243965D01*
X0288569Y0248492D02*
X0283965Y0248492D01*
X0283965Y0251562D01*
X0283965Y0253096D02*
X0283965Y0255398D01*
X0284732Y0256166D01*
X0287801Y0256166D01*
X0288569Y0255398D01*
X0288569Y0253096D01*
X0283965Y0253096D01*
X0286267Y0250027D02*
X0286267Y0248492D01*
X0287007Y0257456D02*
X0287007Y0259031D01*
X0288569Y0259235D02*
X0283965Y0259235D01*
X0285499Y0257700D01*
X0284251Y0257456D02*
X0284251Y0259031D01*
X0281210Y0258955D02*
X0281210Y0257380D01*
X0278454Y0257380D02*
X0278454Y0258955D01*
X0282326Y0264858D02*
X0282326Y0267160D01*
X0283093Y0267927D01*
X0284628Y0267927D01*
X0285395Y0267160D01*
X0285395Y0264858D01*
X0285395Y0266392D02*
X0286930Y0267927D01*
X0286162Y0269462D02*
X0286930Y0270229D01*
X0286930Y0271763D01*
X0286162Y0272531D01*
X0283093Y0272531D01*
X0282326Y0271763D01*
X0282326Y0270229D01*
X0283093Y0269462D01*
X0283860Y0269462D01*
X0284628Y0270229D01*
X0284628Y0272531D01*
X0288511Y0272512D02*
X0288511Y0269443D01*
X0289278Y0267909D02*
X0290813Y0267909D01*
X0291580Y0267141D01*
X0291580Y0264839D01*
X0293115Y0264839D02*
X0288511Y0264839D01*
X0288511Y0267141D01*
X0289278Y0267909D01*
X0291580Y0266374D02*
X0293115Y0267909D01*
X0293115Y0269443D02*
X0292347Y0269443D01*
X0289278Y0272512D01*
X0288511Y0272512D01*
X0286930Y0264858D02*
X0282326Y0264858D01*
X0288569Y0260770D02*
X0288569Y0257700D01*
X0289762Y0258544D02*
X0290529Y0257777D01*
X0289762Y0258544D02*
X0289762Y0260079D01*
X0290529Y0260846D01*
X0291297Y0260846D01*
X0294366Y0257777D01*
X0294366Y0260846D01*
X0283538Y0303066D02*
X0280469Y0303066D01*
X0283538Y0306135D01*
X0283538Y0306902D01*
X0282771Y0307670D01*
X0281236Y0307670D01*
X0280469Y0306902D01*
X0278934Y0306902D02*
X0278934Y0303833D01*
X0278167Y0303066D01*
X0276632Y0303066D01*
X0275865Y0303833D01*
X0275865Y0306902D01*
X0276632Y0307670D01*
X0278167Y0307670D01*
X0278934Y0306902D01*
X0277399Y0304600D02*
X0278934Y0303066D01*
X0269552Y0327905D02*
X0264948Y0327905D01*
X0264948Y0330207D01*
X0265715Y0330974D01*
X0267250Y0330974D01*
X0268017Y0330207D01*
X0268017Y0327905D01*
X0268017Y0329440D02*
X0269552Y0330974D01*
X0269552Y0332509D02*
X0266482Y0335578D01*
X0265715Y0335578D01*
X0264948Y0334811D01*
X0264948Y0333276D01*
X0265715Y0332509D01*
X0269552Y0332509D02*
X0269552Y0335578D01*
X0268784Y0337113D02*
X0268017Y0337113D01*
X0267250Y0337880D01*
X0267250Y0339415D01*
X0268017Y0340182D01*
X0268784Y0340182D01*
X0269552Y0339415D01*
X0269552Y0337880D01*
X0268784Y0337113D01*
X0267250Y0337880D02*
X0266482Y0337113D01*
X0265715Y0337113D01*
X0264948Y0337880D01*
X0264948Y0339415D01*
X0265715Y0340182D01*
X0266482Y0340182D01*
X0267250Y0339415D01*
X0252040Y0307652D02*
X0252040Y0303048D01*
X0250505Y0303048D02*
X0253575Y0303048D01*
X0250505Y0306118D02*
X0252040Y0307652D01*
X0248971Y0306885D02*
X0248971Y0303816D01*
X0248203Y0303048D01*
X0246669Y0303048D01*
X0245901Y0303816D01*
X0245901Y0306885D01*
X0246669Y0307652D01*
X0248203Y0307652D01*
X0248971Y0306885D01*
X0247436Y0304583D02*
X0248971Y0303048D01*
X0228187Y0305945D02*
X0225117Y0305945D01*
X0226652Y0305945D02*
X0226652Y0310549D01*
X0225117Y0309014D01*
X0225582Y0309508D02*
X0226349Y0310275D01*
X0226349Y0311810D01*
X0225582Y0312577D01*
X0222513Y0312577D01*
X0221745Y0311810D01*
X0221745Y0310275D01*
X0222513Y0309508D01*
X0225582Y0309508D01*
X0225582Y0314112D02*
X0222513Y0314112D01*
X0221745Y0314879D01*
X0221745Y0316413D01*
X0222513Y0317181D01*
X0223280Y0318715D02*
X0221745Y0320250D01*
X0226349Y0320250D01*
X0226349Y0318715D02*
X0226349Y0321785D01*
X0225582Y0317181D02*
X0226349Y0316413D01*
X0226349Y0314879D01*
X0225582Y0314112D01*
X0221686Y0281458D02*
X0222454Y0280691D01*
X0222454Y0279924D01*
X0221686Y0279156D01*
X0220152Y0279156D01*
X0219384Y0279924D01*
X0219384Y0280691D01*
X0220152Y0281458D01*
X0221686Y0281458D01*
X0221686Y0279156D02*
X0222454Y0278389D01*
X0222454Y0277622D01*
X0221686Y0276854D01*
X0220152Y0276854D01*
X0219384Y0277622D01*
X0219384Y0278389D01*
X0220152Y0279156D01*
X0217850Y0277622D02*
X0217083Y0276854D01*
X0215548Y0276854D01*
X0214781Y0277622D01*
X0214781Y0280691D01*
X0215548Y0281458D01*
X0217083Y0281458D01*
X0217850Y0280691D01*
X0213246Y0281458D02*
X0211711Y0281458D01*
X0212479Y0281458D02*
X0212479Y0276854D01*
X0213246Y0276854D02*
X0211711Y0276854D01*
X0205246Y0253754D02*
X0206013Y0252987D01*
X0206013Y0251452D01*
X0205246Y0250685D01*
X0202177Y0253754D01*
X0205246Y0253754D01*
X0205246Y0250685D02*
X0202177Y0250685D01*
X0201409Y0251452D01*
X0201409Y0252987D01*
X0202177Y0253754D01*
X0202177Y0249150D02*
X0201409Y0248383D01*
X0201409Y0246848D01*
X0202177Y0246081D01*
X0202177Y0244546D02*
X0203711Y0244546D01*
X0204479Y0243779D01*
X0204479Y0241477D01*
X0206013Y0241477D02*
X0201409Y0241477D01*
X0201409Y0243779D01*
X0202177Y0244546D01*
X0204479Y0243012D02*
X0206013Y0244546D01*
X0206013Y0246081D02*
X0202944Y0249150D01*
X0202177Y0249150D01*
X0206013Y0249150D02*
X0206013Y0246081D01*
X0200237Y0232648D02*
X0200237Y0228044D01*
X0200489Y0228015D02*
X0199722Y0228783D01*
X0198187Y0228783D01*
X0197420Y0228015D01*
X0197168Y0228044D02*
X0194099Y0228044D01*
X0197168Y0231113D01*
X0197168Y0231880D01*
X0196400Y0232648D01*
X0194866Y0232648D01*
X0194099Y0231880D01*
X0192564Y0231880D02*
X0192564Y0230346D01*
X0191797Y0229578D01*
X0189495Y0229578D01*
X0189495Y0228044D02*
X0189495Y0232648D01*
X0191797Y0232648D01*
X0192564Y0231880D01*
X0192324Y0232872D02*
X0190789Y0232872D01*
X0190022Y0233639D01*
X0188487Y0232872D02*
X0185418Y0232872D01*
X0186953Y0232872D02*
X0186953Y0237475D01*
X0185418Y0235941D01*
X0183883Y0236708D02*
X0183116Y0237475D01*
X0181581Y0237475D01*
X0180814Y0236708D01*
X0180814Y0233639D01*
X0181581Y0232872D01*
X0183116Y0232872D01*
X0183883Y0233639D01*
X0190022Y0236708D02*
X0190789Y0237475D01*
X0192324Y0237475D01*
X0193091Y0236708D01*
X0193091Y0235941D01*
X0192324Y0235173D01*
X0193091Y0234406D01*
X0193091Y0233639D01*
X0192324Y0232872D01*
X0192324Y0235173D02*
X0191557Y0235173D01*
X0191029Y0229578D02*
X0192564Y0228044D01*
X0192816Y0228783D02*
X0192816Y0224179D01*
X0195118Y0224179D01*
X0195885Y0224946D01*
X0195885Y0228015D01*
X0195118Y0228783D01*
X0192816Y0228783D01*
X0197420Y0224179D02*
X0200489Y0227248D01*
X0200489Y0228015D01*
X0201772Y0228044D02*
X0198702Y0228044D01*
X0198702Y0231113D02*
X0200237Y0232648D01*
X0200489Y0224179D02*
X0197420Y0224179D01*
X0194300Y0211575D02*
X0192765Y0211575D01*
X0191998Y0210808D01*
X0191998Y0210041D01*
X0192765Y0209273D01*
X0195067Y0209273D01*
X0195067Y0207739D02*
X0195067Y0210808D01*
X0194300Y0211575D01*
X0195067Y0207739D02*
X0194300Y0206972D01*
X0192765Y0206972D01*
X0191998Y0207739D01*
X0190463Y0206972D02*
X0187394Y0206972D01*
X0190463Y0210041D01*
X0190463Y0210808D01*
X0189696Y0211575D01*
X0188162Y0211575D01*
X0187394Y0210808D01*
X0185860Y0210808D02*
X0185092Y0211575D01*
X0183558Y0211575D01*
X0182790Y0210808D01*
X0182790Y0207739D01*
X0183558Y0206972D01*
X0185092Y0206972D01*
X0185860Y0207739D01*
X0106076Y0235391D02*
X0106076Y0236926D01*
X0106076Y0236159D02*
X0101472Y0236159D01*
X0101472Y0236926D02*
X0101472Y0235391D01*
X0102239Y0238460D02*
X0105309Y0238460D01*
X0106076Y0239228D01*
X0106076Y0240762D01*
X0105309Y0241530D01*
X0106076Y0243064D02*
X0103007Y0246134D01*
X0102239Y0246134D01*
X0101472Y0245366D01*
X0101472Y0243832D01*
X0102239Y0243064D01*
X0102239Y0241530D02*
X0101472Y0240762D01*
X0101472Y0239228D01*
X0102239Y0238460D01*
X0106076Y0243064D02*
X0106076Y0246134D01*
X0092654Y0261817D02*
X0089584Y0261817D01*
X0091119Y0261817D02*
X0091119Y0266420D01*
X0089584Y0264886D01*
X0088050Y0265653D02*
X0087282Y0266420D01*
X0085748Y0266420D01*
X0084980Y0265653D01*
X0084980Y0262584D01*
X0085748Y0261817D01*
X0087282Y0261817D01*
X0088050Y0262584D01*
X0087282Y0266935D02*
X0088050Y0267702D01*
X0087282Y0266935D02*
X0085748Y0266935D01*
X0084980Y0267702D01*
X0084980Y0270771D01*
X0085748Y0271539D01*
X0087282Y0271539D01*
X0088050Y0270771D01*
X0089584Y0270771D02*
X0090352Y0271539D01*
X0091886Y0271539D01*
X0092654Y0270771D01*
X0092654Y0270004D01*
X0089584Y0266935D01*
X0092654Y0266935D01*
X0091886Y0272289D02*
X0090352Y0272289D01*
X0089584Y0273056D01*
X0088050Y0273056D02*
X0087282Y0272289D01*
X0085748Y0272289D01*
X0084980Y0273056D01*
X0084980Y0276126D01*
X0085748Y0276893D01*
X0087282Y0276893D01*
X0088050Y0276126D01*
X0089584Y0276126D02*
X0090352Y0276893D01*
X0091886Y0276893D01*
X0092654Y0276126D01*
X0092654Y0275358D01*
X0091886Y0274591D01*
X0092654Y0273824D01*
X0092654Y0273056D01*
X0091886Y0272289D01*
X0091886Y0274591D02*
X0091119Y0274591D01*
X0176487Y0398420D02*
X0178022Y0398420D01*
X0178789Y0399188D01*
X0180324Y0398420D02*
X0183393Y0398420D01*
X0181859Y0398420D02*
X0181859Y0403024D01*
X0180324Y0401490D01*
X0178789Y0402257D02*
X0178022Y0403024D01*
X0176487Y0403024D01*
X0175720Y0402257D01*
X0175720Y0399188D01*
X0176487Y0398420D01*
X0184928Y0398420D02*
X0187997Y0401490D01*
X0187997Y0402257D01*
X0187230Y0403024D01*
X0185695Y0403024D01*
X0184928Y0402257D01*
X0184928Y0398420D02*
X0187997Y0398420D01*
X0237830Y0390538D02*
X0240132Y0390538D01*
X0240900Y0389770D01*
X0240900Y0386701D01*
X0240132Y0385934D01*
X0237830Y0385934D01*
X0237830Y0390538D01*
X0242434Y0389770D02*
X0243202Y0390538D01*
X0244736Y0390538D01*
X0245503Y0389770D01*
X0245503Y0389003D01*
X0244736Y0388236D01*
X0245503Y0387468D01*
X0245503Y0386701D01*
X0244736Y0385934D01*
X0243202Y0385934D01*
X0242434Y0386701D01*
X0243969Y0388236D02*
X0244736Y0388236D01*
X0267315Y0387779D02*
X0267315Y0392383D01*
X0269617Y0392383D01*
X0270384Y0391615D01*
X0270384Y0390081D01*
X0269617Y0389313D01*
X0267315Y0389313D01*
X0268850Y0389313D02*
X0270384Y0387779D01*
X0269907Y0385779D02*
X0270674Y0385011D01*
X0270674Y0383477D01*
X0269907Y0382709D01*
X0267605Y0382709D01*
X0267605Y0381175D02*
X0267605Y0385779D01*
X0269907Y0385779D01*
X0269139Y0382709D02*
X0270674Y0381175D01*
X0272209Y0383477D02*
X0275278Y0383477D01*
X0276813Y0384244D02*
X0276813Y0385011D01*
X0277580Y0385779D01*
X0279115Y0385779D01*
X0279882Y0385011D01*
X0279882Y0384244D01*
X0279115Y0383477D01*
X0277580Y0383477D01*
X0276813Y0384244D01*
X0277580Y0383477D02*
X0276813Y0382709D01*
X0276813Y0381942D01*
X0277580Y0381175D01*
X0279115Y0381175D01*
X0279882Y0381942D01*
X0279882Y0382709D01*
X0279115Y0383477D01*
X0278825Y0387779D02*
X0277290Y0387779D01*
X0276523Y0388546D01*
X0277290Y0390081D02*
X0279592Y0390081D01*
X0279592Y0391615D02*
X0279592Y0388546D01*
X0278825Y0387779D01*
X0277290Y0390081D02*
X0276523Y0390848D01*
X0276523Y0391615D01*
X0277290Y0392383D01*
X0278825Y0392383D01*
X0279592Y0391615D01*
X0279041Y0394286D02*
X0277506Y0394286D01*
X0276739Y0395054D01*
X0279808Y0398123D01*
X0279808Y0395054D01*
X0279041Y0394286D01*
X0276739Y0395054D02*
X0276739Y0398123D01*
X0277506Y0398890D01*
X0279041Y0398890D01*
X0279808Y0398123D01*
X0279658Y0400910D02*
X0276589Y0400910D01*
X0278124Y0400910D02*
X0278124Y0405514D01*
X0276589Y0403979D01*
X0275054Y0403212D02*
X0275054Y0401677D01*
X0274287Y0400910D01*
X0272752Y0400910D01*
X0271985Y0401677D01*
X0271985Y0403212D02*
X0273520Y0403979D01*
X0274287Y0403979D01*
X0275054Y0403212D01*
X0275054Y0405514D02*
X0271985Y0405514D01*
X0271985Y0403212D01*
X0270451Y0403212D02*
X0269683Y0402445D01*
X0267381Y0402445D01*
X0267381Y0400910D02*
X0267381Y0405514D01*
X0269683Y0405514D01*
X0270451Y0404747D01*
X0270451Y0403212D01*
X0268916Y0402445D02*
X0270451Y0400910D01*
X0269833Y0398890D02*
X0270601Y0398123D01*
X0270601Y0396588D01*
X0269833Y0395821D01*
X0267531Y0395821D01*
X0267531Y0394286D02*
X0267531Y0398890D01*
X0269833Y0398890D01*
X0272135Y0398890D02*
X0272135Y0396588D01*
X0273670Y0397355D01*
X0274437Y0397355D01*
X0275205Y0396588D01*
X0275205Y0395054D01*
X0274437Y0394286D01*
X0272903Y0394286D01*
X0272135Y0395054D01*
X0270601Y0394286D02*
X0269066Y0395821D01*
X0272135Y0398890D02*
X0275205Y0398890D01*
X0274221Y0392383D02*
X0271919Y0390081D01*
X0274988Y0390081D01*
X0274221Y0387779D02*
X0274221Y0392383D01*
X0274511Y0385779D02*
X0272209Y0383477D01*
X0274511Y0381175D02*
X0274511Y0385779D01*
X0311820Y0356906D02*
X0311820Y0352302D01*
X0314890Y0352302D01*
X0316424Y0352302D02*
X0319494Y0355371D01*
X0319494Y0356139D01*
X0318726Y0356906D01*
X0317192Y0356906D01*
X0316424Y0356139D01*
X0316424Y0352302D02*
X0319494Y0352302D01*
X0319349Y0347575D02*
X0320116Y0346808D01*
X0320116Y0345273D01*
X0319349Y0344506D01*
X0317047Y0344506D01*
X0318582Y0344506D02*
X0320116Y0342971D01*
X0321651Y0342971D02*
X0324720Y0346040D01*
X0324720Y0346808D01*
X0323953Y0347575D01*
X0322418Y0347575D01*
X0321651Y0346808D01*
X0319349Y0347575D02*
X0317047Y0347575D01*
X0317047Y0342971D01*
X0321651Y0342971D02*
X0324720Y0342971D01*
X0326255Y0343738D02*
X0327022Y0342971D01*
X0328557Y0342971D01*
X0329324Y0343738D01*
X0329324Y0346808D01*
X0328557Y0347575D01*
X0327022Y0347575D01*
X0326255Y0346808D01*
X0326255Y0346040D01*
X0327022Y0345273D01*
X0329324Y0345273D01*
X0328862Y0333537D02*
X0326560Y0331235D01*
X0329629Y0331235D01*
X0328862Y0328933D02*
X0328862Y0333537D01*
X0325025Y0332770D02*
X0325025Y0332002D01*
X0324258Y0331235D01*
X0325025Y0330468D01*
X0325025Y0329700D01*
X0324258Y0328933D01*
X0322723Y0328933D01*
X0321956Y0329700D01*
X0320812Y0330781D02*
X0319278Y0330014D01*
X0317743Y0328479D01*
X0320045Y0328479D01*
X0320812Y0327712D01*
X0320812Y0326944D01*
X0320045Y0326177D01*
X0318510Y0326177D01*
X0317743Y0326944D01*
X0317743Y0328479D01*
X0317352Y0328933D02*
X0317352Y0333537D01*
X0319654Y0333537D01*
X0320421Y0332770D01*
X0320421Y0331235D01*
X0319654Y0330468D01*
X0317352Y0330468D01*
X0316208Y0330014D02*
X0316208Y0329246D01*
X0315441Y0328479D01*
X0316208Y0327712D01*
X0316208Y0326944D01*
X0315441Y0326177D01*
X0313906Y0326177D01*
X0313139Y0326944D01*
X0311604Y0326177D02*
X0310070Y0327712D01*
X0310837Y0327712D02*
X0308535Y0327712D01*
X0308535Y0326177D02*
X0308535Y0330781D01*
X0310837Y0330781D01*
X0311604Y0330014D01*
X0311604Y0328479D01*
X0310837Y0327712D01*
X0313139Y0330014D02*
X0313906Y0330781D01*
X0315441Y0330781D01*
X0316208Y0330014D01*
X0315441Y0328479D02*
X0314674Y0328479D01*
X0317667Y0326598D02*
X0317667Y0321994D01*
X0317667Y0323528D02*
X0319969Y0323528D01*
X0320736Y0324296D01*
X0320736Y0325830D01*
X0319969Y0326598D01*
X0317667Y0326598D01*
X0319202Y0323528D02*
X0320736Y0321994D01*
X0322271Y0322761D02*
X0323038Y0321994D01*
X0324573Y0321994D01*
X0325340Y0322761D01*
X0325340Y0323528D01*
X0324573Y0324296D01*
X0323805Y0324296D01*
X0324573Y0324296D02*
X0325340Y0325063D01*
X0325340Y0325830D01*
X0324573Y0326598D01*
X0323038Y0326598D01*
X0322271Y0325830D01*
X0320421Y0328933D02*
X0318887Y0330468D01*
X0321956Y0332770D02*
X0322723Y0333537D01*
X0324258Y0333537D01*
X0325025Y0332770D01*
X0324258Y0331235D02*
X0323490Y0331235D01*
X0326875Y0326598D02*
X0326875Y0324296D01*
X0328409Y0325063D01*
X0329177Y0325063D01*
X0329944Y0324296D01*
X0329944Y0322761D01*
X0329177Y0321994D01*
X0327642Y0321994D01*
X0326875Y0322761D01*
X0326875Y0326598D02*
X0329944Y0326598D01*
X0328487Y0361176D02*
X0326952Y0361176D01*
X0326185Y0361943D01*
X0326185Y0363478D01*
X0328487Y0363478D01*
X0329254Y0362710D01*
X0329254Y0361943D01*
X0328487Y0361176D01*
X0326185Y0363478D02*
X0327719Y0365012D01*
X0329254Y0365780D01*
X0324650Y0361176D02*
X0321581Y0361176D01*
X0323115Y0361176D02*
X0323115Y0365780D01*
X0321581Y0364245D01*
X0320046Y0365012D02*
X0319279Y0365780D01*
X0317744Y0365780D01*
X0316977Y0365012D01*
X0316977Y0361943D01*
X0317744Y0361176D01*
X0319279Y0361176D01*
X0320046Y0361943D01*
X0344515Y0378979D02*
X0345282Y0378212D01*
X0346817Y0378212D01*
X0347584Y0378979D01*
X0347584Y0382816D01*
X0349119Y0382048D02*
X0349886Y0382816D01*
X0351421Y0382816D01*
X0352188Y0382048D01*
X0351421Y0380514D02*
X0349886Y0380514D01*
X0349119Y0381281D01*
X0349119Y0382048D01*
X0350654Y0383583D02*
X0350654Y0377445D01*
X0351421Y0378212D02*
X0352188Y0378979D01*
X0352188Y0379747D01*
X0351421Y0380514D01*
X0353723Y0380514D02*
X0355258Y0381281D01*
X0356025Y0381281D01*
X0356792Y0380514D01*
X0356792Y0378979D01*
X0356025Y0378212D01*
X0354490Y0378212D01*
X0353723Y0378979D01*
X0353723Y0380514D02*
X0353723Y0382816D01*
X0356792Y0382816D01*
X0351421Y0378212D02*
X0349886Y0378212D01*
X0349119Y0378979D01*
X0344515Y0378979D02*
X0344515Y0382816D01*
X0348264Y0517055D02*
X0348264Y0523193D01*
X0349031Y0522426D02*
X0349798Y0521659D01*
X0349031Y0522426D02*
X0347496Y0522426D01*
X0346729Y0521659D01*
X0346729Y0520891D01*
X0347496Y0520124D01*
X0349031Y0520124D01*
X0349798Y0519357D01*
X0349798Y0518589D01*
X0349031Y0517822D01*
X0347496Y0517822D01*
X0346729Y0518589D01*
X0345194Y0518589D02*
X0345194Y0522426D01*
X0342125Y0522426D02*
X0342125Y0518589D01*
X0342892Y0517822D01*
X0344427Y0517822D01*
X0345194Y0518589D01*
X0351333Y0520124D02*
X0354402Y0520124D01*
X0353635Y0517822D02*
X0353635Y0522426D01*
X0351333Y0520124D01*
X0098929Y0143087D02*
X0098929Y0138483D01*
X0097394Y0138483D02*
X0100464Y0138483D01*
X0097394Y0141552D02*
X0098929Y0143087D01*
X0095860Y0143087D02*
X0095860Y0139250D01*
X0095092Y0138483D01*
X0093558Y0138483D01*
X0092790Y0139250D01*
X0092790Y0143087D01*
X0090177Y0092952D02*
X0093246Y0089883D01*
X0094013Y0089883D01*
X0094013Y0087581D02*
X0089409Y0087581D01*
X0091711Y0085279D01*
X0091711Y0088348D01*
X0089409Y0089883D02*
X0089409Y0092952D01*
X0090177Y0092952D01*
X0090177Y0083744D02*
X0089409Y0082977D01*
X0089409Y0081442D01*
X0090177Y0080675D01*
X0093246Y0080675D01*
X0094013Y0081442D01*
X0094013Y0082977D01*
X0093246Y0083744D01*
X0055170Y0084251D02*
X0055170Y0087320D01*
X0055170Y0088855D02*
X0055170Y0091924D01*
X0055170Y0090389D02*
X0050566Y0090389D01*
X0052101Y0088855D01*
X0050566Y0085785D02*
X0055170Y0085785D01*
X0054403Y0082716D02*
X0055170Y0081949D01*
X0055170Y0080414D01*
X0054403Y0079647D01*
X0051333Y0079647D01*
X0050566Y0080414D01*
X0050566Y0081949D01*
X0051333Y0082716D01*
X0052101Y0084251D02*
X0050566Y0085785D01*
D13*
X0280963Y0258659D03*
X0286761Y0258736D03*
D14*
X0323461Y0178321D02*
X0367961Y0178321D01*
X0367961Y0131321D01*
X0323461Y0131321D01*
X0323461Y0178321D01*
X0170233Y0233794D02*
X0169249Y0232809D01*
X0118068Y0232809D01*
X0115115Y0235762D01*
X0115115Y0286943D01*
X0116099Y0287927D01*
X0169249Y0287927D01*
X0170233Y0286943D01*
X0170233Y0233794D01*
X0118068Y0236746D02*
X0118070Y0236808D01*
X0118076Y0236871D01*
X0118086Y0236932D01*
X0118100Y0236993D01*
X0118117Y0237053D01*
X0118138Y0237112D01*
X0118164Y0237169D01*
X0118192Y0237224D01*
X0118224Y0237278D01*
X0118260Y0237329D01*
X0118298Y0237379D01*
X0118340Y0237425D01*
X0118384Y0237469D01*
X0118432Y0237510D01*
X0118481Y0237548D01*
X0118533Y0237582D01*
X0118587Y0237613D01*
X0118643Y0237641D01*
X0118701Y0237665D01*
X0118760Y0237686D01*
X0118820Y0237702D01*
X0118881Y0237715D01*
X0118943Y0237724D01*
X0119005Y0237729D01*
X0119068Y0237730D01*
X0119130Y0237727D01*
X0119192Y0237720D01*
X0119254Y0237709D01*
X0119314Y0237694D01*
X0119374Y0237676D01*
X0119432Y0237654D01*
X0119489Y0237628D01*
X0119544Y0237598D01*
X0119597Y0237565D01*
X0119648Y0237529D01*
X0119696Y0237490D01*
X0119742Y0237447D01*
X0119785Y0237402D01*
X0119825Y0237354D01*
X0119862Y0237304D01*
X0119896Y0237251D01*
X0119927Y0237197D01*
X0119953Y0237141D01*
X0119977Y0237083D01*
X0119996Y0237023D01*
X0120012Y0236963D01*
X0120024Y0236901D01*
X0120032Y0236840D01*
X0120036Y0236777D01*
X0120036Y0236715D01*
X0120032Y0236652D01*
X0120024Y0236591D01*
X0120012Y0236529D01*
X0119996Y0236469D01*
X0119977Y0236409D01*
X0119953Y0236351D01*
X0119927Y0236295D01*
X0119896Y0236241D01*
X0119862Y0236188D01*
X0119825Y0236138D01*
X0119785Y0236090D01*
X0119742Y0236045D01*
X0119696Y0236002D01*
X0119648Y0235963D01*
X0119597Y0235927D01*
X0119544Y0235894D01*
X0119489Y0235864D01*
X0119432Y0235838D01*
X0119374Y0235816D01*
X0119314Y0235798D01*
X0119254Y0235783D01*
X0119192Y0235772D01*
X0119130Y0235765D01*
X0119068Y0235762D01*
X0119005Y0235763D01*
X0118943Y0235768D01*
X0118881Y0235777D01*
X0118820Y0235790D01*
X0118760Y0235806D01*
X0118701Y0235827D01*
X0118643Y0235851D01*
X0118587Y0235879D01*
X0118533Y0235910D01*
X0118481Y0235944D01*
X0118432Y0235982D01*
X0118384Y0236023D01*
X0118340Y0236067D01*
X0118298Y0236113D01*
X0118260Y0236163D01*
X0118224Y0236214D01*
X0118192Y0236268D01*
X0118164Y0236323D01*
X0118138Y0236380D01*
X0118117Y0236439D01*
X0118100Y0236499D01*
X0118086Y0236560D01*
X0118076Y0236621D01*
X0118070Y0236684D01*
X0118068Y0236746D01*
X0144583Y0466372D02*
X0144583Y0471372D01*
X0144583Y0476372D01*
X0149583Y0476372D01*
X0149583Y0471372D01*
X0149583Y0466372D01*
X0147083Y0504872D02*
X0144583Y0507372D01*
X0143383Y0508672D01*
X0081552Y0476687D02*
X0081552Y0471687D01*
X0081552Y0466687D01*
X0076552Y0466687D02*
X0076552Y0471687D01*
X0076552Y0476687D01*
X0081552Y0476687D01*
X0079052Y0505187D02*
X0076552Y0507687D01*
X0075352Y0508987D01*
X0211100Y0508672D02*
X0212300Y0507372D01*
X0214800Y0504872D01*
X0217300Y0476372D02*
X0212300Y0476372D01*
X0212300Y0471372D01*
X0212300Y0466372D01*
X0217300Y0466372D02*
X0217300Y0471372D01*
X0217300Y0476372D01*
X0280016Y0476372D02*
X0280016Y0471372D01*
X0280016Y0466372D01*
X0285016Y0466372D02*
X0285016Y0471372D01*
X0285016Y0476372D01*
X0280016Y0476372D01*
X0282516Y0504872D02*
X0280016Y0507372D01*
X0278816Y0508672D01*
D15*
X0280016Y0507372D02*
X0267816Y0507372D01*
X0282516Y0504872D02*
X0282516Y0478872D01*
X0280016Y0476372D02*
X0285016Y0466372D01*
X0280016Y0466372D01*
X0282516Y0463872D02*
X0282516Y0459872D01*
X0280016Y0471372D02*
X0259016Y0471372D01*
X0259016Y0468872D01*
X0238300Y0468872D02*
X0238300Y0471372D01*
X0217300Y0471372D01*
X0217300Y0466372D02*
X0212300Y0466372D01*
X0214800Y0463872D02*
X0214800Y0459872D01*
X0217300Y0466372D02*
X0212300Y0476372D01*
X0214800Y0478872D02*
X0214800Y0504872D01*
X0217300Y0507372D02*
X0229600Y0507372D01*
X0212300Y0507372D02*
X0200100Y0507372D01*
X0182300Y0530372D02*
X0247300Y0530372D01*
X0247300Y0441372D01*
X0182300Y0441372D01*
X0182300Y0530372D01*
X0179583Y0530372D02*
X0179583Y0441372D01*
X0114583Y0441372D01*
X0114583Y0530372D01*
X0179583Y0530372D01*
X0161883Y0507372D02*
X0149583Y0507372D01*
X0147083Y0504872D02*
X0147083Y0478872D01*
X0144583Y0476372D02*
X0149583Y0466372D01*
X0144583Y0466372D01*
X0147083Y0463872D02*
X0147083Y0459872D01*
X0144583Y0471372D02*
X0123583Y0471372D01*
X0123583Y0468872D01*
X0102552Y0469187D02*
X0102552Y0471687D01*
X0081552Y0471687D01*
X0081552Y0466687D02*
X0076552Y0466687D01*
X0079052Y0464187D02*
X0079052Y0460187D01*
X0081552Y0466687D02*
X0076552Y0476687D01*
X0079052Y0479187D02*
X0079052Y0505187D01*
X0081552Y0507687D02*
X0093852Y0507687D01*
X0076552Y0507687D02*
X0064352Y0507687D01*
X0046552Y0530687D02*
X0111552Y0530687D01*
X0111552Y0441687D01*
X0046552Y0441687D01*
X0046552Y0530687D01*
X0055552Y0471687D02*
X0076552Y0471687D01*
X0055552Y0471687D02*
X0055552Y0469187D01*
X0132383Y0507372D02*
X0144583Y0507372D01*
X0149583Y0471372D02*
X0170583Y0471372D01*
X0170583Y0468872D01*
X0191300Y0468872D02*
X0191300Y0471372D01*
X0212300Y0471372D01*
X0250016Y0441372D02*
X0315016Y0441372D01*
X0315016Y0530372D01*
X0250016Y0530372D01*
X0250016Y0441372D01*
X0285016Y0471372D02*
X0306016Y0471372D01*
X0306016Y0468872D01*
X0297316Y0507372D02*
X0285016Y0507372D01*
X0296692Y0416003D02*
X0309692Y0416003D01*
X0322692Y0416003D01*
X0322692Y0414003D01*
X0309692Y0414003D01*
X0309692Y0416003D01*
X0308692Y0411003D02*
X0308692Y0405003D01*
X0323692Y0405003D01*
X0323692Y0411003D01*
X0308692Y0411003D01*
X0308692Y0401003D02*
X0308692Y0395003D01*
X0323692Y0395003D01*
X0323692Y0401003D01*
X0308692Y0401003D01*
X0308692Y0391003D02*
X0308692Y0385003D01*
X0323692Y0385003D01*
X0323692Y0391003D01*
X0308692Y0391003D01*
X0308692Y0381003D02*
X0308692Y0375003D01*
X0323692Y0375003D01*
X0323692Y0381003D01*
X0308692Y0381003D01*
X0309692Y0372003D02*
X0309692Y0370003D01*
X0322692Y0370003D01*
X0335692Y0370003D01*
X0335692Y0416003D01*
X0322692Y0416003D01*
X0296692Y0416003D02*
X0296692Y0370003D01*
X0309692Y0370003D01*
X0309692Y0372003D02*
X0322692Y0372003D01*
X0322692Y0370003D01*
X0231647Y0221321D02*
X0208616Y0221321D01*
X0208616Y0180376D01*
X0231647Y0180376D01*
X0231647Y0221321D01*
X0210645Y0217482D02*
X0210647Y0217567D01*
X0210653Y0217651D01*
X0210663Y0217736D01*
X0210677Y0217819D01*
X0210694Y0217902D01*
X0210716Y0217984D01*
X0210742Y0218065D01*
X0210771Y0218145D01*
X0210804Y0218223D01*
X0210840Y0218299D01*
X0210880Y0218374D01*
X0210924Y0218447D01*
X0210971Y0218518D01*
X0211021Y0218586D01*
X0211074Y0218652D01*
X0211131Y0218715D01*
X0211190Y0218776D01*
X0211252Y0218834D01*
X0211317Y0218889D01*
X0211384Y0218941D01*
X0211453Y0218989D01*
X0211525Y0219034D01*
X0211599Y0219076D01*
X0211675Y0219114D01*
X0211752Y0219149D01*
X0211831Y0219180D01*
X0211911Y0219208D01*
X0211993Y0219231D01*
X0212075Y0219251D01*
X0212158Y0219267D01*
X0212242Y0219279D01*
X0212327Y0219287D01*
X0212412Y0219291D01*
X0212496Y0219291D01*
X0212581Y0219287D01*
X0212666Y0219279D01*
X0212750Y0219267D01*
X0212833Y0219251D01*
X0212915Y0219231D01*
X0212997Y0219208D01*
X0213077Y0219180D01*
X0213156Y0219149D01*
X0213233Y0219114D01*
X0213309Y0219076D01*
X0213383Y0219034D01*
X0213455Y0218989D01*
X0213524Y0218941D01*
X0213591Y0218889D01*
X0213656Y0218834D01*
X0213718Y0218776D01*
X0213777Y0218715D01*
X0213834Y0218652D01*
X0213887Y0218586D01*
X0213937Y0218518D01*
X0213984Y0218447D01*
X0214028Y0218374D01*
X0214068Y0218299D01*
X0214104Y0218223D01*
X0214137Y0218145D01*
X0214166Y0218065D01*
X0214192Y0217984D01*
X0214214Y0217902D01*
X0214231Y0217819D01*
X0214245Y0217736D01*
X0214255Y0217651D01*
X0214261Y0217567D01*
X0214263Y0217482D01*
X0214261Y0217397D01*
X0214255Y0217313D01*
X0214245Y0217228D01*
X0214231Y0217145D01*
X0214214Y0217062D01*
X0214192Y0216980D01*
X0214166Y0216899D01*
X0214137Y0216819D01*
X0214104Y0216741D01*
X0214068Y0216665D01*
X0214028Y0216590D01*
X0213984Y0216517D01*
X0213937Y0216446D01*
X0213887Y0216378D01*
X0213834Y0216312D01*
X0213777Y0216249D01*
X0213718Y0216188D01*
X0213656Y0216130D01*
X0213591Y0216075D01*
X0213524Y0216023D01*
X0213455Y0215975D01*
X0213383Y0215930D01*
X0213309Y0215888D01*
X0213233Y0215850D01*
X0213156Y0215815D01*
X0213077Y0215784D01*
X0212997Y0215756D01*
X0212915Y0215733D01*
X0212833Y0215713D01*
X0212750Y0215697D01*
X0212666Y0215685D01*
X0212581Y0215677D01*
X0212496Y0215673D01*
X0212412Y0215673D01*
X0212327Y0215677D01*
X0212242Y0215685D01*
X0212158Y0215697D01*
X0212075Y0215713D01*
X0211993Y0215733D01*
X0211911Y0215756D01*
X0211831Y0215784D01*
X0211752Y0215815D01*
X0211675Y0215850D01*
X0211599Y0215888D01*
X0211525Y0215930D01*
X0211453Y0215975D01*
X0211384Y0216023D01*
X0211317Y0216075D01*
X0211252Y0216130D01*
X0211190Y0216188D01*
X0211131Y0216249D01*
X0211074Y0216312D01*
X0211021Y0216378D01*
X0210971Y0216446D01*
X0210924Y0216517D01*
X0210880Y0216590D01*
X0210840Y0216665D01*
X0210804Y0216741D01*
X0210771Y0216819D01*
X0210742Y0216899D01*
X0210716Y0216980D01*
X0210694Y0217062D01*
X0210677Y0217145D01*
X0210663Y0217228D01*
X0210653Y0217313D01*
X0210647Y0217397D01*
X0210645Y0217482D01*
X0154796Y0113751D02*
X0150596Y0113751D01*
X0146596Y0113751D01*
X0142396Y0113751D01*
X0142320Y0113749D01*
X0142244Y0113743D01*
X0142169Y0113734D01*
X0142094Y0113720D01*
X0142020Y0113703D01*
X0141947Y0113682D01*
X0141875Y0113658D01*
X0141804Y0113629D01*
X0141735Y0113598D01*
X0141668Y0113563D01*
X0141603Y0113524D01*
X0141539Y0113482D01*
X0141478Y0113437D01*
X0141419Y0113389D01*
X0141363Y0113338D01*
X0141309Y0113284D01*
X0141258Y0113228D01*
X0141210Y0113169D01*
X0141165Y0113108D01*
X0141123Y0113044D01*
X0141084Y0112979D01*
X0141049Y0112912D01*
X0141018Y0112843D01*
X0140989Y0112772D01*
X0140965Y0112700D01*
X0140944Y0112627D01*
X0140927Y0112553D01*
X0140913Y0112478D01*
X0140904Y0112403D01*
X0140898Y0112327D01*
X0140896Y0112251D01*
X0146596Y0113751D02*
X0146598Y0113663D01*
X0146604Y0113574D01*
X0146614Y0113486D01*
X0146627Y0113399D01*
X0146645Y0113312D01*
X0146666Y0113226D01*
X0146691Y0113141D01*
X0146720Y0113058D01*
X0146753Y0112975D01*
X0146789Y0112895D01*
X0146828Y0112816D01*
X0146871Y0112738D01*
X0146918Y0112663D01*
X0146968Y0112590D01*
X0147021Y0112519D01*
X0147077Y0112450D01*
X0147136Y0112384D01*
X0147198Y0112321D01*
X0147262Y0112261D01*
X0147329Y0112203D01*
X0147399Y0112149D01*
X0147471Y0112097D01*
X0147545Y0112049D01*
X0147622Y0112004D01*
X0147700Y0111963D01*
X0147780Y0111925D01*
X0147861Y0111891D01*
X0147944Y0111860D01*
X0148029Y0111833D01*
X0148114Y0111810D01*
X0148200Y0111791D01*
X0148288Y0111775D01*
X0148375Y0111763D01*
X0148463Y0111755D01*
X0148552Y0111751D01*
X0148640Y0111751D01*
X0148729Y0111755D01*
X0148817Y0111763D01*
X0148904Y0111775D01*
X0148992Y0111791D01*
X0149078Y0111810D01*
X0149163Y0111833D01*
X0149248Y0111860D01*
X0149331Y0111891D01*
X0149412Y0111925D01*
X0149492Y0111963D01*
X0149570Y0112004D01*
X0149647Y0112049D01*
X0149721Y0112097D01*
X0149793Y0112149D01*
X0149863Y0112203D01*
X0149930Y0112261D01*
X0149994Y0112321D01*
X0150056Y0112384D01*
X0150115Y0112450D01*
X0150171Y0112519D01*
X0150224Y0112590D01*
X0150274Y0112663D01*
X0150321Y0112738D01*
X0150364Y0112816D01*
X0150403Y0112895D01*
X0150439Y0112975D01*
X0150472Y0113058D01*
X0150501Y0113141D01*
X0150526Y0113226D01*
X0150547Y0113312D01*
X0150565Y0113399D01*
X0150578Y0113486D01*
X0150588Y0113574D01*
X0150594Y0113663D01*
X0150596Y0113751D01*
X0154796Y0113751D02*
X0154872Y0113749D01*
X0154948Y0113743D01*
X0155023Y0113734D01*
X0155098Y0113720D01*
X0155172Y0113703D01*
X0155245Y0113682D01*
X0155317Y0113658D01*
X0155388Y0113629D01*
X0155457Y0113598D01*
X0155524Y0113563D01*
X0155589Y0113524D01*
X0155653Y0113482D01*
X0155714Y0113437D01*
X0155773Y0113389D01*
X0155829Y0113338D01*
X0155883Y0113284D01*
X0155934Y0113228D01*
X0155982Y0113169D01*
X0156027Y0113108D01*
X0156069Y0113044D01*
X0156108Y0112979D01*
X0156143Y0112912D01*
X0156174Y0112843D01*
X0156203Y0112772D01*
X0156227Y0112700D01*
X0156248Y0112627D01*
X0156265Y0112553D01*
X0156279Y0112478D01*
X0156288Y0112403D01*
X0156294Y0112327D01*
X0156296Y0112251D01*
X0156296Y0080251D02*
X0156294Y0080175D01*
X0156288Y0080099D01*
X0156279Y0080024D01*
X0156265Y0079949D01*
X0156248Y0079875D01*
X0156227Y0079802D01*
X0156203Y0079730D01*
X0156174Y0079659D01*
X0156143Y0079590D01*
X0156108Y0079523D01*
X0156069Y0079458D01*
X0156027Y0079394D01*
X0155982Y0079333D01*
X0155934Y0079274D01*
X0155883Y0079218D01*
X0155829Y0079164D01*
X0155773Y0079113D01*
X0155714Y0079065D01*
X0155653Y0079020D01*
X0155589Y0078978D01*
X0155524Y0078939D01*
X0155457Y0078904D01*
X0155388Y0078873D01*
X0155317Y0078844D01*
X0155245Y0078820D01*
X0155172Y0078799D01*
X0155098Y0078782D01*
X0155023Y0078768D01*
X0154948Y0078759D01*
X0154872Y0078753D01*
X0154796Y0078751D01*
X0142396Y0078751D01*
X0142320Y0078753D01*
X0142244Y0078759D01*
X0142169Y0078768D01*
X0142094Y0078782D01*
X0142020Y0078799D01*
X0141947Y0078820D01*
X0141875Y0078844D01*
X0141804Y0078873D01*
X0141735Y0078904D01*
X0141668Y0078939D01*
X0141603Y0078978D01*
X0141539Y0079020D01*
X0141478Y0079065D01*
X0141419Y0079113D01*
X0141363Y0079164D01*
X0141309Y0079218D01*
X0141258Y0079274D01*
X0141210Y0079333D01*
X0141165Y0079394D01*
X0141123Y0079458D01*
X0141084Y0079523D01*
X0141049Y0079590D01*
X0141018Y0079659D01*
X0140989Y0079730D01*
X0140965Y0079802D01*
X0140944Y0079875D01*
X0140927Y0079949D01*
X0140913Y0080024D01*
X0140904Y0080099D01*
X0140898Y0080175D01*
X0140896Y0080251D01*
D16*
X0142296Y0078751D02*
X0142296Y0113751D01*
D17*
X0142096Y0115501D02*
X0142096Y0120005D01*
X0141346Y0120005D02*
X0142847Y0120005D01*
X0144415Y0119254D02*
X0144415Y0116252D01*
X0145165Y0115501D01*
X0146667Y0115501D01*
X0147417Y0116252D01*
X0149019Y0116252D02*
X0149769Y0115501D01*
X0151271Y0115501D01*
X0152021Y0116252D01*
X0152021Y0117002D01*
X0151271Y0117753D01*
X0150520Y0117753D01*
X0151271Y0117753D02*
X0152021Y0118504D01*
X0152021Y0119254D01*
X0151271Y0120005D01*
X0149769Y0120005D01*
X0149019Y0119254D01*
X0147417Y0119254D02*
X0146667Y0120005D01*
X0145165Y0120005D01*
X0144415Y0119254D01*
X0142847Y0115501D02*
X0141346Y0115501D01*
X0274993Y0108509D02*
X0274993Y0095910D01*
X0284836Y0095910D01*
X0284836Y0108509D01*
X0274993Y0108509D01*
X0346284Y0197990D02*
X0346284Y0376573D01*
X0376556Y0376573D01*
X0376556Y0197990D01*
X0346284Y0197990D01*
X0294296Y0338566D02*
X0291293Y0338566D01*
X0292794Y0338566D02*
X0292794Y0343070D01*
X0291293Y0341569D01*
X0289692Y0342319D02*
X0288941Y0343070D01*
X0287440Y0343070D01*
X0286689Y0342319D01*
X0286689Y0341569D01*
X0287440Y0340818D01*
X0288941Y0340818D01*
X0289692Y0340067D01*
X0289692Y0339317D01*
X0288941Y0338566D01*
X0287440Y0338566D01*
X0286689Y0339317D01*
X0285088Y0339317D02*
X0285088Y0343070D01*
X0282085Y0343070D02*
X0282085Y0339317D01*
X0282836Y0338566D01*
X0284337Y0338566D01*
X0285088Y0339317D01*
X0288190Y0337816D02*
X0288190Y0343821D01*
X0258078Y0403491D02*
X0258078Y0423491D01*
X0257074Y0423491D01*
X0257074Y0421523D01*
X0217074Y0421523D01*
X0217074Y0423491D01*
X0216070Y0423491D01*
X0216070Y0403491D01*
X0258078Y0403491D01*
X0257074Y0423491D02*
X0217074Y0423491D01*
X0337438Y0413150D02*
X0338939Y0411649D01*
X0337438Y0413150D02*
X0341942Y0413150D01*
X0341942Y0411649D02*
X0341942Y0414652D01*
X0341942Y0410048D02*
X0337438Y0410048D01*
X0337438Y0407045D02*
X0341942Y0407045D01*
X0340440Y0408547D01*
X0341942Y0410048D01*
X0341191Y0405444D02*
X0340440Y0405444D01*
X0339690Y0404693D01*
X0339690Y0403192D01*
X0338939Y0402441D01*
X0338188Y0402441D01*
X0337438Y0403192D01*
X0337438Y0404693D01*
X0338188Y0405444D01*
X0341191Y0405444D02*
X0341942Y0404693D01*
X0341942Y0403192D01*
X0341191Y0402441D01*
X0342614Y0396205D02*
X0342614Y0514079D01*
X0375823Y0514079D01*
X0375823Y0396205D01*
X0342614Y0396205D01*
D18*
X0207665Y0403315D02*
X0161602Y0403315D01*
X0161602Y0433237D01*
X0207665Y0433237D01*
X0207665Y0403315D01*
D19*
X0195381Y0406552D02*
X0192912Y0406552D01*
X0194146Y0406552D02*
X0194146Y0410255D01*
X0192912Y0409021D01*
X0191697Y0405935D02*
X0189229Y0405935D01*
X0188014Y0407169D02*
X0187397Y0406552D01*
X0186163Y0406552D01*
X0185546Y0407169D01*
X0185546Y0409638D01*
X0186163Y0410255D01*
X0187397Y0410255D01*
X0188014Y0409638D01*
X0184331Y0409638D02*
X0184331Y0407169D01*
X0183714Y0406552D01*
X0181862Y0406552D01*
X0181862Y0410255D01*
X0183714Y0410255D01*
X0184331Y0409638D01*
X0180648Y0409638D02*
X0180031Y0410255D01*
X0178796Y0410255D01*
X0178179Y0409638D01*
X0176965Y0409638D02*
X0176348Y0410255D01*
X0175113Y0410255D01*
X0174496Y0409638D01*
X0174496Y0407169D01*
X0175113Y0406552D01*
X0176348Y0406552D01*
X0176965Y0407169D01*
X0178179Y0406552D02*
X0180648Y0409021D01*
X0180648Y0409638D01*
X0180648Y0406552D02*
X0178179Y0406552D01*
X0173282Y0407169D02*
X0173282Y0409638D01*
X0172665Y0410255D01*
X0170813Y0410255D01*
X0170813Y0406552D01*
X0172665Y0406552D01*
X0173282Y0407169D01*
X0319093Y0142460D02*
X0319576Y0142460D01*
X0320060Y0141976D01*
X0320060Y0140525D01*
X0320544Y0139513D02*
X0321028Y0139513D01*
X0321511Y0139029D01*
X0321511Y0138062D01*
X0321028Y0137578D01*
X0321028Y0136567D02*
X0318609Y0136567D01*
X0319093Y0137578D02*
X0319576Y0137578D01*
X0320060Y0138062D01*
X0320060Y0139029D01*
X0320544Y0139513D01*
X0321511Y0140525D02*
X0321511Y0141976D01*
X0321028Y0142460D01*
X0320544Y0142460D01*
X0320060Y0141976D01*
X0319093Y0142460D02*
X0318609Y0141976D01*
X0318609Y0140525D01*
X0321511Y0140525D01*
X0319093Y0139513D02*
X0318609Y0139029D01*
X0318609Y0138062D01*
X0319093Y0137578D01*
X0321028Y0136567D02*
X0321511Y0136083D01*
X0321511Y0135115D01*
X0321028Y0134632D01*
X0318609Y0134632D01*
D20*
X0253855Y0429341D02*
X0253855Y0435647D01*
X0251753Y0433545D01*
X0249652Y0435647D01*
X0249652Y0429341D01*
X0247410Y0432494D02*
X0243206Y0432494D01*
X0240964Y0435647D02*
X0236761Y0435647D01*
X0238862Y0435647D02*
X0238862Y0429341D01*
X0234519Y0429341D02*
X0230315Y0429341D01*
X0230315Y0435647D01*
X0234519Y0435647D01*
X0232417Y0432494D02*
X0230315Y0432494D01*
X0228073Y0435647D02*
X0223870Y0435647D01*
X0223870Y0429341D01*
X0223870Y0432494D02*
X0225971Y0432494D01*
X0221628Y0432494D02*
X0221628Y0434596D01*
X0220577Y0435647D01*
X0217424Y0435647D01*
X0217424Y0429341D01*
X0217424Y0431443D02*
X0220577Y0431443D01*
X0221628Y0432494D01*
X0234759Y0532722D02*
X0234759Y0539028D01*
X0235810Y0535875D02*
X0238962Y0532722D01*
X0241204Y0533773D02*
X0242255Y0532722D01*
X0244357Y0532722D01*
X0245408Y0533773D01*
X0245408Y0534824D01*
X0244357Y0535875D01*
X0241204Y0535875D01*
X0241204Y0533773D01*
X0241204Y0535875D02*
X0243306Y0537977D01*
X0245408Y0539028D01*
X0238962Y0539028D02*
X0234759Y0534824D01*
X0177691Y0532722D02*
X0173488Y0532722D01*
X0177691Y0536926D01*
X0177691Y0537977D01*
X0176641Y0539028D01*
X0174539Y0539028D01*
X0173488Y0537977D01*
X0171246Y0539028D02*
X0167042Y0534824D01*
X0168093Y0535875D02*
X0171246Y0532722D01*
X0167042Y0532722D02*
X0167042Y0539028D01*
X0109660Y0538292D02*
X0109660Y0537241D01*
X0108609Y0536190D01*
X0109660Y0535139D01*
X0109660Y0534088D01*
X0108609Y0533037D01*
X0106507Y0533037D01*
X0105456Y0534088D01*
X0103214Y0533037D02*
X0100062Y0536190D01*
X0099011Y0535139D02*
X0103214Y0539343D01*
X0105456Y0538292D02*
X0106507Y0539343D01*
X0108609Y0539343D01*
X0109660Y0538292D01*
X0108609Y0536190D02*
X0107558Y0536190D01*
X0099011Y0539343D02*
X0099011Y0533037D01*
X0302475Y0532722D02*
X0302475Y0539028D01*
X0303526Y0535875D02*
X0306679Y0532722D01*
X0308921Y0532722D02*
X0313124Y0532722D01*
X0311023Y0532722D02*
X0311023Y0539028D01*
X0308921Y0536926D01*
X0306679Y0539028D02*
X0302475Y0534824D01*
D21*
X0192556Y0257888D02*
X0186257Y0257888D01*
X0186257Y0245290D02*
X0192556Y0245290D01*
D22*
X0184041Y0246364D02*
X0183391Y0246364D01*
X0182957Y0246798D01*
X0182740Y0246798D01*
X0183174Y0247219D02*
X0182740Y0247653D01*
X0184041Y0247653D01*
X0184041Y0247219D02*
X0184041Y0248087D01*
X0183391Y0246364D02*
X0182957Y0245930D01*
X0182740Y0245930D01*
X0225180Y0215426D02*
X0225430Y0215426D01*
X0226431Y0214425D01*
X0226681Y0214425D01*
X0226431Y0213953D02*
X0226681Y0213703D01*
X0226681Y0213202D01*
X0226431Y0212952D01*
X0225430Y0212952D01*
X0225180Y0213202D01*
X0225180Y0213703D01*
X0225430Y0213953D01*
X0225180Y0214425D02*
X0225180Y0215426D01*
X0225180Y0212470D02*
X0225180Y0211970D01*
X0225180Y0212220D02*
X0226681Y0212220D01*
X0226681Y0211970D02*
X0226681Y0212470D01*
D23*
X0198023Y0233479D03*
X0242538Y0395234D03*
D24*
X0250408Y0204755D03*
X0250538Y0200218D03*
D25*
X0310442Y0378003D03*
X0312942Y0378003D03*
X0315442Y0378003D03*
X0315442Y0388003D03*
X0312942Y0388003D03*
X0310442Y0388003D03*
X0310442Y0398003D03*
X0312942Y0398003D03*
X0315442Y0398003D03*
X0315442Y0408003D03*
X0312942Y0408003D03*
X0310442Y0408003D03*
M02*
