G75*
%MOIN*%
%OFA0B0*%
%FSLAX25Y25*%
%IPPOS*%
%LPD*%
%AMOC8*
5,1,8,0,0,1.08239X$1,22.5*
%
%ADD10R,0.04737X0.05131*%
%ADD11C,0.06343*%
%ADD12C,0.10249*%
%ADD13C,0.06737*%
%ADD14C,0.13400*%
%ADD15R,0.05131X0.04737*%
%ADD16R,0.05524X0.07887*%
%ADD17R,0.04737X0.03556*%
%ADD18R,0.07887X0.07887*%
%ADD19OC8,0.07887*%
%ADD20C,0.07400*%
%ADD21C,0.08400*%
%ADD22C,0.10800*%
%ADD23C,0.07400*%
%ADD24C,0.13800*%
%ADD25C,0.08600*%
%ADD26C,0.06000*%
%ADD27C,0.05524*%
%ADD28C,0.07887*%
%ADD29C,0.03400*%
D10*
X0283682Y0081489D03*
X0283643Y0087198D03*
X0283623Y0093094D03*
X0283791Y0098367D03*
X0290484Y0098367D03*
X0290315Y0093094D03*
X0290336Y0087198D03*
X0290375Y0081489D03*
X0354252Y0077432D03*
X0354252Y0070739D03*
X0322558Y0378364D03*
X0315865Y0378364D03*
X0315492Y0387969D03*
X0322185Y0387969D03*
D11*
X0306257Y0105073D03*
X0306257Y0095073D03*
X0306257Y0085073D03*
X0306257Y0075073D03*
X0316257Y0070073D03*
X0316257Y0080073D03*
X0316257Y0090073D03*
X0316257Y0100073D03*
D12*
X0328624Y0117819D03*
X0328624Y0057640D03*
D13*
X0351303Y0060120D03*
X0358803Y0060120D03*
X0360053Y0115026D03*
X0352553Y0115026D03*
X0349863Y0212676D03*
X0349863Y0222676D03*
X0349863Y0232676D03*
X0349863Y0242676D03*
X0349863Y0252676D03*
X0349863Y0262676D03*
X0349863Y0272676D03*
X0349863Y0282676D03*
X0349863Y0292676D03*
X0349863Y0302676D03*
X0349863Y0312676D03*
X0349863Y0322676D03*
X0349863Y0332676D03*
X0349863Y0342676D03*
X0349863Y0352676D03*
X0349863Y0362676D03*
D14*
X0341257Y0110073D03*
X0341257Y0065073D03*
D15*
X0331551Y0070264D03*
X0324460Y0070172D03*
X0324460Y0076865D03*
X0331551Y0076957D03*
X0340000Y0083021D03*
X0340000Y0089714D03*
X0346423Y0089707D03*
X0346423Y0083014D03*
X0290430Y0076313D03*
X0283737Y0076313D03*
X0283737Y0069227D03*
X0283737Y0063164D03*
X0290430Y0063164D03*
X0290430Y0069227D03*
X0290632Y0103882D03*
X0290616Y0109070D03*
X0290611Y0114143D03*
X0283918Y0114143D03*
X0283923Y0109070D03*
X0283939Y0103882D03*
X0168176Y0307184D03*
X0168176Y0313877D03*
X0160066Y0313838D03*
X0160066Y0307145D03*
X0152327Y0307186D03*
X0152327Y0313879D03*
X0144628Y0313760D03*
X0144628Y0307067D03*
D16*
X0277759Y0123912D03*
X0290751Y0123912D03*
D17*
X0327713Y0096628D03*
X0327713Y0090723D03*
X0298489Y0074090D03*
X0298489Y0068185D03*
D18*
X0194634Y0424182D03*
D19*
X0184634Y0424182D03*
X0174634Y0424182D03*
D20*
X0227074Y0416791D02*
X0227074Y0410191D01*
X0237074Y0410191D02*
X0237074Y0416791D01*
X0247074Y0416791D02*
X0247074Y0410191D01*
D21*
X0093801Y0168503D03*
X0103644Y0168503D03*
X0113486Y0168503D03*
X0123329Y0168503D03*
X0133171Y0168503D03*
X0143014Y0168503D03*
X0152856Y0168503D03*
X0162699Y0168503D03*
X0182384Y0168503D03*
X0192226Y0168503D03*
X0202069Y0168503D03*
X0211911Y0168503D03*
X0221754Y0168503D03*
X0231596Y0168503D03*
X0124510Y0205905D03*
X0114667Y0205905D03*
X0117423Y0357873D03*
X0107581Y0357873D03*
X0097738Y0357873D03*
X0087896Y0357873D03*
X0078053Y0357873D03*
X0068210Y0357873D03*
X0058368Y0357873D03*
X0127266Y0357873D03*
X0137108Y0357873D03*
X0146951Y0357873D03*
X0162699Y0357873D03*
X0172541Y0357873D03*
X0182384Y0357873D03*
X0192226Y0357873D03*
X0202069Y0357873D03*
X0211911Y0357873D03*
X0221754Y0357873D03*
X0231596Y0357873D03*
X0251281Y0379330D03*
D22*
X0321163Y0302558D03*
X0321163Y0286810D03*
X0321163Y0271062D03*
X0321163Y0255314D03*
X0321163Y0239566D03*
X0321163Y0223818D03*
D23*
X0340761Y0159321D03*
X0340761Y0149521D03*
X0353361Y0149521D03*
X0353361Y0159321D03*
D24*
X0342761Y0178321D03*
X0342761Y0130921D03*
D25*
X0282516Y0447472D02*
X0282516Y0455272D01*
X0306016Y0455472D02*
X0306016Y0463272D01*
X0306016Y0503472D02*
X0306016Y0511272D01*
X0259016Y0511272D02*
X0259016Y0503472D01*
X0238300Y0503472D02*
X0238300Y0511272D01*
X0238300Y0463272D02*
X0238300Y0455472D01*
X0259016Y0455472D02*
X0259016Y0463272D01*
X0214800Y0455272D02*
X0214800Y0447472D01*
X0191300Y0455472D02*
X0191300Y0463272D01*
X0170583Y0463272D02*
X0170583Y0455472D01*
X0147083Y0455272D02*
X0147083Y0447472D01*
X0123583Y0455472D02*
X0123583Y0463272D01*
X0102552Y0463587D02*
X0102552Y0455787D01*
X0079052Y0455587D02*
X0079052Y0447787D01*
X0055552Y0455787D02*
X0055552Y0463587D01*
X0055552Y0503787D02*
X0055552Y0511587D01*
X0102552Y0511587D02*
X0102552Y0503787D01*
X0123583Y0503472D02*
X0123583Y0511272D01*
X0170583Y0511272D02*
X0170583Y0503472D01*
X0191300Y0503472D02*
X0191300Y0511272D01*
D26*
X0298592Y0408003D02*
X0303792Y0408003D01*
X0303792Y0398003D02*
X0298592Y0398003D01*
X0298592Y0388003D02*
X0303792Y0388003D01*
X0303792Y0378003D02*
X0298592Y0378003D01*
X0328592Y0378003D02*
X0333792Y0378003D01*
X0333792Y0388003D02*
X0328592Y0388003D01*
X0328592Y0398003D02*
X0333792Y0398003D01*
X0333792Y0408003D02*
X0328592Y0408003D01*
D27*
X0346925Y0410122D03*
X0346925Y0420122D03*
X0346925Y0430122D03*
X0346925Y0440122D03*
X0346925Y0450122D03*
X0346925Y0460122D03*
X0346925Y0470122D03*
X0346925Y0480122D03*
X0346925Y0490122D03*
X0346925Y0500122D03*
X0356925Y0510122D03*
X0356925Y0400122D03*
X0359863Y0372676D03*
X0349863Y0362676D03*
X0349863Y0352676D03*
X0349863Y0342676D03*
X0349863Y0332676D03*
X0349863Y0322676D03*
X0349863Y0312676D03*
X0349863Y0302676D03*
X0349863Y0292676D03*
X0349863Y0282676D03*
X0349863Y0272676D03*
X0349863Y0262676D03*
X0349863Y0252676D03*
X0349863Y0242676D03*
X0349863Y0232676D03*
X0349863Y0222676D03*
X0349863Y0212676D03*
X0359863Y0202676D03*
D28*
X0346925Y0410122D03*
X0346925Y0420122D03*
X0346925Y0430122D03*
X0346925Y0440122D03*
X0346925Y0450122D03*
X0346925Y0460122D03*
X0346925Y0470122D03*
X0346925Y0480122D03*
X0346925Y0490122D03*
X0346925Y0500122D03*
D29*
X0174455Y0327042D03*
X0174555Y0322472D03*
X0174605Y0317792D03*
X0174525Y0313252D03*
X0144605Y0301592D03*
M02*
