%
M48
M72
T01C0.01000
T02C0.03150
T03C0.03200
T04C0.03543
T05C0.03600
T06C0.03937
T07C0.04000
T08C0.04331
T09C0.04400
T10C0.04724
T11C0.05200
T12C0.06299
T13C0.09000
T14C0.12600
%
T01
X144605Y301592
X174525Y313252
X174605Y317792
X174555Y322472
X174455Y327042
T02
X174634Y424182
X184634Y424182
X194634Y424182
T03
X301192Y408003
X301192Y398003
X301192Y388003
X301192Y378003
X331192Y378003
X331192Y388003
X331192Y398003
X331192Y408003
T04
X306257Y105073
X306257Y95073
X306257Y85073
X306257Y75073
X316257Y70073
X316257Y80073
X316257Y90073
X316257Y100073
T05
X340761Y149521
X340761Y159321
X353361Y159321
X353361Y149521
T06
X352553Y115026
X360053Y115026
X358803Y60120
X351303Y60120
X349863Y212676
X349863Y222676
X349863Y232676
X349863Y242676
X349863Y252676
X349863Y262676
X349863Y272676
X349863Y282676
X349863Y292676
X349863Y302676
X349863Y312676
X349863Y322676
X349863Y332676
X349863Y342676
X349863Y352676
X349863Y362676
T07
X93801Y168503
X103644Y168503
X113486Y168503
X123329Y168503
X133171Y168503
X143014Y168503
X152856Y168503
X162699Y168503
X182384Y168503
X192226Y168503
X202069Y168503
X211911Y168503
X221754Y168503
X231596Y168503
X124510Y205905
X114667Y205905
X117423Y357873
X107581Y357873
X97738Y357873
X87896Y357873
X78053Y357873
X68210Y357873
X58368Y357873
X127266Y357873
X137108Y357873
X146951Y357873
X162699Y357873
X172541Y357873
X182384Y357873
X192226Y357873
X202069Y357873
X211911Y357873
X221754Y357873
X231596Y357873
X251281Y379330
T08
X321163Y302558
X321163Y286810
X321163Y271062
X321163Y255314
X321163Y239566
X321163Y223818
T09
X247074Y413491
X237074Y413491
X227074Y413491
T10
X346925Y410122
X346925Y410122
X346925Y420122
X346925Y420122
X346925Y430122
X346925Y430122
X346925Y440122
X346925Y440122
X346925Y450122
X346925Y450122
X346925Y460122
X346925Y460122
X346925Y470122
X346925Y470122
X346925Y480122
X346925Y480122
X346925Y490122
X346925Y490122
X346925Y500122
X346925Y500122
X356925Y510122
X356925Y400122
X359863Y372676
X349863Y362676
X349863Y352676
X349863Y342676
X349863Y332676
X349863Y322676
X349863Y312676
X349863Y302676
X349863Y292676
X349863Y282676
X349863Y272676
X349863Y262676
X349863Y252676
X349863Y242676
X349863Y232676
X349863Y222676
X349863Y212676
X359863Y202676
T11
X282516Y451372
X306016Y459372
X306016Y507372
X259016Y507372
X238300Y507372
X238300Y459372
X259016Y459372
X214800Y451372
X191300Y459372
X170583Y459372
X147083Y451372
X123583Y459372
X102552Y459687
X79052Y451687
X55552Y459687
X55552Y507687
X102552Y507687
X123583Y507372
X170583Y507372
X191300Y507372
T12
X328624Y117819
X328624Y57640
T13
X342761Y130921
X342761Y178321
T14
X341257Y110073
X341257Y65073
M30
